{
	"asset":{
		"generator":"Khronos glTF Blender I/O v5.2.40",
		"version":"2.0"
	},
	"scene":0,
	"scenes":[
		{
			"name":"Scene",
			"nodes":[
				0
			]
		}
	],
	"nodes":[
		{
			"mesh":0,
			"name":"cardboard_box_01",
			"translation":[
				0,
				0.17664676904678345,
				0
			]
		}
	],
	"materials":[
		{
			"doubleSided":true,
			"name":"cardboard_box_01",
			"normalTexture":{
				"index":0
			},
			"pbrMetallicRoughness":{
				"baseColorTexture":{
					"index":1
				},
				"metallicFactor":0,
				"metallicRoughnessTexture":{
					"index":2
				}
			}
		}
	],
	"meshes":[
		{
			"name":"cardboard_box_01",
			"primitives":[
				{
					"attributes":{
						"POSITION":0,
						"NORMAL":1,
						"TEXCOORD_0":2
					},
					"indices":3,
					"material":0
				}
			]
		}
	],
	"textures":[
		{
			"sampler":0,
			"source":0
		},
		{
			"sampler":0,
			"source":1
		},
		{
			"sampler":0,
			"source":2
		}
	],
	"images":[
		{
			"mimeType":"image/jpeg",
			"name":"cardboard_box_01_nor_gl_1k",
			"uri":"textures/cardboard_box_01_nor_gl_1k.jpg"
		},
		{
			"mimeType":"image/jpeg",
			"name":"cardboard_box_01_diff_1k",
			"uri":"textures/cardboard_box_01_diff_1k.jpg"
		},
		{
			"mimeType":"image/jpeg",
			"name":"cardboard_box_01_arm_1k",
			"uri":"textures/cardboard_box_01_arm_1k.jpg"
		}
	],
	"accessors":[
		{
			"bufferView":0,
			"componentType":5126,
			"count":2716,
			"max":[
				0.19452127814292908,
				0.1583968549966812,
				0.2907867133617401
			],
			"min":[
				-0.19255203008651733,
				-0.18307723104953766,
				-0.22508370876312256
			],
			"type":"VEC3"
		},
		{
			"bufferView":1,
			"componentType":5126,
			"count":2716,
			"type":"VEC3"
		},
		{
			"bufferView":2,
			"componentType":5126,
			"count":2716,
			"type":"VEC2"
		},
		{
			"bufferView":3,
			"componentType":5123,
			"count":14997,
			"type":"SCALAR"
		}
	],
	"bufferViews":[
		{
			"buffer":0,
			"byteLength":32592,
			"byteOffset":0,
			"target":34962
		},
		{
			"buffer":0,
			"byteLength":32592,
			"byteOffset":32592,
			"target":34962
		},
		{
			"buffer":0,
			"byteLength":21728,
			"byteOffset":65184,
			"target":34962
		},
		{
			"buffer":0,
			"byteLength":29994,
			"byteOffset":86912,
			"target":34963
		}
	],
	"samplers":[
		{
			"magFilter":9729,
			"minFilter":9987
		}
	],
	"buffers":[
		{
			"byteLength":116908,
			"uri":"cardboard_box_01_1k.bin"
		}
	]
}
