{
	"asset":{
		"generator":"Khronos glTF Blender I/O v5.2.40",
		"version":"2.0"
	},
	"scene":0,
	"scenes":[
		{
			"name":"Scene",
			"nodes":[
				0
			]
		}
	],
	"nodes":[
		{
			"mesh":0,
			"name":"garden_hose_wall_bracket"
		}
	],
	"materials":[
		{
			"doubleSided":true,
			"name":"garden_hose_wall_mounted_01",
			"normalTexture":{
				"index":0
			},
			"pbrMetallicRoughness":{
				"baseColorTexture":{
					"index":1
				},
				"metallicRoughnessTexture":{
					"index":2
				}
			}
		}
	],
	"meshes":[
		{
			"name":"Plane.005",
			"primitives":[
				{
					"attributes":{
						"POSITION":0,
						"NORMAL":1,
						"TEXCOORD_0":2
					},
					"indices":3,
					"material":0
				}
			]
		}
	],
	"textures":[
		{
			"sampler":0,
			"source":0
		},
		{
			"sampler":0,
			"source":1
		},
		{
			"sampler":0,
			"source":2
		}
	],
	"images":[
		{
			"mimeType":"image/jpeg",
			"name":"garden_hose_wall_mounted_01_nor_gl_1k",
			"uri":"textures/garden_hose_wall_mounted_01_nor_gl_1k.jpg"
		},
		{
			"mimeType":"image/jpeg",
			"name":"garden_hose_wall_mounted_01_diff_1k",
			"uri":"textures/garden_hose_wall_mounted_01_diff_1k.jpg"
		},
		{
			"mimeType":"image/jpeg",
			"name":"garden_hose_wall_mounted_01_arm_1k",
			"uri":"textures/garden_hose_wall_mounted_01_arm_1k.jpg"
		}
	],
	"accessors":[
		{
			"bufferView":0,
			"componentType":5126,
			"count":3086,
			"max":[
				0.23323823511600494,
				0.2547236680984497,
				0.24452167749404907
			],
			"min":[
				-0.2349334955215454,
				-0.3011344075202942,
				-0.005788183771073818
			],
			"type":"VEC3"
		},
		{
			"bufferView":1,
			"componentType":5126,
			"count":3086,
			"type":"VEC3"
		},
		{
			"bufferView":2,
			"componentType":5126,
			"count":3086,
			"type":"VEC2"
		},
		{
			"bufferView":3,
			"componentType":5123,
			"count":12000,
			"type":"SCALAR"
		}
	],
	"bufferViews":[
		{
			"buffer":0,
			"byteLength":37032,
			"byteOffset":0,
			"target":34962
		},
		{
			"buffer":0,
			"byteLength":37032,
			"byteOffset":37032,
			"target":34962
		},
		{
			"buffer":0,
			"byteLength":24688,
			"byteOffset":74064,
			"target":34962
		},
		{
			"buffer":0,
			"byteLength":24000,
			"byteOffset":98752,
			"target":34963
		}
	],
	"samplers":[
		{
			"magFilter":9729,
			"minFilter":9987
		}
	],
	"buffers":[
		{
			"byteLength":122752,
			"uri":"garden_hose_wall_mounted_01_1k.bin"
		}
	]
}
