{
	"asset":{
		"generator":"Khronos glTF Blender I/O v5.2.40",
		"version":"2.0"
	},
	"scene":0,
	"scenes":[
		{
			"name":"Scene",
			"nodes":[
				0
			]
		}
	],
	"nodes":[
		{
			"mesh":0,
			"name":"water_manhole_cover_frame"
		}
	],
	"materials":[
		{
			"doubleSided":true,
			"name":"water_manhole_cover",
			"normalTexture":{
				"index":0
			},
			"pbrMetallicRoughness":{
				"baseColorTexture":{
					"index":1
				},
				"metallicRoughnessTexture":{
					"index":2
				}
			}
		}
	],
	"meshes":[
		{
			"name":"Cylinder.008",
			"primitives":[
				{
					"attributes":{
						"POSITION":0,
						"NORMAL":1,
						"TEXCOORD_0":2
					},
					"indices":3,
					"material":0
				}
			]
		}
	],
	"textures":[
		{
			"sampler":0,
			"source":0
		},
		{
			"sampler":0,
			"source":1
		},
		{
			"sampler":0,
			"source":2
		}
	],
	"images":[
		{
			"mimeType":"image/jpeg",
			"name":"water_manhole_cover_nor_gl_1k",
			"uri":"textures/water_manhole_cover_nor_gl_1k.jpg"
		},
		{
			"mimeType":"image/jpeg",
			"name":"water_manhole_cover_diff_1k",
			"uri":"textures/water_manhole_cover_diff_1k.jpg"
		},
		{
			"mimeType":"image/jpeg",
			"name":"water_manhole_cover_arm_1k",
			"uri":"textures/water_manhole_cover_arm_1k.jpg"
		}
	],
	"accessors":[
		{
			"bufferView":0,
			"componentType":5126,
			"count":4990,
			"max":[
				0.3453802466392517,
				0.038856424391269684,
				0.3453802466392517
			],
			"min":[
				-0.3453802466392517,
				-0.028761375695466995,
				-0.3453802466392517
			],
			"type":"VEC3"
		},
		{
			"bufferView":1,
			"componentType":5126,
			"count":4990,
			"type":"VEC3"
		},
		{
			"bufferView":2,
			"componentType":5126,
			"count":4990,
			"type":"VEC2"
		},
		{
			"bufferView":3,
			"componentType":5123,
			"count":17997,
			"type":"SCALAR"
		}
	],
	"bufferViews":[
		{
			"buffer":0,
			"byteLength":59880,
			"byteOffset":0,
			"target":34962
		},
		{
			"buffer":0,
			"byteLength":59880,
			"byteOffset":59880,
			"target":34962
		},
		{
			"buffer":0,
			"byteLength":39920,
			"byteOffset":119760,
			"target":34962
		},
		{
			"buffer":0,
			"byteLength":35994,
			"byteOffset":159680,
			"target":34963
		}
	],
	"samplers":[
		{
			"magFilter":9729,
			"minFilter":9987
		}
	],
	"buffers":[
		{
			"byteLength":195676,
			"uri":"water_manhole_cover_1k.bin"
		}
	]
}
