{
	"asset":{
		"generator":"Khronos glTF Blender I/O v5.2.40",
		"version":"2.0"
	},
	"scene":0,
	"scenes":[
		{
			"name":"Scene",
			"nodes":[
				0
			]
		}
	],
	"nodes":[
		{
			"mesh":0,
			"name":"weed_plant_02_a_LOD0"
		}
	],
	"materials":[
		{
			"alphaMode":"MASK",
			"doubleSided":true,
			"name":"weed_plant_02",
			"normalTexture":{
				"index":0
			},
			"pbrMetallicRoughness":{
				"baseColorTexture":{
					"index":1
				},
				"metallicFactor":0,
				"metallicRoughnessTexture":{
					"index":2
				}
			}
		},
		{
			"alphaMode":"MASK",
			"doubleSided":true,
			"name":"weed_plant_02.001",
			"normalTexture":{
				"index":3
			},
			"pbrMetallicRoughness":{
				"baseColorTexture":{
					"index":4
				},
				"metallicFactor":0,
				"metallicRoughnessTexture":{
					"index":5
				}
			}
		}
	],
	"meshes":[
		{
			"name":"Plane.001",
			"primitives":[
				{
					"attributes":{
						"POSITION":0,
						"NORMAL":1,
						"TEXCOORD_0":2,
						"COLOR_0":3,
						"COLOR_1":4
					},
					"indices":5,
					"material":0
				},
				{
					"attributes":{
						"POSITION":6,
						"NORMAL":7,
						"TEXCOORD_0":8,
						"COLOR_0":9,
						"COLOR_1":10
					},
					"indices":11,
					"material":1
				}
			]
		}
	],
	"textures":[
		{
			"sampler":0,
			"source":0
		},
		{
			"sampler":0,
			"source":1
		},
		{
			"sampler":0,
			"source":2
		},
		{
			"sampler":0,
			"source":0
		},
		{
			"sampler":0,
			"source":1
		},
		{
			"sampler":0,
			"source":2
		}
	],
	"images":[
		{
			"mimeType":"image/jpeg",
			"name":"weed_plant_02_nor_gl_1k",
			"uri":"textures/weed_plant_02_nor_gl_1k.jpg"
		},
		{
			"mimeType":"image/png",
			"name":"weed_plant_02_diff_1k",
			"uri":"textures/weed_plant_02_diff_1k.png"
		},
		{
			"mimeType":"image/jpeg",
			"name":"weed_plant_02_arm_1k",
			"uri":"textures/weed_plant_02_arm_1k.jpg"
		}
	],
	"accessors":[
		{
			"bufferView":0,
			"componentType":5126,
			"count":4591,
			"max":[
				2.0397138595581055,
				0.06651004403829575,
				0.17979192733764648
			],
			"min":[
				-0.08562808483839035,
				-0.00856288243085146,
				-0.1111224815249443
			],
			"type":"VEC3"
		},
		{
			"bufferView":1,
			"componentType":5126,
			"count":4591,
			"type":"VEC3"
		},
		{
			"bufferView":2,
			"componentType":5126,
			"count":4591,
			"type":"VEC2"
		},
		{
			"bufferView":3,
			"componentType":5121,
			"count":4591,
			"normalized":true,
			"type":"VEC4"
		},
		{
			"bufferView":4,
			"componentType":5123,
			"count":4591,
			"normalized":true,
			"type":"VEC4"
		},
		{
			"bufferView":5,
			"componentType":5123,
			"count":15447,
			"type":"SCALAR"
		},
		{
			"bufferView":6,
			"componentType":5126,
			"count":718,
			"max":[
				1.080309271812439,
				0.053356561809778214,
				0.07560515403747559
			],
			"min":[
				0.9379442930221558,
				-0.0015708418795838952,
				-0.06783734261989594
			],
			"type":"VEC3"
		},
		{
			"bufferView":7,
			"componentType":5126,
			"count":718,
			"type":"VEC3"
		},
		{
			"bufferView":8,
			"componentType":5126,
			"count":718,
			"type":"VEC2"
		},
		{
			"bufferView":9,
			"componentType":5121,
			"count":718,
			"normalized":true,
			"type":"VEC4"
		},
		{
			"bufferView":10,
			"componentType":5123,
			"count":718,
			"normalized":true,
			"type":"VEC4"
		},
		{
			"bufferView":11,
			"componentType":5123,
			"count":2553,
			"type":"SCALAR"
		}
	],
	"bufferViews":[
		{
			"buffer":0,
			"byteLength":55092,
			"byteOffset":0,
			"target":34962
		},
		{
			"buffer":0,
			"byteLength":55092,
			"byteOffset":55092,
			"target":34962
		},
		{
			"buffer":0,
			"byteLength":36728,
			"byteOffset":110184,
			"target":34962
		},
		{
			"buffer":0,
			"byteLength":18364,
			"byteOffset":146912,
			"target":34962
		},
		{
			"buffer":0,
			"byteLength":36728,
			"byteOffset":165276,
			"target":34962
		},
		{
			"buffer":0,
			"byteLength":30894,
			"byteOffset":202004,
			"target":34963
		},
		{
			"buffer":0,
			"byteLength":8616,
			"byteOffset":232900,
			"target":34962
		},
		{
			"buffer":0,
			"byteLength":8616,
			"byteOffset":241516,
			"target":34962
		},
		{
			"buffer":0,
			"byteLength":5744,
			"byteOffset":250132,
			"target":34962
		},
		{
			"buffer":0,
			"byteLength":2872,
			"byteOffset":255876,
			"target":34962
		},
		{
			"buffer":0,
			"byteLength":5744,
			"byteOffset":258748,
			"target":34962
		},
		{
			"buffer":0,
			"byteLength":5106,
			"byteOffset":264492,
			"target":34963
		}
	],
	"samplers":[
		{
			"magFilter":9729,
			"minFilter":9987
		}
	],
	"buffers":[
		{
			"byteLength":269600,
			"uri":"weed_plant_02_1k.bin"
		}
	]
}
