{
	"asset":{
		"generator":"Khronos glTF Blender I/O v5.2.40",
		"version":"2.0"
	},
	"scene":0,
	"scenes":[
		{
			"name":"Scene",
			"nodes":[
				0
			]
		}
	],
	"nodes":[
		{
			"mesh":0,
			"name":"fire_hydrant",
			"translation":[
				-0.30000001192092896,
				0,
				0
			]
		}
	],
	"materials":[
		{
			"doubleSided":true,
			"name":"fire_hydrant",
			"normalTexture":{
				"index":0
			},
			"pbrMetallicRoughness":{
				"baseColorTexture":{
					"index":1
				},
				"metallicRoughnessTexture":{
					"index":2
				}
			}
		},
		{
			"doubleSided":true,
			"name":"fire_hydrant_aged",
			"normalTexture":{
				"index":3
			},
			"pbrMetallicRoughness":{
				"baseColorTexture":{
					"index":4
				},
				"metallicRoughnessTexture":{
					"index":5
				}
			}
		}
	],
	"meshes":[
		{
			"name":"Cylinder.001",
			"primitives":[
				{
					"attributes":{
						"POSITION":0,
						"NORMAL":1,
						"TEXCOORD_0":2
					},
					"indices":3,
					"material":0
				},
				{
					"attributes":{
						"POSITION":4,
						"NORMAL":5,
						"TEXCOORD_0":6
					},
					"indices":7,
					"material":1
				}
			]
		}
	],
	"textures":[
		{
			"sampler":0,
			"source":0
		},
		{
			"sampler":0,
			"source":1
		},
		{
			"sampler":0,
			"source":2
		},
		{
			"sampler":0,
			"source":3
		},
		{
			"sampler":0,
			"source":4
		},
		{
			"sampler":0,
			"source":5
		}
	],
	"images":[
		{
			"mimeType":"image/jpeg",
			"name":"fire_hydrant_nor_gl_1k",
			"uri":"textures/fire_hydrant_nor_gl_1k.jpg"
		},
		{
			"mimeType":"image/jpeg",
			"name":"fire_hydrant_diff_1k",
			"uri":"textures/fire_hydrant_diff_1k.jpg"
		},
		{
			"mimeType":"image/jpeg",
			"name":"fire_hydrant_arm_1k",
			"uri":"textures/fire_hydrant_arm_1k.jpg"
		},
		{
			"mimeType":"image/jpeg",
			"name":"fire_hydrant_aged_nor_gl_1k",
			"uri":"textures/fire_hydrant_aged_nor_gl_1k.jpg"
		},
		{
			"mimeType":"image/jpeg",
			"name":"fire_hydrant_aged_diff_1k",
			"uri":"textures/fire_hydrant_aged_diff_1k.jpg"
		},
		{
			"mimeType":"image/jpeg",
			"name":"fire_hydrant_aged_arm_1k",
			"uri":"textures/fire_hydrant_aged_arm_1k.jpg"
		}
	],
	"accessors":[
		{
			"bufferView":0,
			"componentType":5126,
			"count":1817,
			"max":[
				0.1328698694705963,
				0.800134003162384,
				0.19132713973522186
			],
			"min":[
				-0.14036773145198822,
				-0.00022839647135697305,
				-0.12596197426319122
			],
			"type":"VEC3"
		},
		{
			"bufferView":1,
			"componentType":5126,
			"count":1817,
			"type":"VEC3"
		},
		{
			"bufferView":2,
			"componentType":5126,
			"count":1817,
			"type":"VEC2"
		},
		{
			"bufferView":3,
			"componentType":5123,
			"count":4500,
			"type":"SCALAR"
		},
		{
			"bufferView":4,
			"componentType":5126,
			"count":1821,
			"max":[
				0.7328698635101318,
				0.800134003162384,
				0.19132713973522186
			],
			"min":[
				0.4596323072910309,
				-0.00022839647135697305,
				-0.12596197426319122
			],
			"type":"VEC3"
		},
		{
			"bufferView":5,
			"componentType":5126,
			"count":1821,
			"type":"VEC3"
		},
		{
			"bufferView":6,
			"componentType":5126,
			"count":1821,
			"type":"VEC2"
		},
		{
			"bufferView":7,
			"componentType":5123,
			"count":4500,
			"type":"SCALAR"
		}
	],
	"bufferViews":[
		{
			"buffer":0,
			"byteLength":21804,
			"byteOffset":0,
			"target":34962
		},
		{
			"buffer":0,
			"byteLength":21804,
			"byteOffset":21804,
			"target":34962
		},
		{
			"buffer":0,
			"byteLength":14536,
			"byteOffset":43608,
			"target":34962
		},
		{
			"buffer":0,
			"byteLength":9000,
			"byteOffset":58144,
			"target":34963
		},
		{
			"buffer":0,
			"byteLength":21852,
			"byteOffset":67144,
			"target":34962
		},
		{
			"buffer":0,
			"byteLength":21852,
			"byteOffset":88996,
			"target":34962
		},
		{
			"buffer":0,
			"byteLength":14568,
			"byteOffset":110848,
			"target":34962
		},
		{
			"buffer":0,
			"byteLength":9000,
			"byteOffset":125416,
			"target":34963
		}
	],
	"samplers":[
		{
			"magFilter":9729,
			"minFilter":9987
		}
	],
	"buffers":[
		{
			"byteLength":134416,
			"uri":"fire_hydrant_1k.bin"
		}
	]
}
