{
	"asset":{
		"generator":"Khronos glTF Blender I/O v5.2.40",
		"version":"2.0"
	},
	"extensionsUsed":[
		"KHR_materials_specular"
	],
	"scene":0,
	"scenes":[
		{
			"name":"Scene",
			"nodes":[
				0,
				1,
				2,
				3,
				4,
				5
			]
		}
	],
	"nodes":[
		{
			"mesh":0,
			"name":"SM_street_curb_granite-col",
			"rotation":[
				-0.020000148564577103,
				-8.352780423592776e-05,
				0.004175487440079451,
				0.9997912645339966
			],
			"translation":[
				-259.4775695800781,
				4.380640983581543,
				250.72621154785156
			]
		},
		{
			"mesh":1,
			"name":"SM_street_metal_rust_dark",
			"rotation":[
				-0.020000148564577103,
				-8.352780423592776e-05,
				0.004175487440079451,
				0.9997912645339966
			],
			"translation":[
				-259.4775695800781,
				4.380640983581543,
				250.72621154785156
			]
		},
		{
			"mesh":2,
			"name":"SM_street_sign_plate"
		},
		{
			"mesh":3,
			"name":"SM_street_wall_render_raw-col",
			"rotation":[
				-0.020000148564577103,
				-8.352780423592776e-05,
				0.004175487440079451,
				0.9997912645339966
			],
			"translation":[
				-259.4775695800781,
				4.380640983581543,
				250.72621154785156
			]
		},
		{
			"mesh":4,
			"name":"SM_street_wood_aged",
			"rotation":[
				0,
				0.34662535786628723,
				0,
				0.938003659248352
			],
			"translation":[
				-92.74761962890625,
				12.97990894317627,
				-94.09449005126953
			]
		},
		{
			"mesh":5,
			"name":"SM_street_wood_dark"
		}
	],
	"materials":[
		{
			"doubleSided":true,
			"extensions":{
				"KHR_materials_specular":{
					"specularFactor":0.699999988079071
				}
			},
			"name":"MI_curb_granite",
			"normalTexture":{
				"index":0,
				"texCoord":-1
			},
			"pbrMetallicRoughness":{
				"baseColorTexture":{
					"index":1,
					"texCoord":-1
				},
				"metallicRoughnessTexture":{
					"index":2,
					"texCoord":-1
				}
			}
		},
		{
			"doubleSided":true,
			"extensions":{
				"KHR_materials_specular":{
					"specularFactor":0.699999988079071
				}
			},
			"name":"MI_metal_rust_dark",
			"pbrMetallicRoughness":{
				"baseColorFactor":[
					0.10702310502529144,
					0.04817182570695877,
					0.02955683507025242,
					1
				],
				"metallicFactor":0.44999998807907104,
				"roughnessFactor":0.6800000071525574
			}
		},
		{
			"doubleSided":true,
			"extensions":{
				"KHR_materials_specular":{
					"specularFactor":0.699999988079071
				}
			},
			"name":"MI_sign_plate",
			"pbrMetallicRoughness":{
				"baseColorTexture":{
					"index":3
				},
				"metallicRoughnessTexture":{
					"index":4
				}
			}
		},
		{
			"doubleSided":true,
			"extensions":{
				"KHR_materials_specular":{
					"specularFactor":0.699999988079071
				}
			},
			"name":"MI_wall_render_raw",
			"normalTexture":{
				"index":5,
				"texCoord":-1
			},
			"pbrMetallicRoughness":{
				"baseColorTexture":{
					"index":6,
					"texCoord":-1
				},
				"metallicRoughnessTexture":{
					"index":7,
					"texCoord":-1
				}
			}
		},
		{
			"doubleSided":true,
			"extensions":{
				"KHR_materials_specular":{
					"specularFactor":0.699999988079071
				}
			},
			"name":"MI_wood_aged",
			"normalTexture":{
				"index":8,
				"texCoord":-1
			},
			"pbrMetallicRoughness":{
				"baseColorTexture":{
					"index":9,
					"texCoord":-1
				},
				"metallicRoughnessTexture":{
					"index":10,
					"texCoord":-1
				}
			}
		},
		{
			"doubleSided":true,
			"extensions":{
				"KHR_materials_specular":{
					"specularFactor":0.699999988079071
				}
			},
			"name":"MI_wood_dark",
			"pbrMetallicRoughness":{
				"baseColorFactor":[
					0.09305896610021591,
					0.061246052384376526,
					0.0423114113509655,
					1
				],
				"metallicFactor":0,
				"roughnessFactor":0.8999999761581421
			}
		}
	],
	"meshes":[
		{
			"name":"SM_pole_000",
			"primitives":[
				{
					"attributes":{
						"POSITION":0,
						"NORMAL":1
					},
					"indices":2,
					"material":0
				}
			]
		},
		{
			"name":"SM_pole_arm_000",
			"primitives":[
				{
					"attributes":{
						"POSITION":3,
						"NORMAL":4
					},
					"indices":5,
					"material":1
				}
			]
		},
		{
			"name":"SM_sign_av_padre_gabriel_00",
			"primitives":[
				{
					"attributes":{
						"POSITION":6,
						"NORMAL":7,
						"TEXCOORD_0":8
					},
					"indices":9,
					"material":2
				}
			]
		},
		{
			"name":"SM_pole_collar_000",
			"primitives":[
				{
					"attributes":{
						"POSITION":10,
						"NORMAL":11
					},
					"indices":12,
					"material":3
				}
			]
		},
		{
			"name":"SM_debris_crate_003",
			"primitives":[
				{
					"attributes":{
						"POSITION":13,
						"NORMAL":14
					},
					"indices":15,
					"material":4
				}
			]
		},
		{
			"name":"SM_pole_guy_000",
			"primitives":[
				{
					"attributes":{
						"POSITION":16,
						"NORMAL":17
					},
					"indices":18,
					"material":5
				}
			]
		}
	],
	"textures":[
		{
			"sampler":0,
			"source":0
		},
		{
			"sampler":0,
			"source":1
		},
		{
			"sampler":0,
			"source":2
		},
		{
			"sampler":0,
			"source":3
		},
		{
			"sampler":0,
			"source":4
		},
		{
			"sampler":0,
			"source":5
		},
		{
			"sampler":0,
			"source":6
		},
		{
			"sampler":0,
			"source":7
		},
		{
			"sampler":0,
			"source":8
		},
		{
			"sampler":0,
			"source":9
		},
		{
			"sampler":0,
			"source":10
		}
	],
	"images":[
		{
			"mimeType":"image/png",
			"name":"T_curb_nrm.png",
			"uri":"textures/T_curb_nrm.png"
		},
		{
			"mimeType":"image/png",
			"name":"T_curb_alb.png",
			"uri":"textures/T_curb_alb.png"
		},
		{
			"mimeType":"image/png",
			"name":"T_curb_orm.png",
			"uri":"textures/T_curb_orm.png"
		},
		{
			"mimeType":"image/png",
			"name":"T_signs_alb.png",
			"uri":"textures/T_signs_alb.png"
		},
		{
			"mimeType":"image/png",
			"name":"T_signs_orm.png",
			"uri":"textures/T_signs_orm.png"
		},
		{
			"mimeType":"image/png",
			"name":"T_plaster_raw_nrm.png",
			"uri":"textures/T_plaster_raw_nrm.png"
		},
		{
			"mimeType":"image/png",
			"name":"T_plaster_raw_alb.png",
			"uri":"textures/T_plaster_raw_alb.png"
		},
		{
			"mimeType":"image/png",
			"name":"T_plaster_raw_orm.png",
			"uri":"textures/T_plaster_raw_orm.png"
		},
		{
			"mimeType":"image/png",
			"name":"T_wood_nrm.png",
			"uri":"textures/T_wood_nrm.png"
		},
		{
			"mimeType":"image/png",
			"name":"T_wood_alb.png",
			"uri":"textures/T_wood_alb.png"
		},
		{
			"mimeType":"image/png",
			"name":"T_wood_orm.png",
			"uri":"textures/T_wood_orm.png"
		}
	],
	"accessors":[
		{
			"bufferView":0,
			"componentType":5126,
			"count":14208,
			"max":[
				504.8842468261719,
				33.30857849121094,
				13.36818790435791
			],
			"min":[
				-67.45903015136719,
				-8.482108116149902,
				-402.6304931640625
			],
			"type":"VEC3"
		},
		{
			"bufferView":1,
			"componentType":5126,
			"count":14208,
			"type":"VEC3"
		},
		{
			"bufferView":2,
			"componentType":5123,
			"count":24864,
			"type":"SCALAR"
		},
		{
			"bufferView":3,
			"componentType":5126,
			"count":32760,
			"max":[
				505.4450378417969,
				33.55674362182617,
				13.404485702514648
			],
			"min":[
				-68.37639617919922,
				-4.067266941070557,
				-402.560791015625
			],
			"type":"VEC3"
		},
		{
			"bufferView":4,
			"componentType":5126,
			"count":32760,
			"type":"VEC3"
		},
		{
			"bufferView":5,
			"componentType":5123,
			"count":50376,
			"type":"SCALAR"
		},
		{
			"bufferView":6,
			"componentType":5126,
			"count":52,
			"max":[
				185.9700469970703,
				15.55539321899414,
				254.9969024658203
			],
			"min":[
				-326.4844665527344,
				3.287795305252075,
				-90.97608184814453
			],
			"type":"VEC3"
		},
		{
			"bufferView":7,
			"componentType":5126,
			"count":52,
			"type":"VEC3"
		},
		{
			"bufferView":8,
			"componentType":5126,
			"count":52,
			"type":"VEC2"
		},
		{
			"bufferView":9,
			"componentType":5123,
			"count":78,
			"type":"SCALAR"
		},
		{
			"bufferView":10,
			"componentType":5126,
			"count":14208,
			"max":[
				504.9792175292969,
				25.10283088684082,
				13.052700996398926
			],
			"min":[
				-67.55400848388672,
				-8.483912467956543,
				-402.725341796875
			],
			"type":"VEC3"
		},
		{
			"bufferView":11,
			"componentType":5126,
			"count":14208,
			"type":"VEC3"
		},
		{
			"bufferView":12,
			"componentType":5123,
			"count":24864,
			"type":"SCALAR"
		},
		{
			"bufferView":13,
			"componentType":5126,
			"count":648,
			"max":[
				210.5484161376953,
				0.8366119265556335,
				375.3504333496094
			],
			"min":[
				-215.80638122558594,
				-10.834566116333008,
				-0.203046053647995
			],
			"type":"VEC3"
		},
		{
			"bufferView":14,
			"componentType":5126,
			"count":648,
			"type":"VEC3"
		},
		{
			"bufferView":15,
			"componentType":5123,
			"count":972,
			"type":"SCALAR"
		},
		{
			"bufferView":16,
			"componentType":5126,
			"count":104768,
			"max":[
				249.75450134277344,
				22.831310272216797,
				265.6063537597656
			],
			"min":[
				-326.7754211425781,
				0.5086288452148438,
				-155.51573181152344
			],
			"type":"VEC3"
		},
		{
			"bufferView":17,
			"componentType":5126,
			"count":104768,
			"type":"VEC3"
		},
		{
			"bufferView":18,
			"componentType":5125,
			"count":157440,
			"type":"SCALAR"
		}
	],
	"bufferViews":[
		{
			"buffer":0,
			"byteLength":170496,
			"byteOffset":0,
			"target":34962
		},
		{
			"buffer":0,
			"byteLength":170496,
			"byteOffset":170496,
			"target":34962
		},
		{
			"buffer":0,
			"byteLength":49728,
			"byteOffset":340992,
			"target":34963
		},
		{
			"buffer":0,
			"byteLength":393120,
			"byteOffset":390720,
			"target":34962
		},
		{
			"buffer":0,
			"byteLength":393120,
			"byteOffset":783840,
			"target":34962
		},
		{
			"buffer":0,
			"byteLength":100752,
			"byteOffset":1176960,
			"target":34963
		},
		{
			"buffer":0,
			"byteLength":624,
			"byteOffset":1277712,
			"target":34962
		},
		{
			"buffer":0,
			"byteLength":624,
			"byteOffset":1278336,
			"target":34962
		},
		{
			"buffer":0,
			"byteLength":416,
			"byteOffset":1278960,
			"target":34962
		},
		{
			"buffer":0,
			"byteLength":156,
			"byteOffset":1279376,
			"target":34963
		},
		{
			"buffer":0,
			"byteLength":170496,
			"byteOffset":1279532,
			"target":34962
		},
		{
			"buffer":0,
			"byteLength":170496,
			"byteOffset":1450028,
			"target":34962
		},
		{
			"buffer":0,
			"byteLength":49728,
			"byteOffset":1620524,
			"target":34963
		},
		{
			"buffer":0,
			"byteLength":7776,
			"byteOffset":1670252,
			"target":34962
		},
		{
			"buffer":0,
			"byteLength":7776,
			"byteOffset":1678028,
			"target":34962
		},
		{
			"buffer":0,
			"byteLength":1944,
			"byteOffset":1685804,
			"target":34963
		},
		{
			"buffer":0,
			"byteLength":1257216,
			"byteOffset":1687748,
			"target":34962
		},
		{
			"buffer":0,
			"byteLength":1257216,
			"byteOffset":2944964,
			"target":34962
		},
		{
			"buffer":0,
			"byteLength":629760,
			"byteOffset":4202180,
			"target":34963
		}
	],
	"samplers":[
		{
			"magFilter":9729,
			"minFilter":9987
		}
	],
	"buffers":[
		{
			"byteLength":4831940,
			"uri":"city_props.bin"
		}
	]
}
