{
	"asset":{
		"generator":"Khronos glTF Blender I/O v5.2.40",
		"version":"2.0"
	},
	"extensionsUsed":[
		"KHR_materials_specular"
	],
	"scene":0,
	"scenes":[
		{
			"name":"Scene",
			"nodes":[
				0,
				1,
				2,
				3,
				4,
				5,
				6
			]
		}
	],
	"nodes":[
		{
			"mesh":0,
			"name":"SM_blocks_dirt_road-col"
		},
		{
			"mesh":1,
			"name":"SM_blocks_grass_dry-col"
		},
		{
			"mesh":2,
			"name":"SM_blocks_roof_metal_rust-col",
			"rotation":[
				0,
				-0.9999002814292908,
				0,
				0.014121497049927711
			],
			"translation":[
				-137.4600067138672,
				13.717490196228027,
				-84.8499984741211
			]
		},
		{
			"mesh":3,
			"name":"SM_blocks_wall_brick-col"
		},
		{
			"mesh":4,
			"name":"SM_blocks_wall_render_raw-col"
		},
		{
			"mesh":5,
			"name":"SM_blocks_wall_whitewash-col"
		},
		{
			"mesh":6,
			"name":"SM_blocks_wood_aged-col",
			"rotation":[
				0,
				0.715356707572937,
				0,
				0.6987595558166504
			],
			"translation":[
				-141.3000030517578,
				13.94178295135498,
				-84.69999694824219
			]
		}
	],
	"materials":[
		{
			"doubleSided":true,
			"extensions":{
				"KHR_materials_specular":{
					"specularFactor":0.699999988079071
				}
			},
			"name":"MI_dirt_road",
			"normalTexture":{
				"index":0,
				"texCoord":-1
			},
			"pbrMetallicRoughness":{
				"baseColorTexture":{
					"index":1,
					"texCoord":-1
				},
				"metallicRoughnessTexture":{
					"index":2,
					"texCoord":-1
				}
			}
		},
		{
			"doubleSided":true,
			"extensions":{
				"KHR_materials_specular":{
					"specularFactor":0.699999988079071
				}
			},
			"name":"MI_grass_dry",
			"pbrMetallicRoughness":{
				"baseColorFactor":[
					0.20863686501979828,
					0.1946178376674652,
					0.08437620848417282,
					1
				],
				"metallicFactor":0,
				"roughnessFactor":0.9300000071525574
			}
		},
		{
			"doubleSided":true,
			"extensions":{
				"KHR_materials_specular":{
					"specularFactor":0.699999988079071
				}
			},
			"name":"MI_roof_metal_rust",
			"normalTexture":{
				"index":3,
				"texCoord":-1
			},
			"pbrMetallicRoughness":{
				"baseColorTexture":{
					"index":4,
					"texCoord":-1
				},
				"metallicRoughnessTexture":{
					"index":5,
					"texCoord":-1
				}
			}
		},
		{
			"doubleSided":true,
			"extensions":{
				"KHR_materials_specular":{
					"specularFactor":0.699999988079071
				}
			},
			"name":"MI_wall_brick",
			"normalTexture":{
				"index":6
			},
			"pbrMetallicRoughness":{
				"baseColorTexture":{
					"index":7
				},
				"metallicRoughnessTexture":{
					"index":8
				}
			}
		},
		{
			"doubleSided":true,
			"extensions":{
				"KHR_materials_specular":{
					"specularFactor":0.699999988079071
				}
			},
			"name":"MI_wall_render_raw",
			"normalTexture":{
				"index":9
			},
			"pbrMetallicRoughness":{
				"baseColorTexture":{
					"index":10
				},
				"metallicRoughnessTexture":{
					"index":11
				}
			}
		},
		{
			"doubleSided":true,
			"extensions":{
				"KHR_materials_specular":{
					"specularFactor":0.699999988079071
				}
			},
			"name":"MI_wall_whitewash",
			"normalTexture":{
				"index":12
			},
			"pbrMetallicRoughness":{
				"baseColorTexture":{
					"index":13
				},
				"metallicRoughnessTexture":{
					"index":14
				}
			}
		},
		{
			"doubleSided":true,
			"extensions":{
				"KHR_materials_specular":{
					"specularFactor":0.699999988079071
				}
			},
			"name":"MI_wood_aged",
			"normalTexture":{
				"index":15,
				"texCoord":-1
			},
			"pbrMetallicRoughness":{
				"baseColorTexture":{
					"index":16,
					"texCoord":-1
				},
				"metallicRoughnessTexture":{
					"index":17,
					"texCoord":-1
				}
			}
		}
	],
	"meshes":[
		{
			"name":"SM_lot_q00.001",
			"primitives":[
				{
					"attributes":{
						"POSITION":0,
						"NORMAL":1,
						"TEXCOORD_0":2
					},
					"indices":3,
					"material":0
				}
			]
		},
		{
			"name":"SM_lot_q07.001",
			"primitives":[
				{
					"attributes":{
						"POSITION":4,
						"NORMAL":5
					},
					"indices":6,
					"material":1
				}
			]
		},
		{
			"name":"SM_div_q00_2_4.001",
			"primitives":[
				{
					"attributes":{
						"POSITION":7,
						"NORMAL":8
					},
					"indices":9,
					"material":2
				}
			]
		},
		{
			"name":"SM_div_q00_0_4.001",
			"primitives":[
				{
					"attributes":{
						"POSITION":10,
						"NORMAL":11,
						"TEXCOORD_0":12
					},
					"indices":13,
					"material":3
				}
			]
		},
		{
			"name":"SM_div_q00_0_0.001",
			"primitives":[
				{
					"attributes":{
						"POSITION":14,
						"NORMAL":15,
						"TEXCOORD_0":16
					},
					"indices":17,
					"material":4
				}
			]
		},
		{
			"name":"SM_div_q00_3_1.001",
			"primitives":[
				{
					"attributes":{
						"POSITION":18,
						"NORMAL":19,
						"TEXCOORD_0":20
					},
					"indices":21,
					"material":5
				}
			]
		},
		{
			"name":"SM_div_q00_3_0_p00.001",
			"primitives":[
				{
					"attributes":{
						"POSITION":22,
						"NORMAL":23
					},
					"indices":24,
					"material":6
				}
			]
		}
	],
	"textures":[
		{
			"sampler":0,
			"source":0
		},
		{
			"sampler":0,
			"source":1
		},
		{
			"sampler":0,
			"source":2
		},
		{
			"sampler":0,
			"source":3
		},
		{
			"sampler":0,
			"source":4
		},
		{
			"sampler":0,
			"source":5
		},
		{
			"sampler":0,
			"source":6
		},
		{
			"sampler":0,
			"source":7
		},
		{
			"sampler":0,
			"source":8
		},
		{
			"sampler":0,
			"source":9
		},
		{
			"sampler":0,
			"source":10
		},
		{
			"sampler":0,
			"source":11
		},
		{
			"sampler":0,
			"source":12
		},
		{
			"sampler":0,
			"source":13
		},
		{
			"sampler":0,
			"source":14
		},
		{
			"sampler":0,
			"source":15
		},
		{
			"sampler":0,
			"source":16
		},
		{
			"sampler":0,
			"source":17
		}
	],
	"images":[
		{
			"mimeType":"image/png",
			"name":"T_dirt_nrm.png",
			"uri":"textures/T_dirt_nrm.png"
		},
		{
			"mimeType":"image/png",
			"name":"T_dirt_alb.png",
			"uri":"textures/T_dirt_alb.png"
		},
		{
			"mimeType":"image/png",
			"name":"T_dirt_orm.png",
			"uri":"textures/T_dirt_orm.png"
		},
		{
			"mimeType":"image/png",
			"name":"T_metal_corr_nrm.png",
			"uri":"textures/T_metal_corr_nrm.png"
		},
		{
			"mimeType":"image/png",
			"name":"T_metal_corr_alb.png",
			"uri":"textures/T_metal_corr_alb.png"
		},
		{
			"mimeType":"image/png",
			"name":"T_metal_corr_orm.png",
			"uri":"textures/T_metal_corr_orm.png"
		},
		{
			"mimeType":"image/png",
			"name":"T_brick_nrm.png",
			"uri":"textures/T_brick_nrm.png"
		},
		{
			"mimeType":"image/png",
			"name":"T_brick_alb.png",
			"uri":"textures/T_brick_alb.png"
		},
		{
			"mimeType":"image/png",
			"name":"T_brick_orm.png",
			"uri":"textures/T_brick_orm.png"
		},
		{
			"mimeType":"image/png",
			"name":"T_plaster_raw_nrm.png",
			"uri":"textures/T_plaster_raw_nrm.png"
		},
		{
			"mimeType":"image/png",
			"name":"T_plaster_raw_alb.png",
			"uri":"textures/T_plaster_raw_alb.png"
		},
		{
			"mimeType":"image/png",
			"name":"T_plaster_raw_orm.png",
			"uri":"textures/T_plaster_raw_orm.png"
		},
		{
			"mimeType":"image/png",
			"name":"T_plaster_nrm.png",
			"uri":"textures/T_plaster_nrm.png"
		},
		{
			"mimeType":"image/png",
			"name":"T_plaster_alb.png",
			"uri":"textures/T_plaster_alb.png"
		},
		{
			"mimeType":"image/png",
			"name":"T_plaster_orm.png",
			"uri":"textures/T_plaster_orm.png"
		},
		{
			"mimeType":"image/png",
			"name":"T_wood_nrm.png",
			"uri":"textures/T_wood_nrm.png"
		},
		{
			"mimeType":"image/png",
			"name":"T_wood_alb.png",
			"uri":"textures/T_wood_alb.png"
		},
		{
			"mimeType":"image/png",
			"name":"T_wood_orm.png",
			"uri":"textures/T_wood_orm.png"
		}
	],
	"accessors":[
		{
			"bufferView":0,
			"componentType":5126,
			"count":748,
			"max":[
				235.89999389648438,
				14.2216215133667,
				245.39999389648438
			],
			"min":[
				-153.6999969482422,
				1.1157584190368652,
				-130.5
			],
			"type":"VEC3"
		},
		{
			"bufferView":1,
			"componentType":5126,
			"count":748,
			"type":"VEC3"
		},
		{
			"bufferView":2,
			"componentType":5126,
			"count":748,
			"type":"VEC2"
		},
		{
			"bufferView":3,
			"componentType":5123,
			"count":1122,
			"type":"SCALAR"
		},
		{
			"bufferView":4,
			"componentType":5126,
			"count":1020,
			"max":[
				232.1999969482422,
				15.260047912597656,
				192.89999389648438
			],
			"min":[
				-144.3000030517578,
				2.8548662662506104,
				-76.4000015258789
			],
			"type":"VEC3"
		},
		{
			"bufferView":5,
			"componentType":5126,
			"count":1020,
			"type":"VEC3"
		},
		{
			"bufferView":6,
			"componentType":5123,
			"count":1530,
			"type":"SCALAR"
		},
		{
			"bufferView":7,
			"componentType":5126,
			"count":1968,
			"max":[
				20.20331382751465,
				1.9645988941192627,
				35.36722183227539
			],
			"min":[
				-373.6644287109375,
				-11.3361234664917,
				-332.1833801269531
			],
			"type":"VEC3"
		},
		{
			"bufferView":8,
			"componentType":5126,
			"count":1968,
			"type":"VEC3"
		},
		{
			"bufferView":9,
			"componentType":5123,
			"count":2952,
			"type":"SCALAR"
		},
		{
			"bufferView":10,
			"componentType":5126,
			"count":27174,
			"max":[
				231.8855438232422,
				16.424846649169922,
				242.03318786621094
			],
			"min":[
				-153.59991455078125,
				1.1337339878082275,
				-129.9333038330078
			],
			"type":"VEC3"
		},
		{
			"bufferView":11,
			"componentType":5126,
			"count":27174,
			"type":"VEC3"
		},
		{
			"bufferView":12,
			"componentType":5126,
			"count":27174,
			"type":"VEC2"
		},
		{
			"bufferView":13,
			"componentType":5123,
			"count":56322,
			"type":"SCALAR"
		},
		{
			"bufferView":14,
			"componentType":5126,
			"count":23554,
			"max":[
				235.99984741210938,
				16.470563888549805,
				245.1199951171875
			],
			"min":[
				-153.39996337890625,
				1.6557170152664185,
				-130.5999755859375
			],
			"type":"VEC3"
		},
		{
			"bufferView":15,
			"componentType":5126,
			"count":23554,
			"type":"VEC3"
		},
		{
			"bufferView":16,
			"componentType":5126,
			"count":23554,
			"type":"VEC2"
		},
		{
			"bufferView":17,
			"componentType":5123,
			"count":46998,
			"type":"SCALAR"
		},
		{
			"bufferView":18,
			"componentType":5126,
			"count":31058,
			"max":[
				233.4284210205078,
				16.467533111572266,
				245.4999237060547
			],
			"min":[
				-153.7999725341797,
				1.751107931137085,
				-130.4333038330078
			],
			"type":"VEC3"
		},
		{
			"bufferView":19,
			"componentType":5126,
			"count":31058,
			"type":"VEC3"
		},
		{
			"bufferView":20,
			"componentType":5126,
			"count":31058,
			"type":"VEC2"
		},
		{
			"bufferView":21,
			"componentType":5123,
			"count":64170,
			"type":"SCALAR"
		},
		{
			"bufferView":22,
			"componentType":5126,
			"count":21000,
			"max":[
				37.0125617980957,
				1.9006425142288208,
				377.0095520019531
			],
			"min":[
				-332.0511169433594,
				-12.42238998413086,
				-17.43650245666504
			],
			"type":"VEC3"
		},
		{
			"bufferView":23,
			"componentType":5126,
			"count":21000,
			"type":"VEC3"
		},
		{
			"bufferView":24,
			"componentType":5123,
			"count":31500,
			"type":"SCALAR"
		}
	],
	"bufferViews":[
		{
			"buffer":0,
			"byteLength":8976,
			"byteOffset":0,
			"target":34962
		},
		{
			"buffer":0,
			"byteLength":8976,
			"byteOffset":8976,
			"target":34962
		},
		{
			"buffer":0,
			"byteLength":5984,
			"byteOffset":17952,
			"target":34962
		},
		{
			"buffer":0,
			"byteLength":2244,
			"byteOffset":23936,
			"target":34963
		},
		{
			"buffer":0,
			"byteLength":12240,
			"byteOffset":26180,
			"target":34962
		},
		{
			"buffer":0,
			"byteLength":12240,
			"byteOffset":38420,
			"target":34962
		},
		{
			"buffer":0,
			"byteLength":3060,
			"byteOffset":50660,
			"target":34963
		},
		{
			"buffer":0,
			"byteLength":23616,
			"byteOffset":53720,
			"target":34962
		},
		{
			"buffer":0,
			"byteLength":23616,
			"byteOffset":77336,
			"target":34962
		},
		{
			"buffer":0,
			"byteLength":5904,
			"byteOffset":100952,
			"target":34963
		},
		{
			"buffer":0,
			"byteLength":326088,
			"byteOffset":106856,
			"target":34962
		},
		{
			"buffer":0,
			"byteLength":326088,
			"byteOffset":432944,
			"target":34962
		},
		{
			"buffer":0,
			"byteLength":217392,
			"byteOffset":759032,
			"target":34962
		},
		{
			"buffer":0,
			"byteLength":112644,
			"byteOffset":976424,
			"target":34963
		},
		{
			"buffer":0,
			"byteLength":282648,
			"byteOffset":1089068,
			"target":34962
		},
		{
			"buffer":0,
			"byteLength":282648,
			"byteOffset":1371716,
			"target":34962
		},
		{
			"buffer":0,
			"byteLength":188432,
			"byteOffset":1654364,
			"target":34962
		},
		{
			"buffer":0,
			"byteLength":93996,
			"byteOffset":1842796,
			"target":34963
		},
		{
			"buffer":0,
			"byteLength":372696,
			"byteOffset":1936792,
			"target":34962
		},
		{
			"buffer":0,
			"byteLength":372696,
			"byteOffset":2309488,
			"target":34962
		},
		{
			"buffer":0,
			"byteLength":248464,
			"byteOffset":2682184,
			"target":34962
		},
		{
			"buffer":0,
			"byteLength":128340,
			"byteOffset":2930648,
			"target":34963
		},
		{
			"buffer":0,
			"byteLength":252000,
			"byteOffset":3058988,
			"target":34962
		},
		{
			"buffer":0,
			"byteLength":252000,
			"byteOffset":3310988,
			"target":34962
		},
		{
			"buffer":0,
			"byteLength":63000,
			"byteOffset":3562988,
			"target":34963
		}
	],
	"samplers":[
		{
			"magFilter":9729,
			"minFilter":9987
		}
	],
	"buffers":[
		{
			"byteLength":3625988,
			"uri":"city_walls.bin"
		}
	]
}
