{
	"asset":{
		"generator":"Khronos glTF Blender I/O v5.2.40",
		"version":"2.0"
	},
	"extensionsUsed":[
		"KHR_materials_specular"
	],
	"scene":0,
	"scenes":[
		{
			"name":"Scene",
			"nodes":[
				0,
				1,
				2,
				3,
				4,
				5,
				6,
				7,
				8,
				9
			]
		}
	],
	"nodes":[
		{
			"mesh":0,
			"name":"SM_landma_cypress_dark-col",
			"translation":[
				-242.40704345703125,
				10.638422966003418,
				47.07380294799805
			]
		},
		{
			"mesh":1,
			"name":"SM_landma_dirt_road-col",
			"translation":[
				-233,
				13.00009536743164,
				-1
			]
		},
		{
			"mesh":2,
			"name":"SM_landma_gutter_grime-col",
			"translation":[
				-165,
				5.86667537689209,
				220
			]
		},
		{
			"mesh":3,
			"name":"SM_landma_metal_rust_dark-col",
			"rotation":[
				0,
				0.5469318628311157,
				0,
				0.8371771574020386
			],
			"translation":[
				-165,
				6.86667537689209,
				220
			]
		},
		{
			"mesh":4,
			"name":"SM_landma_roof_metal_zinc-col",
			"translation":[
				-178,
				6.43063497543335,
				209
			]
		},
		{
			"mesh":5,
			"name":"SM_landma_roof_slate_blue-col",
			"translation":[
				-258,
				21.05807876586914,
				-19
			]
		},
		{
			"mesh":6,
			"name":"SM_landma_sidewalk_concrete-col",
			"translation":[
				-150,
				2.13144588470459,
				230
			]
		},
		{
			"mesh":7,
			"name":"SM_landma_wall_render_raw-col",
			"translation":[
				-178,
				3.4306347370147705,
				209
			]
		},
		{
			"mesh":8,
			"name":"SM_landma_wall_stone_cemetery-col",
			"translation":[
				-233,
				10.466785430908203,
				52
			]
		},
		{
			"mesh":9,
			"name":"SM_landma_wood_aged-col",
			"translation":[
				-156,
				2.911597728729248,
				248
			]
		}
	],
	"materials":[
		{
			"doubleSided":true,
			"extensions":{
				"KHR_materials_specular":{
					"specularFactor":0.699999988079071
				}
			},
			"name":"MI_cypress_dark",
			"pbrMetallicRoughness":{
				"baseColorFactor":[
					0.027320891618728638,
					0.0423114113509655,
					0.024157632142305374,
					1
				],
				"metallicFactor":0,
				"roughnessFactor":0.9100000262260437
			}
		},
		{
			"doubleSided":true,
			"extensions":{
				"KHR_materials_specular":{
					"specularFactor":0.699999988079071
				}
			},
			"name":"MI_dirt_road",
			"normalTexture":{
				"index":0,
				"texCoord":-1
			},
			"pbrMetallicRoughness":{
				"baseColorTexture":{
					"index":1,
					"texCoord":-1
				},
				"metallicRoughnessTexture":{
					"index":2,
					"texCoord":-1
				}
			}
		},
		{
			"doubleSided":true,
			"extensions":{
				"KHR_materials_specular":{
					"specularFactor":0.699999988079071
				}
			},
			"name":"MI_gutter_grime",
			"pbrMetallicRoughness":{
				"baseColorFactor":[
					0.07618538290262222,
					0.061246052384376526,
					0.0423114113509655,
					1
				],
				"metallicFactor":0,
				"roughnessFactor":0.9399999976158142
			}
		},
		{
			"doubleSided":true,
			"extensions":{
				"KHR_materials_specular":{
					"specularFactor":0.699999988079071
				}
			},
			"name":"MI_metal_rust_dark",
			"pbrMetallicRoughness":{
				"baseColorFactor":[
					0.10702310502529144,
					0.04817182570695877,
					0.02955683507025242,
					1
				],
				"metallicFactor":0.44999998807907104,
				"roughnessFactor":0.6800000071525574
			}
		},
		{
			"doubleSided":true,
			"extensions":{
				"KHR_materials_specular":{
					"specularFactor":0.699999988079071
				}
			},
			"name":"MI_roof_metal_zinc",
			"normalTexture":{
				"index":3,
				"texCoord":-1
			},
			"pbrMetallicRoughness":{
				"baseColorTexture":{
					"index":4,
					"texCoord":-1
				},
				"metallicRoughnessTexture":{
					"index":5,
					"texCoord":-1
				}
			}
		},
		{
			"doubleSided":true,
			"extensions":{
				"KHR_materials_specular":{
					"specularFactor":0.699999988079071
				}
			},
			"name":"MI_roof_slate_blue",
			"normalTexture":{
				"index":6,
				"texCoord":-1
			},
			"pbrMetallicRoughness":{
				"baseColorTexture":{
					"index":7,
					"texCoord":-1
				},
				"metallicRoughnessTexture":{
					"index":8,
					"texCoord":-1
				}
			}
		},
		{
			"doubleSided":true,
			"extensions":{
				"KHR_materials_specular":{
					"specularFactor":0.699999988079071
				}
			},
			"name":"MI_sidewalk_concrete",
			"normalTexture":{
				"index":9,
				"texCoord":-1
			},
			"pbrMetallicRoughness":{
				"baseColorTexture":{
					"index":10,
					"texCoord":-1
				},
				"metallicRoughnessTexture":{
					"index":11,
					"texCoord":-1
				}
			}
		},
		{
			"doubleSided":true,
			"extensions":{
				"KHR_materials_specular":{
					"specularFactor":0.699999988079071
				}
			},
			"name":"MI_wall_render_raw",
			"normalTexture":{
				"index":12,
				"texCoord":-1
			},
			"pbrMetallicRoughness":{
				"baseColorTexture":{
					"index":13,
					"texCoord":-1
				},
				"metallicRoughnessTexture":{
					"index":14,
					"texCoord":-1
				}
			}
		},
		{
			"doubleSided":true,
			"extensions":{
				"KHR_materials_specular":{
					"specularFactor":0.699999988079071
				}
			},
			"name":"MI_wall_stone_cemetery",
			"normalTexture":{
				"index":15,
				"texCoord":-1
			},
			"pbrMetallicRoughness":{
				"baseColorTexture":{
					"index":16,
					"texCoord":-1
				},
				"metallicRoughnessTexture":{
					"index":17,
					"texCoord":-1
				}
			}
		},
		{
			"doubleSided":true,
			"extensions":{
				"KHR_materials_specular":{
					"specularFactor":0.699999988079071
				}
			},
			"name":"MI_wood_aged",
			"normalTexture":{
				"index":18,
				"texCoord":-1
			},
			"pbrMetallicRoughness":{
				"baseColorTexture":{
					"index":19,
					"texCoord":-1
				},
				"metallicRoughnessTexture":{
					"index":20,
					"texCoord":-1
				}
			}
		}
	],
	"meshes":[
		{
			"name":"SM_cem_cipreste00.001",
			"primitives":[
				{
					"attributes":{
						"POSITION":0,
						"NORMAL":1
					},
					"indices":2,
					"material":0
				}
			]
		},
		{
			"name":"SM_cem_chao.001",
			"primitives":[
				{
					"attributes":{
						"POSITION":3,
						"NORMAL":4
					},
					"indices":5,
					"material":1
				}
			]
		},
		{
			"name":"SM_ete_agua0.001",
			"primitives":[
				{
					"attributes":{
						"POSITION":6,
						"NORMAL":7
					},
					"indices":8,
					"material":2
				}
			]
		},
		{
			"name":"SM_ete_ponte.001",
			"primitives":[
				{
					"attributes":{
						"POSITION":9,
						"NORMAL":10
					},
					"indices":11,
					"material":3
				}
			]
		},
		{
			"name":"SM_ete_casa_teto.001",
			"primitives":[
				{
					"attributes":{
						"POSITION":12,
						"NORMAL":13
					},
					"indices":5,
					"material":4
				}
			]
		},
		{
			"name":"SM_cem_capela_teto.001",
			"primitives":[
				{
					"attributes":{
						"POSITION":14,
						"NORMAL":15
					},
					"indices":16,
					"material":5
				}
			]
		},
		{
			"name":"SM_ete_piso.001",
			"primitives":[
				{
					"attributes":{
						"POSITION":17,
						"NORMAL":18
					},
					"indices":19,
					"material":6
				}
			]
		},
		{
			"name":"SM_ete_casa.001",
			"primitives":[
				{
					"attributes":{
						"POSITION":20,
						"NORMAL":21
					},
					"indices":5,
					"material":7
				}
			]
		},
		{
			"name":"SM_cem_muro0.001",
			"primitives":[
				{
					"attributes":{
						"POSITION":22,
						"NORMAL":23
					},
					"indices":24,
					"material":8
				}
			]
		},
		{
			"name":"SM_ete_deck.001",
			"primitives":[
				{
					"attributes":{
						"POSITION":25,
						"NORMAL":26
					},
					"indices":5,
					"material":9
				}
			]
		}
	],
	"textures":[
		{
			"sampler":0,
			"source":0
		},
		{
			"sampler":0,
			"source":1
		},
		{
			"sampler":0,
			"source":2
		},
		{
			"sampler":0,
			"source":3
		},
		{
			"sampler":0,
			"source":4
		},
		{
			"sampler":0,
			"source":5
		},
		{
			"sampler":0,
			"source":6
		},
		{
			"sampler":0,
			"source":7
		},
		{
			"sampler":0,
			"source":8
		},
		{
			"sampler":0,
			"source":9
		},
		{
			"sampler":0,
			"source":10
		},
		{
			"sampler":0,
			"source":11
		},
		{
			"sampler":0,
			"source":12
		},
		{
			"sampler":0,
			"source":13
		},
		{
			"sampler":0,
			"source":14
		},
		{
			"sampler":0,
			"source":15
		},
		{
			"sampler":0,
			"source":16
		},
		{
			"sampler":0,
			"source":17
		},
		{
			"sampler":0,
			"source":18
		},
		{
			"sampler":0,
			"source":19
		},
		{
			"sampler":0,
			"source":20
		}
	],
	"images":[
		{
			"mimeType":"image/png",
			"name":"T_dirt_nrm.png",
			"uri":"textures/T_dirt_nrm.png"
		},
		{
			"mimeType":"image/png",
			"name":"T_dirt_alb.png",
			"uri":"textures/T_dirt_alb.png"
		},
		{
			"mimeType":"image/png",
			"name":"T_dirt_orm.png",
			"uri":"textures/T_dirt_orm.png"
		},
		{
			"mimeType":"image/png",
			"name":"T_metal_corr_nrm.png",
			"uri":"textures/T_metal_corr_nrm.png"
		},
		{
			"mimeType":"image/png",
			"name":"T_metal_corr_alb.png",
			"uri":"textures/T_metal_corr_alb.png"
		},
		{
			"mimeType":"image/png",
			"name":"T_metal_corr_orm.png",
			"uri":"textures/T_metal_corr_orm.png"
		},
		{
			"mimeType":"image/png",
			"name":"T_slate_nrm.png",
			"uri":"textures/T_slate_nrm.png"
		},
		{
			"mimeType":"image/png",
			"name":"T_slate_alb.png",
			"uri":"textures/T_slate_alb.png"
		},
		{
			"mimeType":"image/png",
			"name":"T_slate_orm.png",
			"uri":"textures/T_slate_orm.png"
		},
		{
			"mimeType":"image/png",
			"name":"T_sidewalk_nrm.png",
			"uri":"textures/T_sidewalk_nrm.png"
		},
		{
			"mimeType":"image/png",
			"name":"T_sidewalk_alb.png",
			"uri":"textures/T_sidewalk_alb.png"
		},
		{
			"mimeType":"image/png",
			"name":"T_sidewalk_orm.png",
			"uri":"textures/T_sidewalk_orm.png"
		},
		{
			"mimeType":"image/png",
			"name":"T_plaster_raw_nrm.png",
			"uri":"textures/T_plaster_raw_nrm.png"
		},
		{
			"mimeType":"image/png",
			"name":"T_plaster_raw_alb.png",
			"uri":"textures/T_plaster_raw_alb.png"
		},
		{
			"mimeType":"image/png",
			"name":"T_plaster_raw_orm.png",
			"uri":"textures/T_plaster_raw_orm.png"
		},
		{
			"mimeType":"image/png",
			"name":"T_stone_cemetery_nrm.png",
			"uri":"textures/T_stone_cemetery_nrm.png"
		},
		{
			"mimeType":"image/png",
			"name":"T_stone_cemetery_alb.png",
			"uri":"textures/T_stone_cemetery_alb.png"
		},
		{
			"mimeType":"image/png",
			"name":"T_stone_cemetery_orm.png",
			"uri":"textures/T_stone_cemetery_orm.png"
		},
		{
			"mimeType":"image/png",
			"name":"T_wood_nrm.png",
			"uri":"textures/T_wood_nrm.png"
		},
		{
			"mimeType":"image/png",
			"name":"T_wood_alb.png",
			"uri":"textures/T_wood_alb.png"
		},
		{
			"mimeType":"image/png",
			"name":"T_wood_orm.png",
			"uri":"textures/T_wood_orm.png"
		}
	],
	"accessors":[
		{
			"bufferView":0,
			"componentType":5126,
			"count":180,
			"max":[
				67.27510070800781,
				10.600133895874023,
				1.299038052558899
			],
			"min":[
				-25.50054931640625,
				0,
				-49.919944763183594
			],
			"type":"VEC3"
		},
		{
			"bufferView":1,
			"componentType":5126,
			"count":180,
			"type":"VEC3"
		},
		{
			"bufferView":2,
			"componentType":5123,
			"count":300,
			"type":"SCALAR"
		},
		{
			"bufferView":3,
			"componentType":5126,
			"count":24,
			"max":[
				66.6500015258789,
				0.10000000149011612,
				52.650001525878906
			],
			"min":[
				-66.6500015258789,
				0,
				-52.650001525878906
			],
			"type":"VEC3"
		},
		{
			"bufferView":4,
			"componentType":5126,
			"count":24,
			"type":"VEC3"
		},
		{
			"bufferView":5,
			"componentType":5123,
			"count":36,
			"type":"SCALAR"
		},
		{
			"bufferView":6,
			"componentType":5126,
			"count":112,
			"max":[
				37.650001525878906,
				0,
				21.649999618530273
			],
			"min":[
				-8.149999618530273,
				-2.4391555786132812,
				-8.149999618530273
			],
			"type":"VEC3"
		},
		{
			"bufferView":7,
			"componentType":5126,
			"count":112,
			"type":"VEC3"
		},
		{
			"bufferView":8,
			"componentType":5123,
			"count":252,
			"type":"SCALAR"
		},
		{
			"bufferView":9,
			"componentType":5126,
			"count":2808,
			"max":[
				37.03779983520508,
				1.8999996185302734,
				62.03531265258789
			],
			"min":[
				-47.471702575683594,
				-5.477700710296631,
				-26.52794075012207
			],
			"type":"VEC3"
		},
		{
			"bufferView":10,
			"componentType":5126,
			"count":2808,
			"type":"VEC3"
		},
		{
			"bufferView":11,
			"componentType":5123,
			"count":4284,
			"type":"SCALAR"
		},
		{
			"bufferView":12,
			"componentType":5126,
			"count":24,
			"max":[
				4.199999809265137,
				0.18000000715255737,
				3.200000047683716
			],
			"min":[
				-4.199999809265137,
				0,
				-3.200000047683716
			],
			"type":"VEC3"
		},
		{
			"bufferView":13,
			"componentType":5126,
			"count":24,
			"type":"VEC3"
		},
		{
			"bufferView":14,
			"componentType":5126,
			"count":104,
			"max":[
				60.400001525878906,
				7.199999809265137,
				54.400001525878906
			],
			"min":[
				-21.74349594116211,
				-1.5870704650878906,
				-19.289873123168945
			],
			"type":"VEC3"
		},
		{
			"bufferView":15,
			"componentType":5126,
			"count":104,
			"type":"VEC3"
		},
		{
			"bufferView":16,
			"componentType":5123,
			"count":168,
			"type":"SCALAR"
		},
		{
			"bufferView":17,
			"componentType":5126,
			"count":1608,
			"max":[
				36,
				4.635229110717773,
				28
			],
			"min":[
				-36,
				-0.4476335048675537,
				-28
			],
			"type":"VEC3"
		},
		{
			"bufferView":18,
			"componentType":5126,
			"count":1608,
			"type":"VEC3"
		},
		{
			"bufferView":19,
			"componentType":5123,
			"count":3180,
			"type":"SCALAR"
		},
		{
			"bufferView":20,
			"componentType":5126,
			"count":24,
			"max":[
				3.75,
				3,
				2.75
			],
			"min":[
				-3.75,
				0,
				-2.75
			],
			"type":"VEC3"
		},
		{
			"bufferView":21,
			"componentType":5126,
			"count":24,
			"type":"VEC3"
		},
		{
			"bufferView":22,
			"componentType":5126,
			"count":240,
			"max":[
				67.17500305175781,
				15.591293334960938,
				0.17499999701976776
			],
			"min":[
				-67.17500305175781,
				0,
				-106.17500305175781
			],
			"type":"VEC3"
		},
		{
			"bufferView":23,
			"componentType":5126,
			"count":240,
			"type":"VEC3"
		},
		{
			"bufferView":24,
			"componentType":5123,
			"count":360,
			"type":"SCALAR"
		},
		{
			"bufferView":25,
			"componentType":5126,
			"count":24,
			"max":[
				11,
				0.1599999964237213,
				1.100000023841858
			],
			"min":[
				-11,
				0,
				-1.100000023841858
			],
			"type":"VEC3"
		},
		{
			"bufferView":26,
			"componentType":5126,
			"count":24,
			"type":"VEC3"
		}
	],
	"bufferViews":[
		{
			"buffer":0,
			"byteLength":2160,
			"byteOffset":0,
			"target":34962
		},
		{
			"buffer":0,
			"byteLength":2160,
			"byteOffset":2160,
			"target":34962
		},
		{
			"buffer":0,
			"byteLength":600,
			"byteOffset":4320,
			"target":34963
		},
		{
			"buffer":0,
			"byteLength":288,
			"byteOffset":4920,
			"target":34962
		},
		{
			"buffer":0,
			"byteLength":288,
			"byteOffset":5208,
			"target":34962
		},
		{
			"buffer":0,
			"byteLength":72,
			"byteOffset":5496,
			"target":34963
		},
		{
			"buffer":0,
			"byteLength":1344,
			"byteOffset":5568,
			"target":34962
		},
		{
			"buffer":0,
			"byteLength":1344,
			"byteOffset":6912,
			"target":34962
		},
		{
			"buffer":0,
			"byteLength":504,
			"byteOffset":8256,
			"target":34963
		},
		{
			"buffer":0,
			"byteLength":33696,
			"byteOffset":8760,
			"target":34962
		},
		{
			"buffer":0,
			"byteLength":33696,
			"byteOffset":42456,
			"target":34962
		},
		{
			"buffer":0,
			"byteLength":8568,
			"byteOffset":76152,
			"target":34963
		},
		{
			"buffer":0,
			"byteLength":288,
			"byteOffset":84720,
			"target":34962
		},
		{
			"buffer":0,
			"byteLength":288,
			"byteOffset":85008,
			"target":34962
		},
		{
			"buffer":0,
			"byteLength":1248,
			"byteOffset":85296,
			"target":34962
		},
		{
			"buffer":0,
			"byteLength":1248,
			"byteOffset":86544,
			"target":34962
		},
		{
			"buffer":0,
			"byteLength":336,
			"byteOffset":87792,
			"target":34963
		},
		{
			"buffer":0,
			"byteLength":19296,
			"byteOffset":88128,
			"target":34962
		},
		{
			"buffer":0,
			"byteLength":19296,
			"byteOffset":107424,
			"target":34962
		},
		{
			"buffer":0,
			"byteLength":6360,
			"byteOffset":126720,
			"target":34963
		},
		{
			"buffer":0,
			"byteLength":288,
			"byteOffset":133080,
			"target":34962
		},
		{
			"buffer":0,
			"byteLength":288,
			"byteOffset":133368,
			"target":34962
		},
		{
			"buffer":0,
			"byteLength":2880,
			"byteOffset":133656,
			"target":34962
		},
		{
			"buffer":0,
			"byteLength":2880,
			"byteOffset":136536,
			"target":34962
		},
		{
			"buffer":0,
			"byteLength":720,
			"byteOffset":139416,
			"target":34963
		},
		{
			"buffer":0,
			"byteLength":288,
			"byteOffset":140136,
			"target":34962
		},
		{
			"buffer":0,
			"byteLength":288,
			"byteOffset":140424,
			"target":34962
		}
	],
	"samplers":[
		{
			"magFilter":9729,
			"minFilter":9987
		}
	],
	"buffers":[
		{
			"byteLength":140712,
			"uri":"city_landmarks.bin"
		}
	]
}
