{
	"asset":{
		"generator":"Khronos glTF Blender I/O v5.2.40",
		"version":"2.0"
	},
	"extensionsUsed":[
		"KHR_materials_specular"
	],
	"scene":0,
	"scenes":[
		{
			"name":"Scene",
			"nodes":[
				0,
				1,
				2,
				3
			]
		}
	],
	"nodes":[
		{
			"mesh":0,
			"name":"SM_roads_cobble_base"
		},
		{
			"mesh":1,
			"name":"SM_roads_curb_granite"
		},
		{
			"mesh":2,
			"name":"SM_roads_dirt_road"
		},
		{
			"mesh":3,
			"name":"SM_roads_sidewalk_concrete"
		}
	],
	"materials":[
		{
			"doubleSided":true,
			"extensions":{
				"KHR_materials_specular":{
					"specularFactor":0.699999988079071
				}
			},
			"name":"MI_cobble_base",
			"normalTexture":{
				"index":0
			},
			"pbrMetallicRoughness":{
				"baseColorTexture":{
					"index":1
				},
				"metallicRoughnessTexture":{
					"index":2
				}
			}
		},
		{
			"doubleSided":true,
			"extensions":{
				"KHR_materials_specular":{
					"specularFactor":0.699999988079071
				}
			},
			"name":"MI_curb_granite",
			"normalTexture":{
				"index":3
			},
			"pbrMetallicRoughness":{
				"baseColorTexture":{
					"index":4
				},
				"metallicRoughnessTexture":{
					"index":5
				}
			}
		},
		{
			"doubleSided":true,
			"extensions":{
				"KHR_materials_specular":{
					"specularFactor":0.699999988079071
				}
			},
			"name":"MI_dirt_road",
			"normalTexture":{
				"index":6
			},
			"pbrMetallicRoughness":{
				"baseColorTexture":{
					"index":7
				},
				"metallicRoughnessTexture":{
					"index":8
				}
			}
		},
		{
			"doubleSided":true,
			"extensions":{
				"KHR_materials_specular":{
					"specularFactor":0.699999988079071
				}
			},
			"name":"MI_sidewalk_concrete",
			"normalTexture":{
				"index":9
			},
			"pbrMetallicRoughness":{
				"baseColorTexture":{
					"index":10
				},
				"metallicRoughnessTexture":{
					"index":11
				}
			}
		}
	],
	"meshes":[
		{
			"name":"SM_road_av_padre_gabriel_surface.001",
			"primitives":[
				{
					"attributes":{
						"POSITION":0,
						"NORMAL":1,
						"TEXCOORD_0":2,
						"COLOR_0":3
					},
					"indices":4,
					"material":0
				}
			]
		},
		{
			"name":"SM_road_av_padre_gabriel_curbL_00.001",
			"primitives":[
				{
					"attributes":{
						"POSITION":5,
						"NORMAL":6,
						"TEXCOORD_0":7,
						"COLOR_0":8
					},
					"indices":9,
					"material":1
				}
			]
		},
		{
			"name":"SM_road_tv_bica_surface.001",
			"primitives":[
				{
					"attributes":{
						"POSITION":10,
						"NORMAL":11,
						"TEXCOORD_0":12,
						"COLOR_0":13
					},
					"indices":14,
					"material":2
				}
			]
		},
		{
			"name":"SM_road_av_padre_gabriel_walkL_00.001",
			"primitives":[
				{
					"attributes":{
						"POSITION":15,
						"NORMAL":16,
						"TEXCOORD_0":17,
						"COLOR_0":18
					},
					"indices":19,
					"material":3
				}
			]
		}
	],
	"textures":[
		{
			"sampler":0,
			"source":0
		},
		{
			"sampler":0,
			"source":1
		},
		{
			"sampler":0,
			"source":2
		},
		{
			"sampler":0,
			"source":3
		},
		{
			"sampler":0,
			"source":4
		},
		{
			"sampler":0,
			"source":5
		},
		{
			"sampler":0,
			"source":6
		},
		{
			"sampler":0,
			"source":7
		},
		{
			"sampler":0,
			"source":8
		},
		{
			"sampler":0,
			"source":9
		},
		{
			"sampler":0,
			"source":10
		},
		{
			"sampler":0,
			"source":11
		}
	],
	"images":[
		{
			"mimeType":"image/png",
			"name":"T_cobble_nrm.png",
			"uri":"textures/T_cobble_nrm.png"
		},
		{
			"mimeType":"image/png",
			"name":"T_cobble_alb.png",
			"uri":"textures/T_cobble_alb.png"
		},
		{
			"mimeType":"image/png",
			"name":"T_cobble_orm.png",
			"uri":"textures/T_cobble_orm.png"
		},
		{
			"mimeType":"image/png",
			"name":"T_curb_nrm.png",
			"uri":"textures/T_curb_nrm.png"
		},
		{
			"mimeType":"image/png",
			"name":"T_curb_alb.png",
			"uri":"textures/T_curb_alb.png"
		},
		{
			"mimeType":"image/png",
			"name":"T_curb_orm.png",
			"uri":"textures/T_curb_orm.png"
		},
		{
			"mimeType":"image/png",
			"name":"T_dirt_nrm.png",
			"uri":"textures/T_dirt_nrm.png"
		},
		{
			"mimeType":"image/png",
			"name":"T_dirt_alb.png",
			"uri":"textures/T_dirt_alb.png"
		},
		{
			"mimeType":"image/png",
			"name":"T_dirt_orm.png",
			"uri":"textures/T_dirt_orm.png"
		},
		{
			"mimeType":"image/png",
			"name":"T_sidewalk_nrm.png",
			"uri":"textures/T_sidewalk_nrm.png"
		},
		{
			"mimeType":"image/png",
			"name":"T_sidewalk_alb.png",
			"uri":"textures/T_sidewalk_alb.png"
		},
		{
			"mimeType":"image/png",
			"name":"T_sidewalk_orm.png",
			"uri":"textures/T_sidewalk_orm.png"
		}
	],
	"accessors":[
		{
			"bufferView":0,
			"componentType":5126,
			"count":105808,
			"max":[
				262.1866455078125,
				14.387791633605957,
				268.22320556640625
			],
			"min":[
				-333.99468994140625,
				0.5199516415596008,
				-152.1571807861328
			],
			"type":"VEC3"
		},
		{
			"bufferView":1,
			"componentType":5126,
			"count":105808,
			"type":"VEC3"
		},
		{
			"bufferView":2,
			"componentType":5126,
			"count":105808,
			"type":"VEC2"
		},
		{
			"bufferView":3,
			"componentType":5126,
			"count":105808,
			"type":"VEC3"
		},
		{
			"bufferView":4,
			"componentType":5125,
			"count":162000,
			"type":"SCALAR"
		},
		{
			"bufferView":5,
			"componentType":5126,
			"count":15924,
			"max":[
				262.2015686035156,
				14.487792015075684,
				268.0891418457031
			],
			"min":[
				-334.1945495605469,
				0.5199516415596008,
				-152.171142578125
			],
			"type":"VEC3"
		},
		{
			"bufferView":6,
			"componentType":5126,
			"count":15924,
			"type":"VEC3"
		},
		{
			"bufferView":7,
			"componentType":5126,
			"count":15924,
			"type":"VEC2"
		},
		{
			"bufferView":8,
			"componentType":5126,
			"count":15924,
			"type":"VEC3"
		},
		{
			"bufferView":9,
			"componentType":5123,
			"count":24594,
			"type":"SCALAR"
		},
		{
			"bufferView":10,
			"componentType":5126,
			"count":1872,
			"max":[
				-50.33063888549805,
				10.02082633972168,
				232.3639678955078
			],
			"min":[
				-153.4091796875,
				2.0764360427856445,
				51.23595428466797
			],
			"type":"VEC3"
		},
		{
			"bufferView":11,
			"componentType":5126,
			"count":1872,
			"type":"VEC3"
		},
		{
			"bufferView":12,
			"componentType":5126,
			"count":1872,
			"type":"VEC2"
		},
		{
			"bufferView":13,
			"componentType":5126,
			"count":1872,
			"type":"VEC3"
		},
		{
			"bufferView":14,
			"componentType":5123,
			"count":2808,
			"type":"SCALAR"
		},
		{
			"bufferView":15,
			"componentType":5126,
			"count":13846,
			"max":[
				262.2762451171875,
				14.49779224395752,
				268.12554931640625
			],
			"min":[
				-334.1249084472656,
				0.6699516773223877,
				-152.2410125732422
			],
			"type":"VEC3"
		},
		{
			"bufferView":16,
			"componentType":5126,
			"count":13846,
			"type":"VEC3"
		},
		{
			"bufferView":17,
			"componentType":5126,
			"count":13846,
			"type":"VEC2"
		},
		{
			"bufferView":18,
			"componentType":5126,
			"count":13846,
			"type":"VEC3"
		},
		{
			"bufferView":19,
			"componentType":5123,
			"count":21432,
			"type":"SCALAR"
		}
	],
	"bufferViews":[
		{
			"buffer":0,
			"byteLength":1269696,
			"byteOffset":0,
			"target":34962
		},
		{
			"buffer":0,
			"byteLength":1269696,
			"byteOffset":1269696,
			"target":34962
		},
		{
			"buffer":0,
			"byteLength":846464,
			"byteOffset":2539392,
			"target":34962
		},
		{
			"buffer":0,
			"byteLength":1269696,
			"byteOffset":3385856,
			"target":34962
		},
		{
			"buffer":0,
			"byteLength":648000,
			"byteOffset":4655552,
			"target":34963
		},
		{
			"buffer":0,
			"byteLength":191088,
			"byteOffset":5303552,
			"target":34962
		},
		{
			"buffer":0,
			"byteLength":191088,
			"byteOffset":5494640,
			"target":34962
		},
		{
			"buffer":0,
			"byteLength":127392,
			"byteOffset":5685728,
			"target":34962
		},
		{
			"buffer":0,
			"byteLength":191088,
			"byteOffset":5813120,
			"target":34962
		},
		{
			"buffer":0,
			"byteLength":49188,
			"byteOffset":6004208,
			"target":34963
		},
		{
			"buffer":0,
			"byteLength":22464,
			"byteOffset":6053396,
			"target":34962
		},
		{
			"buffer":0,
			"byteLength":22464,
			"byteOffset":6075860,
			"target":34962
		},
		{
			"buffer":0,
			"byteLength":14976,
			"byteOffset":6098324,
			"target":34962
		},
		{
			"buffer":0,
			"byteLength":22464,
			"byteOffset":6113300,
			"target":34962
		},
		{
			"buffer":0,
			"byteLength":5616,
			"byteOffset":6135764,
			"target":34963
		},
		{
			"buffer":0,
			"byteLength":166152,
			"byteOffset":6141380,
			"target":34962
		},
		{
			"buffer":0,
			"byteLength":166152,
			"byteOffset":6307532,
			"target":34962
		},
		{
			"buffer":0,
			"byteLength":110768,
			"byteOffset":6473684,
			"target":34962
		},
		{
			"buffer":0,
			"byteLength":166152,
			"byteOffset":6584452,
			"target":34962
		},
		{
			"buffer":0,
			"byteLength":42864,
			"byteOffset":6750604,
			"target":34963
		}
	],
	"samplers":[
		{
			"magFilter":9729,
			"minFilter":9987
		}
	],
	"buffers":[
		{
			"byteLength":6793468,
			"uri":"city_roads.bin"
		}
	]
}
