{
	"asset":{
		"generator":"Khronos glTF Blender I/O v5.2.40",
		"version":"2.0"
	},
	"extensionsUsed":[
		"KHR_materials_specular"
	],
	"scene":0,
	"scenes":[
		{
			"name":"Scene",
			"nodes":[
				0,
				1,
				2,
				3,
				4,
				5,
				6,
				7,
				8
			]
		}
	],
	"nodes":[
		{
			"mesh":0,
			"name":"BUSH"
		},
		{
			"mesh":1,
			"name":"BUSH_LOD"
		},
		{
			"mesh":2,
			"name":"TREE_cypress"
		},
		{
			"mesh":3,
			"name":"TREE_forest"
		},
		{
			"mesh":4,
			"name":"TREE_forest_broad"
		},
		{
			"mesh":5,
			"name":"TREE_forest_broad_LOD"
		},
		{
			"mesh":6,
			"name":"TREE_forest_LOD"
		},
		{
			"mesh":7,
			"name":"TREE_urban"
		},
		{
			"mesh":8,
			"name":"WEED"
		}
	],
	"materials":[
		{
			"doubleSided":true,
			"extensions":{
				"KHR_materials_specular":{
					"specularFactor":0.699999988079071
				}
			},
			"name":"MI_canopy_urban",
			"pbrMetallicRoughness":{
				"baseColorFactor":[
					0.09084171056747437,
					0.11697066575288773,
					0.0423114113509655,
					1
				],
				"metallicFactor":0,
				"roughnessFactor":0.8999999761581421
			}
		},
		{
			"doubleSided":true,
			"extensions":{
				"KHR_materials_specular":{
					"specularFactor":0.699999988079071
				}
			},
			"name":"MI_cypress_dark",
			"pbrMetallicRoughness":{
				"baseColorFactor":[
					0.027320891618728638,
					0.0423114113509655,
					0.024157632142305374,
					1
				],
				"metallicFactor":0,
				"roughnessFactor":0.9100000262260437
			}
		},
		{
			"doubleSided":true,
			"extensions":{
				"KHR_materials_specular":{
					"specularFactor":0.699999988079071
				}
			},
			"name":"MI_canopy_forest",
			"pbrMetallicRoughness":{
				"baseColorFactor":[
					0.04817182570695877,
					0.06847816705703735,
					0.027320891618728638,
					1
				],
				"metallicFactor":0,
				"roughnessFactor":0.8999999761581421
			}
		},
		{
			"doubleSided":true,
			"extensions":{
				"KHR_materials_specular":{
					"specularFactor":0.699999988079071
				}
			},
			"name":"MI_canopy_forest_dark",
			"pbrMetallicRoughness":{
				"baseColorFactor":[
					0.023153366521000862,
					0.03310476616024971,
					0.01599629409611225,
					1
				],
				"metallicFactor":0,
				"roughnessFactor":0.9200000166893005
			}
		},
		{
			"doubleSided":true,
			"extensions":{
				"KHR_materials_specular":{
					"specularFactor":0.699999988079071
				}
			},
			"name":"MI_grass_dry",
			"pbrMetallicRoughness":{
				"baseColorFactor":[
					0.20863686501979828,
					0.1946178376674652,
					0.08437620848417282,
					1
				],
				"metallicFactor":0,
				"roughnessFactor":0.9300000071525574
			}
		}
	],
	"meshes":[
		{
			"name":"BUSH.001",
			"primitives":[
				{
					"attributes":{
						"POSITION":0,
						"NORMAL":1
					},
					"indices":2,
					"material":0
				}
			]
		},
		{
			"name":"BUSH_LOD",
			"primitives":[
				{
					"attributes":{
						"POSITION":3,
						"NORMAL":4
					},
					"indices":5,
					"material":0
				}
			]
		},
		{
			"name":"TREE_cypress.001",
			"primitives":[
				{
					"attributes":{
						"POSITION":6,
						"NORMAL":7
					},
					"indices":8,
					"material":1
				}
			]
		},
		{
			"name":"TREE_forest.001",
			"primitives":[
				{
					"attributes":{
						"POSITION":9,
						"NORMAL":10
					},
					"indices":11,
					"material":2
				}
			]
		},
		{
			"name":"TREE_forest_broad.001",
			"primitives":[
				{
					"attributes":{
						"POSITION":12,
						"NORMAL":13
					},
					"indices":14,
					"material":3
				}
			]
		},
		{
			"name":"TREE_forest_broad_LOD",
			"primitives":[
				{
					"attributes":{
						"POSITION":15,
						"NORMAL":16
					},
					"indices":17,
					"material":3
				}
			]
		},
		{
			"name":"TREE_forest_LOD",
			"primitives":[
				{
					"attributes":{
						"POSITION":18,
						"NORMAL":19
					},
					"indices":20,
					"material":2
				}
			]
		},
		{
			"name":"TREE_urban.001",
			"primitives":[
				{
					"attributes":{
						"POSITION":21,
						"NORMAL":22
					},
					"indices":23,
					"material":0
				}
			]
		},
		{
			"name":"WEED.001",
			"primitives":[
				{
					"attributes":{
						"POSITION":24,
						"NORMAL":25
					},
					"indices":26,
					"material":4
				}
			]
		}
	],
	"accessors":[
		{
			"bufferView":0,
			"componentType":5126,
			"count":24,
			"max":[
				0.8500000238418579,
				1.25,
				0.7361215949058533
			],
			"min":[
				-0.8500000238418579,
				0,
				-0.7361215949058533
			],
			"type":"VEC3"
		},
		{
			"bufferView":1,
			"componentType":5126,
			"count":24,
			"type":"VEC3"
		},
		{
			"bufferView":2,
			"componentType":5123,
			"count":30,
			"type":"SCALAR"
		},
		{
			"bufferView":3,
			"componentType":5126,
			"count":12,
			"max":[
				0.8500000238418579,
				1.25,
				0.7361215949058533
			],
			"min":[
				-0.42500001192092896,
				0,
				-0.7361215949058533
			],
			"type":"VEC3"
		},
		{
			"bufferView":4,
			"componentType":5126,
			"count":12,
			"type":"VEC3"
		},
		{
			"bufferView":5,
			"componentType":5123,
			"count":12,
			"type":"SCALAR"
		},
		{
			"bufferView":6,
			"componentType":5126,
			"count":54,
			"max":[
				1.1427850723266602,
				8.100000381469727,
				1.2429308891296387
			],
			"min":[
				-1.1427850723266602,
				0,
				-1.2429308891296387
			],
			"type":"VEC3"
		},
		{
			"bufferView":7,
			"componentType":5126,
			"count":54,
			"type":"VEC3"
		},
		{
			"bufferView":8,
			"componentType":5123,
			"count":78,
			"type":"SCALAR"
		},
		{
			"bufferView":9,
			"componentType":5126,
			"count":98,
			"max":[
				3.206735134124756,
				17.5,
				3.3421030044555664
			],
			"min":[
				-3.206735134124756,
				0,
				-3.3421030044555664
			],
			"type":"VEC3"
		},
		{
			"bufferView":10,
			"componentType":5126,
			"count":98,
			"type":"VEC3"
		},
		{
			"bufferView":11,
			"componentType":5123,
			"count":132,
			"type":"SCALAR"
		},
		{
			"bufferView":12,
			"componentType":5126,
			"count":150,
			"max":[
				4.591302394866943,
				12.800000190734863,
				4.348991870880127
			],
			"min":[
				-4.377661228179932,
				0,
				-4.366438865661621
			],
			"type":"VEC3"
		},
		{
			"bufferView":13,
			"componentType":5126,
			"count":150,
			"type":"VEC3"
		},
		{
			"bufferView":14,
			"componentType":5123,
			"count":252,
			"type":"SCALAR"
		},
		{
			"bufferView":15,
			"componentType":5126,
			"count":42,
			"max":[
				3.5999999046325684,
				12.800000190734863,
				3.5999999046325684
			],
			"min":[
				-3.5999999046325684,
				0,
				-3.5999999046325684
			],
			"type":"VEC3"
		},
		{
			"bufferView":16,
			"componentType":5126,
			"count":42,
			"type":"VEC3"
		},
		{
			"bufferView":17,
			"componentType":5123,
			"count":60,
			"type":"SCALAR"
		},
		{
			"bufferView":18,
			"componentType":5126,
			"count":16,
			"max":[
				3.4000000953674316,
				17.5,
				3.4000000953674316
			],
			"min":[
				-3.4000000953674316,
				0,
				-3.4000000953674316
			],
			"type":"VEC3"
		},
		{
			"bufferView":19,
			"componentType":5126,
			"count":16,
			"type":"VEC3"
		},
		{
			"bufferView":20,
			"componentType":5123,
			"count":18,
			"type":"SCALAR"
		},
		{
			"bufferView":21,
			"componentType":5126,
			"count":82,
			"max":[
				3.8741519451141357,
				7.199999809265137,
				3.677269220352173
			],
			"min":[
				-3.6849875450134277,
				0,
				-3.8767685890197754
			],
			"type":"VEC3"
		},
		{
			"bufferView":22,
			"componentType":5126,
			"count":82,
			"type":"VEC3"
		},
		{
			"bufferView":23,
			"componentType":5123,
			"count":114,
			"type":"SCALAR"
		},
		{
			"bufferView":24,
			"componentType":5126,
			"count":20,
			"max":[
				0.44999998807907104,
				0.6000000238418579,
				0.42797544598579407
			],
			"min":[
				-0.36405766010284424,
				0,
				-0.42797544598579407
			],
			"type":"VEC3"
		},
		{
			"bufferView":25,
			"componentType":5126,
			"count":20,
			"type":"VEC3"
		},
		{
			"bufferView":26,
			"componentType":5123,
			"count":24,
			"type":"SCALAR"
		}
	],
	"bufferViews":[
		{
			"buffer":0,
			"byteLength":288,
			"byteOffset":0,
			"target":34962
		},
		{
			"buffer":0,
			"byteLength":288,
			"byteOffset":288,
			"target":34962
		},
		{
			"buffer":0,
			"byteLength":60,
			"byteOffset":576,
			"target":34963
		},
		{
			"buffer":0,
			"byteLength":144,
			"byteOffset":636,
			"target":34962
		},
		{
			"buffer":0,
			"byteLength":144,
			"byteOffset":780,
			"target":34962
		},
		{
			"buffer":0,
			"byteLength":24,
			"byteOffset":924,
			"target":34963
		},
		{
			"buffer":0,
			"byteLength":648,
			"byteOffset":948,
			"target":34962
		},
		{
			"buffer":0,
			"byteLength":648,
			"byteOffset":1596,
			"target":34962
		},
		{
			"buffer":0,
			"byteLength":156,
			"byteOffset":2244,
			"target":34963
		},
		{
			"buffer":0,
			"byteLength":1176,
			"byteOffset":2400,
			"target":34962
		},
		{
			"buffer":0,
			"byteLength":1176,
			"byteOffset":3576,
			"target":34962
		},
		{
			"buffer":0,
			"byteLength":264,
			"byteOffset":4752,
			"target":34963
		},
		{
			"buffer":0,
			"byteLength":1800,
			"byteOffset":5016,
			"target":34962
		},
		{
			"buffer":0,
			"byteLength":1800,
			"byteOffset":6816,
			"target":34962
		},
		{
			"buffer":0,
			"byteLength":504,
			"byteOffset":8616,
			"target":34963
		},
		{
			"buffer":0,
			"byteLength":504,
			"byteOffset":9120,
			"target":34962
		},
		{
			"buffer":0,
			"byteLength":504,
			"byteOffset":9624,
			"target":34962
		},
		{
			"buffer":0,
			"byteLength":120,
			"byteOffset":10128,
			"target":34963
		},
		{
			"buffer":0,
			"byteLength":192,
			"byteOffset":10248,
			"target":34962
		},
		{
			"buffer":0,
			"byteLength":192,
			"byteOffset":10440,
			"target":34962
		},
		{
			"buffer":0,
			"byteLength":36,
			"byteOffset":10632,
			"target":34963
		},
		{
			"buffer":0,
			"byteLength":984,
			"byteOffset":10668,
			"target":34962
		},
		{
			"buffer":0,
			"byteLength":984,
			"byteOffset":11652,
			"target":34962
		},
		{
			"buffer":0,
			"byteLength":228,
			"byteOffset":12636,
			"target":34963
		},
		{
			"buffer":0,
			"byteLength":240,
			"byteOffset":12864,
			"target":34962
		},
		{
			"buffer":0,
			"byteLength":240,
			"byteOffset":13104,
			"target":34962
		},
		{
			"buffer":0,
			"byteLength":48,
			"byteOffset":13344,
			"target":34963
		}
	],
	"buffers":[
		{
			"byteLength":13392,
			"uri":"city_vegkit.bin"
		}
	]
}
