{
	"asset":{
		"generator":"Khronos glTF Blender I/O v5.2.40",
		"version":"2.0"
	},
	"extensionsUsed":[
		"KHR_materials_specular"
	],
	"scene":0,
	"scenes":[
		{
			"name":"Scene",
			"nodes":[
				0,
				1,
				2,
				3,
				4,
				5,
				6,
				7,
				8,
				9,
				10,
				11,
				12
			]
		}
	],
	"nodes":[
		{
			"mesh":0,
			"name":"SM_proxy__metal_rust_dark-col",
			"translation":[
				-116.66390228271484,
				21.07250213623047,
				-115.68830871582031
			]
		},
		{
			"mesh":1,
			"name":"SM_proxy__paint_shop_ochre-col"
		},
		{
			"mesh":2,
			"name":"SM_proxy__paint_shop_red-col",
			"rotation":[
				-0.047781627625226974,
				-0.7267893552780151,
				-0.05082205682992935,
				0.6833090782165527
			],
			"translation":[
				-117.9262924194336,
				16.641590118408203,
				-123.78985595703125
			]
		},
		{
			"mesh":3,
			"name":"SM_proxy__roof_metal_rust-col"
		},
		{
			"mesh":4,
			"name":"SM_proxy__roof_metal_zinc-col",
			"rotation":[
				0,
				0.5584309101104736,
				0,
				0.8295510411262512
			],
			"translation":[
				-117.81733703613281,
				20.282047271728516,
				-115.74275207519531
			]
		},
		{
			"mesh":5,
			"name":"SM_proxy__roof_tile_bleached-col"
		},
		{
			"mesh":6,
			"name":"SM_proxy__roof_tile_faded-col"
		},
		{
			"mesh":7,
			"name":"SM_proxy__roof_tile_warm-col"
		},
		{
			"mesh":8,
			"name":"SM_proxy__wall_brick-col"
		},
		{
			"mesh":9,
			"name":"SM_proxy__wall_render_raw-col"
		},
		{
			"mesh":10,
			"name":"SM_proxy__wall_whitewash-col"
		},
		{
			"mesh":11,
			"name":"SM_proxy__wall_whitewash_hi-col"
		},
		{
			"mesh":12,
			"name":"SM_proxy__wood_dark-col",
			"rotation":[
				0.02387833781540394,
				0.7189146876335144,
				-0.6942479014396667,
				0.024726739153265953
			],
			"translation":[
				-101.82527923583984,
				15.637252807617188,
				-120.6518325805664
			]
		}
	],
	"materials":[
		{
			"doubleSided":true,
			"extensions":{
				"KHR_materials_specular":{
					"specularFactor":0.699999988079071
				}
			},
			"name":"MI_metal_rust_dark",
			"pbrMetallicRoughness":{
				"baseColorFactor":[
					0.10702310502529144,
					0.04817182570695877,
					0.02955683507025242,
					1
				],
				"metallicFactor":0.44999998807907104,
				"roughnessFactor":0.6800000071525574
			}
		},
		{
			"doubleSided":true,
			"extensions":{
				"KHR_materials_specular":{
					"specularFactor":0.699999988079071
				}
			},
			"name":"MI_paint_shop_ochre",
			"normalTexture":{
				"index":0
			},
			"pbrMetallicRoughness":{
				"baseColorTexture":{
					"index":1
				},
				"metallicRoughnessTexture":{
					"index":2
				}
			}
		},
		{
			"doubleSided":true,
			"extensions":{
				"KHR_materials_specular":{
					"specularFactor":0.699999988079071
				}
			},
			"name":"MI_paint_shop_red",
			"normalTexture":{
				"index":3,
				"texCoord":-1
			},
			"pbrMetallicRoughness":{
				"baseColorTexture":{
					"index":4,
					"texCoord":-1
				},
				"metallicRoughnessTexture":{
					"index":5,
					"texCoord":-1
				}
			}
		},
		{
			"doubleSided":true,
			"extensions":{
				"KHR_materials_specular":{
					"specularFactor":0.699999988079071
				}
			},
			"name":"MI_roof_metal_rust",
			"normalTexture":{
				"index":6
			},
			"pbrMetallicRoughness":{
				"baseColorTexture":{
					"index":7
				},
				"metallicRoughnessTexture":{
					"index":8
				}
			}
		},
		{
			"doubleSided":true,
			"extensions":{
				"KHR_materials_specular":{
					"specularFactor":0.699999988079071
				}
			},
			"name":"MI_roof_metal_zinc",
			"normalTexture":{
				"index":9,
				"texCoord":-1
			},
			"pbrMetallicRoughness":{
				"baseColorTexture":{
					"index":10,
					"texCoord":-1
				},
				"metallicRoughnessTexture":{
					"index":11,
					"texCoord":-1
				}
			}
		},
		{
			"doubleSided":true,
			"extensions":{
				"KHR_materials_specular":{
					"specularFactor":0.699999988079071
				}
			},
			"name":"MI_roof_tile_bleached",
			"normalTexture":{
				"index":12
			},
			"pbrMetallicRoughness":{
				"baseColorTexture":{
					"index":13
				},
				"metallicRoughnessTexture":{
					"index":14
				}
			}
		},
		{
			"doubleSided":true,
			"extensions":{
				"KHR_materials_specular":{
					"specularFactor":0.699999988079071
				}
			},
			"name":"MI_roof_tile_faded",
			"normalTexture":{
				"index":15
			},
			"pbrMetallicRoughness":{
				"baseColorTexture":{
					"index":16
				},
				"metallicRoughnessTexture":{
					"index":17
				}
			}
		},
		{
			"doubleSided":true,
			"extensions":{
				"KHR_materials_specular":{
					"specularFactor":0.699999988079071
				}
			},
			"name":"MI_roof_tile_warm",
			"normalTexture":{
				"index":18
			},
			"pbrMetallicRoughness":{
				"baseColorTexture":{
					"index":19
				},
				"metallicRoughnessTexture":{
					"index":20
				}
			}
		},
		{
			"doubleSided":true,
			"extensions":{
				"KHR_materials_specular":{
					"specularFactor":0.699999988079071
				}
			},
			"name":"MI_wall_brick",
			"normalTexture":{
				"index":21
			},
			"pbrMetallicRoughness":{
				"baseColorTexture":{
					"index":22
				},
				"metallicRoughnessTexture":{
					"index":23
				}
			}
		},
		{
			"doubleSided":true,
			"extensions":{
				"KHR_materials_specular":{
					"specularFactor":0.699999988079071
				}
			},
			"name":"MI_wall_render_raw",
			"normalTexture":{
				"index":24
			},
			"pbrMetallicRoughness":{
				"baseColorTexture":{
					"index":25
				},
				"metallicRoughnessTexture":{
					"index":26
				}
			}
		},
		{
			"doubleSided":true,
			"extensions":{
				"KHR_materials_specular":{
					"specularFactor":0.699999988079071
				}
			},
			"name":"MI_wall_whitewash",
			"normalTexture":{
				"index":27
			},
			"pbrMetallicRoughness":{
				"baseColorTexture":{
					"index":28
				},
				"metallicRoughnessTexture":{
					"index":29
				}
			}
		},
		{
			"doubleSided":true,
			"extensions":{
				"KHR_materials_specular":{
					"specularFactor":0.699999988079071
				}
			},
			"name":"MI_wall_whitewash_hi",
			"pbrMetallicRoughness":{
				"baseColorFactor":[
					0.672443151473999,
					0.5972017645835876,
					0.4564110338687897,
					1
				],
				"metallicFactor":0,
				"roughnessFactor":0.8799999952316284
			}
		},
		{
			"doubleSided":true,
			"extensions":{
				"KHR_materials_specular":{
					"specularFactor":0.699999988079071
				}
			},
			"name":"MI_wood_dark",
			"pbrMetallicRoughness":{
				"baseColorFactor":[
					0.09305896610021591,
					0.061246052384376526,
					0.0423114113509655,
					1
				],
				"metallicFactor":0,
				"roughnessFactor":0.8999999761581421
			}
		}
	],
	"meshes":[
		{
			"name":"SM_house_q00_0_02_antena.001",
			"primitives":[
				{
					"attributes":{
						"POSITION":0,
						"NORMAL":1
					},
					"indices":2,
					"material":0
				}
			]
		},
		{
			"name":"SM_house_q00_0_02.001",
			"primitives":[
				{
					"attributes":{
						"POSITION":3,
						"NORMAL":4,
						"TEXCOORD_0":5
					},
					"indices":6,
					"material":1
				}
			]
		},
		{
			"name":"SM_house_q00_0_02_toldo.001",
			"primitives":[
				{
					"attributes":{
						"POSITION":7,
						"NORMAL":8,
						"TEXCOORD_0":9
					},
					"indices":10,
					"material":2
				}
			]
		},
		{
			"name":"SM_house_q00_0_01_teto.001",
			"primitives":[
				{
					"attributes":{
						"POSITION":11,
						"NORMAL":12,
						"TEXCOORD_0":13
					},
					"indices":14,
					"material":3
				}
			]
		},
		{
			"name":"SM_house_q00_0_02_caixa.001",
			"primitives":[
				{
					"attributes":{
						"POSITION":15,
						"NORMAL":16,
						"TEXCOORD_0":17
					},
					"indices":18,
					"material":4
				}
			]
		},
		{
			"name":"SM_house_q00_0_02_teto.001",
			"primitives":[
				{
					"attributes":{
						"POSITION":19,
						"NORMAL":20,
						"TEXCOORD_0":21
					},
					"indices":22,
					"material":5
				}
			]
		},
		{
			"name":"SM_house_q00_0_00_teto.001",
			"primitives":[
				{
					"attributes":{
						"POSITION":23,
						"NORMAL":24,
						"TEXCOORD_0":25
					},
					"indices":26,
					"material":6
				}
			]
		},
		{
			"name":"SM_house_q00_1_06_teto.001",
			"primitives":[
				{
					"attributes":{
						"POSITION":27,
						"NORMAL":28,
						"TEXCOORD_0":29
					},
					"indices":30,
					"material":7
				}
			]
		},
		{
			"name":"SM_house_q00_0_03.001",
			"primitives":[
				{
					"attributes":{
						"POSITION":31,
						"NORMAL":32,
						"TEXCOORD_0":33
					},
					"indices":34,
					"material":8
				}
			]
		},
		{
			"name":"SM_house_q00_0_01.001",
			"primitives":[
				{
					"attributes":{
						"POSITION":35,
						"NORMAL":36,
						"TEXCOORD_0":37
					},
					"indices":38,
					"material":9
				}
			]
		},
		{
			"name":"SM_house_q00_1_04.001",
			"primitives":[
				{
					"attributes":{
						"POSITION":39,
						"NORMAL":40,
						"TEXCOORD_0":41
					},
					"indices":42,
					"material":10
				}
			]
		},
		{
			"name":"SM_house_q00_0_00.001",
			"primitives":[
				{
					"attributes":{
						"POSITION":43,
						"NORMAL":44,
						"TEXCOORD_0":45
					},
					"indices":46,
					"material":11
				}
			]
		},
		{
			"name":"SM_house_q00_1_04_caibro0.001",
			"primitives":[
				{
					"attributes":{
						"POSITION":47,
						"NORMAL":48
					},
					"indices":49,
					"material":12
				}
			]
		}
	],
	"textures":[
		{
			"sampler":0,
			"source":0
		},
		{
			"sampler":0,
			"source":1
		},
		{
			"sampler":0,
			"source":2
		},
		{
			"sampler":0,
			"source":3
		},
		{
			"sampler":0,
			"source":4
		},
		{
			"sampler":0,
			"source":5
		},
		{
			"sampler":0,
			"source":6
		},
		{
			"sampler":0,
			"source":7
		},
		{
			"sampler":0,
			"source":8
		},
		{
			"sampler":0,
			"source":6
		},
		{
			"sampler":0,
			"source":7
		},
		{
			"sampler":0,
			"source":8
		},
		{
			"sampler":0,
			"source":9
		},
		{
			"sampler":0,
			"source":10
		},
		{
			"sampler":0,
			"source":11
		},
		{
			"sampler":0,
			"source":12
		},
		{
			"sampler":0,
			"source":13
		},
		{
			"sampler":0,
			"source":14
		},
		{
			"sampler":0,
			"source":15
		},
		{
			"sampler":0,
			"source":16
		},
		{
			"sampler":0,
			"source":17
		},
		{
			"sampler":0,
			"source":18
		},
		{
			"sampler":0,
			"source":19
		},
		{
			"sampler":0,
			"source":20
		},
		{
			"sampler":0,
			"source":21
		},
		{
			"sampler":0,
			"source":22
		},
		{
			"sampler":0,
			"source":23
		},
		{
			"sampler":0,
			"source":24
		},
		{
			"sampler":0,
			"source":25
		},
		{
			"sampler":0,
			"source":26
		}
	],
	"images":[
		{
			"mimeType":"image/png",
			"name":"T_plaster_ochre_nrm.png",
			"uri":"textures/T_plaster_ochre_nrm.png"
		},
		{
			"mimeType":"image/png",
			"name":"T_plaster_ochre_alb.png",
			"uri":"textures/T_plaster_ochre_alb.png"
		},
		{
			"mimeType":"image/png",
			"name":"T_plaster_ochre_orm.png",
			"uri":"textures/T_plaster_ochre_orm.png"
		},
		{
			"mimeType":"image/png",
			"name":"T_plaster_red_nrm.png",
			"uri":"textures/T_plaster_red_nrm.png"
		},
		{
			"mimeType":"image/png",
			"name":"T_plaster_red_alb.png",
			"uri":"textures/T_plaster_red_alb.png"
		},
		{
			"mimeType":"image/png",
			"name":"T_plaster_red_orm.png",
			"uri":"textures/T_plaster_red_orm.png"
		},
		{
			"mimeType":"image/png",
			"name":"T_metal_corr_nrm.png",
			"uri":"textures/T_metal_corr_nrm.png"
		},
		{
			"mimeType":"image/png",
			"name":"T_metal_corr_alb.png",
			"uri":"textures/T_metal_corr_alb.png"
		},
		{
			"mimeType":"image/png",
			"name":"T_metal_corr_orm.png",
			"uri":"textures/T_metal_corr_orm.png"
		},
		{
			"mimeType":"image/png",
			"name":"T_roof_tile_pale_nrm.png",
			"uri":"textures/T_roof_tile_pale_nrm.png"
		},
		{
			"mimeType":"image/png",
			"name":"T_roof_tile_pale_alb.png",
			"uri":"textures/T_roof_tile_pale_alb.png"
		},
		{
			"mimeType":"image/png",
			"name":"T_roof_tile_pale_orm.png",
			"uri":"textures/T_roof_tile_pale_orm.png"
		},
		{
			"mimeType":"image/png",
			"name":"T_roof_tile_nrm.png",
			"uri":"textures/T_roof_tile_nrm.png"
		},
		{
			"mimeType":"image/png",
			"name":"T_roof_tile_alb.png",
			"uri":"textures/T_roof_tile_alb.png"
		},
		{
			"mimeType":"image/png",
			"name":"T_roof_tile_orm.png",
			"uri":"textures/T_roof_tile_orm.png"
		},
		{
			"mimeType":"image/png",
			"name":"T_roof_tile_warm_nrm.png",
			"uri":"textures/T_roof_tile_warm_nrm.png"
		},
		{
			"mimeType":"image/png",
			"name":"T_roof_tile_warm_alb.png",
			"uri":"textures/T_roof_tile_warm_alb.png"
		},
		{
			"mimeType":"image/png",
			"name":"T_roof_tile_warm_orm.png",
			"uri":"textures/T_roof_tile_warm_orm.png"
		},
		{
			"mimeType":"image/png",
			"name":"T_brick_nrm.png",
			"uri":"textures/T_brick_nrm.png"
		},
		{
			"mimeType":"image/png",
			"name":"T_brick_alb.png",
			"uri":"textures/T_brick_alb.png"
		},
		{
			"mimeType":"image/png",
			"name":"T_brick_orm.png",
			"uri":"textures/T_brick_orm.png"
		},
		{
			"mimeType":"image/png",
			"name":"T_plaster_raw_nrm.png",
			"uri":"textures/T_plaster_raw_nrm.png"
		},
		{
			"mimeType":"image/png",
			"name":"T_plaster_raw_alb.png",
			"uri":"textures/T_plaster_raw_alb.png"
		},
		{
			"mimeType":"image/png",
			"name":"T_plaster_raw_orm.png",
			"uri":"textures/T_plaster_raw_orm.png"
		},
		{
			"mimeType":"image/png",
			"name":"T_plaster_nrm.png",
			"uri":"textures/T_plaster_nrm.png"
		},
		{
			"mimeType":"image/png",
			"name":"T_plaster_alb.png",
			"uri":"textures/T_plaster_alb.png"
		},
		{
			"mimeType":"image/png",
			"name":"T_plaster_orm.png",
			"uri":"textures/T_plaster_orm.png"
		}
	],
	"accessors":[
		{
			"bufferView":0,
			"componentType":5126,
			"count":3936,
			"max":[
				346.6716613769531,
				2.404998779296875,
				354.6889343261719
			],
			"min":[
				-30.34528923034668,
				-14.402111053466797,
				-9.332403182983398
			],
			"type":"VEC3"
		},
		{
			"bufferView":1,
			"componentType":5126,
			"count":3936,
			"type":"VEC3"
		},
		{
			"bufferView":2,
			"componentType":5123,
			"count":5904,
			"type":"SCALAR"
		},
		{
			"bufferView":3,
			"componentType":5126,
			"count":4828,
			"max":[
				235.09671020507812,
				19.62162208557129,
				244.49978637695312
			],
			"min":[
				-151.650634765625,
				2.8548662662506104,
				-129.45513916015625
			],
			"type":"VEC3"
		},
		{
			"bufferView":4,
			"componentType":5126,
			"count":4828,
			"type":"VEC3"
		},
		{
			"bufferView":5,
			"componentType":5126,
			"count":4828,
			"type":"VEC2"
		},
		{
			"bufferView":6,
			"componentType":5123,
			"count":7242,
			"type":"SCALAR"
		},
		{
			"bufferView":7,
			"componentType":5126,
			"count":1868,
			"max":[
				354.9319152832031,
				45.08379364013672,
				24.386133193969727
			],
			"min":[
				-25.377235412597656,
				-9.845210075378418,
				-364.1232604980469
			],
			"type":"VEC3"
		},
		{
			"bufferView":8,
			"componentType":5126,
			"count":1868,
			"type":"VEC3"
		},
		{
			"bufferView":9,
			"componentType":5126,
			"count":1868,
			"type":"VEC2"
		},
		{
			"bufferView":10,
			"componentType":5123,
			"count":2802,
			"type":"SCALAR"
		},
		{
			"bufferView":11,
			"componentType":5126,
			"count":1764,
			"max":[
				230.99363708496094,
				18.038576126098633,
				244.62994384765625
			],
			"min":[
				-152.31520080566406,
				5.6548662185668945,
				-126.96514129638672
			],
			"type":"VEC3"
		},
		{
			"bufferView":12,
			"componentType":5126,
			"count":1764,
			"type":"VEC3"
		},
		{
			"bufferView":13,
			"componentType":5126,
			"count":1764,
			"type":"VEC2"
		},
		{
			"bufferView":14,
			"componentType":5123,
			"count":2268,
			"type":"SCALAR"
		},
		{
			"bufferView":15,
			"componentType":5126,
			"count":6864,
			"max":[
				142.44223022460938,
				0.9601627588272095,
				432.62969970703125
			],
			"min":[
				-320.8811950683594,
				-14.627181053161621,
				-22.058975219726562
			],
			"type":"VEC3"
		},
		{
			"bufferView":16,
			"componentType":5126,
			"count":6864,
			"type":"VEC3"
		},
		{
			"bufferView":17,
			"componentType":5126,
			"count":6864,
			"type":"VEC2"
		},
		{
			"bufferView":18,
			"componentType":5123,
			"count":9900,
			"type":"SCALAR"
		},
		{
			"bufferView":19,
			"componentType":5126,
			"count":1400,
			"max":[
				234.5709228515625,
				21.46295738220215,
				244.56585693359375
			],
			"min":[
				-151.45799255371094,
				5.6548662185668945,
				-129.68960571289062
			],
			"type":"VEC3"
		},
		{
			"bufferView":20,
			"componentType":5126,
			"count":1400,
			"type":"VEC3"
		},
		{
			"bufferView":21,
			"componentType":5126,
			"count":1400,
			"type":"VEC2"
		},
		{
			"bufferView":22,
			"componentType":5123,
			"count":1800,
			"type":"SCALAR"
		},
		{
			"bufferView":23,
			"componentType":5126,
			"count":1904,
			"max":[
				231.3672332763672,
				21.576356887817383,
				242.54212951660156
			],
			"min":[
				-153.06468200683594,
				5.6548662185668945,
				-129.2247772216797
			],
			"type":"VEC3"
		},
		{
			"bufferView":24,
			"componentType":5126,
			"count":1904,
			"type":"VEC3"
		},
		{
			"bufferView":25,
			"componentType":5126,
			"count":1904,
			"type":"VEC2"
		},
		{
			"bufferView":26,
			"componentType":5123,
			"count":2448,
			"type":"SCALAR"
		},
		{
			"bufferView":27,
			"componentType":5126,
			"count":1680,
			"max":[
				235.51832580566406,
				21.522247314453125,
				244.63388061523438
			],
			"min":[
				-153.2969512939453,
				5.834944725036621,
				-129.8767547607422
			],
			"type":"VEC3"
		},
		{
			"bufferView":28,
			"componentType":5126,
			"count":1680,
			"type":"VEC3"
		},
		{
			"bufferView":29,
			"componentType":5126,
			"count":1680,
			"type":"VEC2"
		},
		{
			"bufferView":30,
			"componentType":5123,
			"count":2160,
			"type":"SCALAR"
		},
		{
			"bufferView":31,
			"componentType":5126,
			"count":4860,
			"max":[
				232.142822265625,
				19.62162208557129,
				244.66867065429688
			],
			"min":[
				-152.2177276611328,
				2.8548662662506104,
				-126.76850891113281
			],
			"type":"VEC3"
		},
		{
			"bufferView":32,
			"componentType":5126,
			"count":4860,
			"type":"VEC3"
		},
		{
			"bufferView":33,
			"componentType":5126,
			"count":4860,
			"type":"VEC2"
		},
		{
			"bufferView":34,
			"componentType":5123,
			"count":7290,
			"type":"SCALAR"
		},
		{
			"bufferView":35,
			"componentType":5126,
			"count":4048,
			"max":[
				230.61915588378906,
				19.553237915039062,
				244.06198120117188
			],
			"min":[
				-152.71383666992188,
				2.8548662662506104,
				-128.8249053955078
			],
			"type":"VEC3"
		},
		{
			"bufferView":36,
			"componentType":5126,
			"count":4048,
			"type":"VEC3"
		},
		{
			"bufferView":37,
			"componentType":5126,
			"count":4048,
			"type":"VEC2"
		},
		{
			"bufferView":38,
			"componentType":5123,
			"count":6072,
			"type":"SCALAR"
		},
		{
			"bufferView":39,
			"componentType":5126,
			"count":4936,
			"max":[
				228.69737243652344,
				19.62162208557129,
				238.98065185546875
			],
			"min":[
				-152.649169921875,
				2.8548662662506104,
				-128.67076110839844
			],
			"type":"VEC3"
		},
		{
			"bufferView":40,
			"componentType":5126,
			"count":4936,
			"type":"VEC3"
		},
		{
			"bufferView":41,
			"componentType":5126,
			"count":4936,
			"type":"VEC2"
		},
		{
			"bufferView":42,
			"componentType":5123,
			"count":7404,
			"type":"SCALAR"
		},
		{
			"bufferView":43,
			"componentType":5126,
			"count":4960,
			"max":[
				233.9912109375,
				19.553237915039062,
				244.03265380859375
			],
			"min":[
				-151.95660400390625,
				2.8548662662506104,
				-128.73886108398438
			],
			"type":"VEC3"
		},
		{
			"bufferView":44,
			"componentType":5126,
			"count":4960,
			"type":"VEC3"
		},
		{
			"bufferView":45,
			"componentType":5126,
			"count":4960,
			"type":"VEC2"
		},
		{
			"bufferView":46,
			"componentType":5123,
			"count":7440,
			"type":"SCALAR"
		},
		{
			"bufferView":47,
			"componentType":5126,
			"count":4704,
			"max":[
				11.838181495666504,
				22.600997924804688,
				4.753969669342041
			],
			"min":[
				-352.6279296875,
				-359.8603515625,
				-5.040504455566406
			],
			"type":"VEC3"
		},
		{
			"bufferView":48,
			"componentType":5126,
			"count":4704,
			"type":"VEC3"
		},
		{
			"bufferView":49,
			"componentType":5123,
			"count":7056,
			"type":"SCALAR"
		}
	],
	"bufferViews":[
		{
			"buffer":0,
			"byteLength":47232,
			"byteOffset":0,
			"target":34962
		},
		{
			"buffer":0,
			"byteLength":47232,
			"byteOffset":47232,
			"target":34962
		},
		{
			"buffer":0,
			"byteLength":11808,
			"byteOffset":94464,
			"target":34963
		},
		{
			"buffer":0,
			"byteLength":57936,
			"byteOffset":106272,
			"target":34962
		},
		{
			"buffer":0,
			"byteLength":57936,
			"byteOffset":164208,
			"target":34962
		},
		{
			"buffer":0,
			"byteLength":38624,
			"byteOffset":222144,
			"target":34962
		},
		{
			"buffer":0,
			"byteLength":14484,
			"byteOffset":260768,
			"target":34963
		},
		{
			"buffer":0,
			"byteLength":22416,
			"byteOffset":275252,
			"target":34962
		},
		{
			"buffer":0,
			"byteLength":22416,
			"byteOffset":297668,
			"target":34962
		},
		{
			"buffer":0,
			"byteLength":14944,
			"byteOffset":320084,
			"target":34962
		},
		{
			"buffer":0,
			"byteLength":5604,
			"byteOffset":335028,
			"target":34963
		},
		{
			"buffer":0,
			"byteLength":21168,
			"byteOffset":340632,
			"target":34962
		},
		{
			"buffer":0,
			"byteLength":21168,
			"byteOffset":361800,
			"target":34962
		},
		{
			"buffer":0,
			"byteLength":14112,
			"byteOffset":382968,
			"target":34962
		},
		{
			"buffer":0,
			"byteLength":4536,
			"byteOffset":397080,
			"target":34963
		},
		{
			"buffer":0,
			"byteLength":82368,
			"byteOffset":401616,
			"target":34962
		},
		{
			"buffer":0,
			"byteLength":82368,
			"byteOffset":483984,
			"target":34962
		},
		{
			"buffer":0,
			"byteLength":54912,
			"byteOffset":566352,
			"target":34962
		},
		{
			"buffer":0,
			"byteLength":19800,
			"byteOffset":621264,
			"target":34963
		},
		{
			"buffer":0,
			"byteLength":16800,
			"byteOffset":641064,
			"target":34962
		},
		{
			"buffer":0,
			"byteLength":16800,
			"byteOffset":657864,
			"target":34962
		},
		{
			"buffer":0,
			"byteLength":11200,
			"byteOffset":674664,
			"target":34962
		},
		{
			"buffer":0,
			"byteLength":3600,
			"byteOffset":685864,
			"target":34963
		},
		{
			"buffer":0,
			"byteLength":22848,
			"byteOffset":689464,
			"target":34962
		},
		{
			"buffer":0,
			"byteLength":22848,
			"byteOffset":712312,
			"target":34962
		},
		{
			"buffer":0,
			"byteLength":15232,
			"byteOffset":735160,
			"target":34962
		},
		{
			"buffer":0,
			"byteLength":4896,
			"byteOffset":750392,
			"target":34963
		},
		{
			"buffer":0,
			"byteLength":20160,
			"byteOffset":755288,
			"target":34962
		},
		{
			"buffer":0,
			"byteLength":20160,
			"byteOffset":775448,
			"target":34962
		},
		{
			"buffer":0,
			"byteLength":13440,
			"byteOffset":795608,
			"target":34962
		},
		{
			"buffer":0,
			"byteLength":4320,
			"byteOffset":809048,
			"target":34963
		},
		{
			"buffer":0,
			"byteLength":58320,
			"byteOffset":813368,
			"target":34962
		},
		{
			"buffer":0,
			"byteLength":58320,
			"byteOffset":871688,
			"target":34962
		},
		{
			"buffer":0,
			"byteLength":38880,
			"byteOffset":930008,
			"target":34962
		},
		{
			"buffer":0,
			"byteLength":14580,
			"byteOffset":968888,
			"target":34963
		},
		{
			"buffer":0,
			"byteLength":48576,
			"byteOffset":983468,
			"target":34962
		},
		{
			"buffer":0,
			"byteLength":48576,
			"byteOffset":1032044,
			"target":34962
		},
		{
			"buffer":0,
			"byteLength":32384,
			"byteOffset":1080620,
			"target":34962
		},
		{
			"buffer":0,
			"byteLength":12144,
			"byteOffset":1113004,
			"target":34963
		},
		{
			"buffer":0,
			"byteLength":59232,
			"byteOffset":1125148,
			"target":34962
		},
		{
			"buffer":0,
			"byteLength":59232,
			"byteOffset":1184380,
			"target":34962
		},
		{
			"buffer":0,
			"byteLength":39488,
			"byteOffset":1243612,
			"target":34962
		},
		{
			"buffer":0,
			"byteLength":14808,
			"byteOffset":1283100,
			"target":34963
		},
		{
			"buffer":0,
			"byteLength":59520,
			"byteOffset":1297908,
			"target":34962
		},
		{
			"buffer":0,
			"byteLength":59520,
			"byteOffset":1357428,
			"target":34962
		},
		{
			"buffer":0,
			"byteLength":39680,
			"byteOffset":1416948,
			"target":34962
		},
		{
			"buffer":0,
			"byteLength":14880,
			"byteOffset":1456628,
			"target":34963
		},
		{
			"buffer":0,
			"byteLength":56448,
			"byteOffset":1471508,
			"target":34962
		},
		{
			"buffer":0,
			"byteLength":56448,
			"byteOffset":1527956,
			"target":34962
		},
		{
			"buffer":0,
			"byteLength":14112,
			"byteOffset":1584404,
			"target":34963
		}
	],
	"samplers":[
		{
			"magFilter":9729,
			"minFilter":9987
		}
	],
	"buffers":[
		{
			"byteLength":1598516,
			"uri":"city_houses.bin"
		}
	]
}
