{
  "accessors": [
    {
      "bufferView": 2,
      "componentType": 5126,
      "count": 2749,
      "max": [
        404.3132019042969,
        1104.7265625,
        493.05133056640625
      ],
      "min": [
        -331.9820251464844,
        -631.695068359375,
        0.5759592056274414
      ],
      "type": "VEC3"
    },
    {
      "bufferView": 2,
      "byteOffset": 32988,
      "componentType": 5126,
      "count": 2749,
      "max": [
        1.0,
        1.0,
        1.0
      ],
      "min": [
        -1.0,
        -1.0,
        -1.0
      ],
      "type": "VEC3"
    },
    {
      "bufferView": 3,
      "componentType": 5126,
      "count": 2749,
      "max": [
        1.0,
        1.0,
        1.0,
        1.0
      ],
      "min": [
        -1.0,
        -1.0,
        -1.0,
        1.0
      ],
      "type": "VEC4"
    },
    {
      "bufferView": 1,
      "componentType": 5126,
      "count": 2749,
      "max": [
        0.9958539009094238,
        0.994922935962677
      ],
      "min": [
        0.0005000017117708921,
        0.0005000000237487257
      ],
      "type": "VEC2"
    },
    {
      "bufferView": 1,
      "byteOffset": 21992,
      "componentType": 5126,
      "count": 2749,
      "max": [
        0.9926740527153015,
        0.999500036239624
      ],
      "min": [
        0.0005000000237487257,
        0.0005000000237487257
      ],
      "type": "VEC2"
    },
    {
      "bufferView": 1,
      "byteOffset": 43984,
      "componentType": 5126,
      "count": 2749,
      "max": [
        0.940019965171814,
        0.6925072073936462
      ],
      "min": [
        0.05998027324676514,
        0.30749285221099854
      ],
      "type": "VEC2"
    },
    {
      "bufferView": 0,
      "componentType": 5125,
      "count": 8733,
      "type": "SCALAR"
    }
  ],
  "asset": {
    "extras": {
      "author": "VladIG_CG (https://sketchfab.com/VladIG_CG)",
      "license": "CC-BY-4.0 (http://creativecommons.org/licenses/by/4.0/)",
      "source": "https://sketchfab.com/3d-models/10mm-ammo-box-d6f4264eb14b4ee88c1ecd0252129fd1",
      "title": "10mm Ammo Box"
    },
    "generator": "Sketchfab-14.77.0",
    "version": "2.0"
  },
  "bufferViews": [
    {
      "buffer": 0,
      "byteLength": 34932,
      "name": "floatBufferViews",
      "target": 34963
    },
    {
      "buffer": 0,
      "byteLength": 65976,
      "byteOffset": 34932,
      "byteStride": 8,
      "name": "floatBufferViews",
      "target": 34962
    },
    {
      "buffer": 0,
      "byteLength": 65976,
      "byteOffset": 100908,
      "byteStride": 12,
      "name": "floatBufferViews",
      "target": 34962
    },
    {
      "buffer": 0,
      "byteLength": 43984,
      "byteOffset": 166884,
      "byteStride": 16,
      "name": "floatBufferViews",
      "target": 34962
    }
  ],
  "buffers": [
    {
      "byteLength": 210868,
      "uri": "scene.bin"
    }
  ],
  "extensionsUsed": [
    "KHR_materials_clearcoat"
  ],
  "images": [
    {
      "uri": "textures/AmmoBox_baseColor.png"
    },
    {
      "uri": "textures/AmmoBox_metallicRoughness.png"
    },
    {
      "uri": "textures/AmmoBox_normal.png"
    },
    {
      "uri": "textures/AmmoBox_clearcoat.png"
    }
  ],
  "materials": [
    {
      "doubleSided": true,
      "extensions": {
        "KHR_materials_clearcoat": {
          "clearcoatFactor": 1.0,
          "clearcoatRoughnessFactor": 0.12,
          "clearcoatTexture": {
            "index": 3
          }
        }
      },
      "name": "AmmoBox",
      "normalTexture": {
        "index": 2
      },
      "occlusionTexture": {
        "index": 1,
        "texCoord": 1
      },
      "pbrMetallicRoughness": {
        "baseColorTexture": {
          "index": 0
        },
        "metallicRoughnessTexture": {
          "index": 1
        }
      }
    }
  ],
  "meshes": [
    {
      "name": "10mmAmmoBox_01_AmmoBox_0",
      "primitives": [
        {
          "attributes": {
            "NORMAL": 1,
            "POSITION": 0,
            "TANGENT": 2,
            "TEXCOORD_0": 3,
            "TEXCOORD_1": 4,
            "TEXCOORD_2": 5
          },
          "indices": 6,
          "material": 0,
          "mode": 4
        }
      ]
    }
  ],
  "nodes": [
    {
      "children": [
        1
      ],
      "matrix": [
        0.1295282542705536,
        0.0,
        0.0,
        0.0,
        0.0,
        2.876105004613407e-17,
        -0.1295282542705536,
        0.0,
        0.0,
        0.1295282542705536,
        2.876105004613407e-17,
        0.0,
        0.0,
        0.0,
        0.0,
        1.0
      ],
      "name": "Sketchfab_model"
    },
    {
      "children": [
        2
      ],
      "matrix": [
        0.0010000000474974513,
        0.0,
        0.0,
        0.0,
        0.0,
        0.0,
        0.0010000000474974513,
        0.0,
        0.0,
        -0.0010000000474974513,
        0.0,
        0.0,
        0.0,
        0.0,
        0.0,
        1.0
      ],
      "name": "10mmAmmoBox_done_01.fbx"
    },
    {
      "children": [
        3
      ],
      "name": "RootNode"
    },
    {
      "children": [
        4
      ],
      "matrix": [
        1.0,
        0.0,
        0.0,
        0.0,
        0.0,
        2.220446049250313e-16,
        -1.0,
        0.0,
        0.0,
        1.0,
        2.220446049250313e-16,
        0.0,
        0.0,
        -276.5455017089844,
        0.0,
        1.0
      ],
      "name": "10mmAmmoBox_01"
    },
    {
      "children": [
        5
      ],
      "matrix": [
        1.0,
        0.0,
        -0.0,
        0.0,
        0.0,
        1.0,
        0.0,
        0.0,
        0.0,
        0.0,
        1.0,
        0.0,
        6.3125,
        0.0,
        -0.954498291015625,
        1.0
      ],
      "name": "Object_4"
    },
    {
      "mesh": 0,
      "name": "10mmAmmoBox_01_AmmoBox_0"
    }
  ],
  "samplers": [
    {
      "magFilter": 9729,
      "minFilter": 9987,
      "wrapS": 10497,
      "wrapT": 10497
    }
  ],
  "scene": 0,
  "scenes": [
    {
      "name": "Sketchfab_Scene",
      "nodes": [
        0
      ]
    }
  ],
  "textures": [
    {
      "sampler": 0,
      "source": 0
    },
    {
      "sampler": 0,
      "source": 1
    },
    {
      "sampler": 0,
      "source": 2
    },
    {
      "sampler": 0,
      "source": 3
    }
  ]
}
