{
	"asset":{
		"generator":"Khronos glTF Blender I/O v5.2.40",
		"version":"2.0"
	},
	"scene":0,
	"scenes":[
		{
			"name":"Scene",
			"nodes":[
				0
			]
		}
	],
	"nodes":[
		{
			"mesh":0,
			"name":"planter_box_03"
		}
	],
	"materials":[
		{
			"doubleSided":true,
			"name":"planter_box_03",
			"normalTexture":{
				"index":0
			},
			"pbrMetallicRoughness":{
				"baseColorTexture":{
					"index":1
				},
				"metallicRoughnessTexture":{
					"index":2
				}
			}
		}
	],
	"meshes":[
		{
			"name":"Plane.002",
			"primitives":[
				{
					"attributes":{
						"POSITION":0,
						"NORMAL":1,
						"TEXCOORD_0":2
					},
					"indices":3,
					"material":0
				}
			]
		}
	],
	"textures":[
		{
			"sampler":0,
			"source":0
		},
		{
			"sampler":0,
			"source":1
		},
		{
			"sampler":0,
			"source":2
		}
	],
	"images":[
		{
			"mimeType":"image/jpeg",
			"name":"planter_box_03_nor_gl_1k",
			"uri":"textures/planter_box_03_nor_gl_1k.jpg"
		},
		{
			"mimeType":"image/jpeg",
			"name":"planter_box_03_diff_1k",
			"uri":"textures/planter_box_03_diff_1k.jpg"
		},
		{
			"mimeType":"image/jpeg",
			"name":"planter_box_03_arm_1k",
			"uri":"textures/planter_box_03_arm_1k.jpg"
		}
	],
	"accessors":[
		{
			"bufferView":0,
			"componentType":5126,
			"count":5892,
			"max":[
				0.4572415351867676,
				0.8553586006164551,
				0.3270646035671234
			],
			"min":[
				-0.45733642578125,
				-0.0001202257553813979,
				-0.32859164476394653
			],
			"type":"VEC3"
		},
		{
			"bufferView":1,
			"componentType":5126,
			"count":5892,
			"type":"VEC3"
		},
		{
			"bufferView":2,
			"componentType":5126,
			"count":5892,
			"type":"VEC2"
		},
		{
			"bufferView":3,
			"componentType":5123,
			"count":18000,
			"type":"SCALAR"
		}
	],
	"bufferViews":[
		{
			"buffer":0,
			"byteLength":70704,
			"byteOffset":0,
			"target":34962
		},
		{
			"buffer":0,
			"byteLength":70704,
			"byteOffset":70704,
			"target":34962
		},
		{
			"buffer":0,
			"byteLength":47136,
			"byteOffset":141408,
			"target":34962
		},
		{
			"buffer":0,
			"byteLength":36000,
			"byteOffset":188544,
			"target":34963
		}
	],
	"samplers":[
		{
			"magFilter":9729,
			"minFilter":9987
		}
	],
	"buffers":[
		{
			"byteLength":224544,
			"uri":"planter_box_03_1k.bin"
		}
	]
}
