{
	"asset":{
		"generator":"Khronos glTF Blender I/O v5.2.40",
		"version":"2.0"
	},
	"scene":0,
	"scenes":[
		{
			"name":"Scene",
			"nodes":[
				0
			]
		}
	],
	"nodes":[
		{
			"mesh":0,
			"name":"exterior_aircon_unit_rusted",
			"translation":[
				0.5,
				0,
				0
			]
		}
	],
	"materials":[
		{
			"doubleSided":true,
			"name":"exterior_aircon_unit_rusted_01",
			"normalTexture":{
				"index":0
			},
			"pbrMetallicRoughness":{
				"baseColorTexture":{
					"index":1
				},
				"metallicRoughnessTexture":{
					"index":2
				}
			}
		},
		{
			"alphaMode":"BLEND",
			"doubleSided":true,
			"name":"exterior_aircon_unit_rusted_02",
			"normalTexture":{
				"index":3
			},
			"pbrMetallicRoughness":{
				"baseColorTexture":{
					"index":4
				},
				"metallicRoughnessTexture":{
					"index":5
				}
			}
		}
	],
	"meshes":[
		{
			"name":"exterior_aircon_unit_rusted",
			"primitives":[
				{
					"attributes":{
						"POSITION":0,
						"NORMAL":1,
						"TEXCOORD_0":2
					},
					"indices":3,
					"material":0
				},
				{
					"attributes":{
						"POSITION":4,
						"NORMAL":5,
						"TEXCOORD_0":6
					},
					"indices":7,
					"material":1
				}
			]
		}
	],
	"textures":[
		{
			"sampler":0,
			"source":0
		},
		{
			"sampler":0,
			"source":1
		},
		{
			"sampler":0,
			"source":2
		},
		{
			"sampler":0,
			"source":3
		},
		{
			"sampler":0,
			"source":4
		},
		{
			"sampler":0,
			"source":5
		}
	],
	"images":[
		{
			"mimeType":"image/jpeg",
			"name":"exterior_aircon_unit_rusted_01_nor_gl_1k",
			"uri":"textures/exterior_aircon_unit_rusted_01_nor_gl_1k.jpg"
		},
		{
			"mimeType":"image/jpeg",
			"name":"exterior_aircon_unit_rusted_01_diff_1k",
			"uri":"textures/exterior_aircon_unit_rusted_01_diff_1k.jpg"
		},
		{
			"mimeType":"image/jpeg",
			"name":"exterior_aircon_unit_rusted_01_arm_1k",
			"uri":"textures/exterior_aircon_unit_rusted_01_arm_1k.jpg"
		},
		{
			"mimeType":"image/jpeg",
			"name":"exterior_aircon_unit_rusted_02_nor_gl_1k",
			"uri":"textures/exterior_aircon_unit_rusted_02_nor_gl_1k.jpg"
		},
		{
			"mimeType":"image/png",
			"name":"exterior_aircon_unit_rusted_02_opacity_1k",
			"uri":"textures/exterior_aircon_unit_rusted_02_opacity_1k.png"
		},
		{
			"mimeType":"image/jpeg",
			"name":"exterior_aircon_unit_rusted_02_arm_1k",
			"uri":"textures/exterior_aircon_unit_rusted_02_arm_1k.jpg"
		}
	],
	"accessors":[
		{
			"bufferView":0,
			"componentType":5126,
			"count":4221,
			"max":[
				0.4076138436794281,
				0.6078535318374634,
				0.15819303691387177
			],
			"min":[
				-0.39270249009132385,
				-0.32006561756134033,
				-0.21596837043762207
			],
			"type":"VEC3"
		},
		{
			"bufferView":1,
			"componentType":5126,
			"count":4221,
			"type":"VEC3"
		},
		{
			"bufferView":2,
			"componentType":5126,
			"count":4221,
			"type":"VEC2"
		},
		{
			"bufferView":3,
			"componentType":5123,
			"count":14868,
			"type":"SCALAR"
		},
		{
			"bufferView":4,
			"componentType":5126,
			"count":50,
			"max":[
				0.25292447209358215,
				0.5876679420471191,
				0.06807062774896622
			],
			"min":[
				-0.37436529994010925,
				0.12634438276290894,
				-0.09422696381807327
			],
			"type":"VEC3"
		},
		{
			"bufferView":5,
			"componentType":5126,
			"count":50,
			"type":"VEC3"
		},
		{
			"bufferView":6,
			"componentType":5126,
			"count":50,
			"type":"VEC2"
		},
		{
			"bufferView":7,
			"componentType":5123,
			"count":132,
			"type":"SCALAR"
		}
	],
	"bufferViews":[
		{
			"buffer":0,
			"byteLength":50652,
			"byteOffset":0,
			"target":34962
		},
		{
			"buffer":0,
			"byteLength":50652,
			"byteOffset":50652,
			"target":34962
		},
		{
			"buffer":0,
			"byteLength":33768,
			"byteOffset":101304,
			"target":34962
		},
		{
			"buffer":0,
			"byteLength":29736,
			"byteOffset":135072,
			"target":34963
		},
		{
			"buffer":0,
			"byteLength":600,
			"byteOffset":164808,
			"target":34962
		},
		{
			"buffer":0,
			"byteLength":600,
			"byteOffset":165408,
			"target":34962
		},
		{
			"buffer":0,
			"byteLength":400,
			"byteOffset":166008,
			"target":34962
		},
		{
			"buffer":0,
			"byteLength":264,
			"byteOffset":166408,
			"target":34963
		}
	],
	"samplers":[
		{
			"magFilter":9729,
			"minFilter":9987
		}
	],
	"buffers":[
		{
			"byteLength":166672,
			"uri":"exterior_aircon_unit_1k.bin"
		}
	]
}
