{"asset":{"version":"2.0","generator":"red-valve/hospital"},"scene":0,"scenes":[{"nodes":[0]}],"nodes":[{"name":"bulbo_5cc96b1375","mesh":0}],"meshes":[{"name":"bulbo_5cc96b1375","primitives":[{"attributes":{"POSITION":0,"NORMAL":1,"TEXCOORD_0":2},"indices":3,"material":0},{"attributes":{"POSITION":4,"NORMAL":5,"TEXCOORD_0":6},"indices":7,"material":3},{"attributes":{"POSITION":8,"NORMAL":9,"TEXCOORD_0":10},"indices":11,"material":10}]}],"materials":[{"name":"lum_bulbo","pbrMetallicRoughness":{"baseColorFactor":[0.92,0.8,0.56,1.0],"metallicFactor":0.0,"roughnessFactor":0.22},"doubleSided":false,"emissiveFactor":[1.0,0.62,0.26]},{"name":"lum_bulbo_morto","pbrMetallicRoughness":{"baseColorFactor":[0.34,0.31,0.26,1.0],"metallicFactor":0.0,"roughnessFactor":0.5},"doubleSided":false},{"name":"lum_corpo","pbrMetallicRoughness":{"baseColorFactor":[0.58,0.59,0.57,1.0],"metallicFactor":0.4,"roughnessFactor":0.55},"doubleSided":false},{"name":"lum_fio","pbrMetallicRoughness":{"baseColorFactor":[0.1,0.09,0.08,1.0],"metallicFactor":0.0,"roughnessFactor":0.8},"doubleSided":false},{"name":"lum_tubo_aceso","pbrMetallicRoughness":{"baseColorFactor":[0.88,0.93,0.88,1.0],"metallicFactor":0.0,"roughnessFactor":0.25},"doubleSided":false,"emissiveFactor":[0.7,0.86,0.74]},{"name":"lum_tubo_morto","pbrMetallicRoughness":{"baseColorFactor":[0.4,0.42,0.4,1.0],"metallicFactor":0.0,"roughnessFactor":0.45},"doubleSided":false},{"name":"lum_vermelha","pbrMetallicRoughness":{"baseColorFactor":[0.58,0.1,0.08,1.0],"metallicFactor":0.0,"roughnessFactor":0.4},"doubleSided":false,"emissiveFactor":[0.88,0.1,0.06]},{"name":"po_cascalho","pbrMetallicRoughness":{"baseColorFactor":[0.44,0.39,0.32,1.0],"metallicFactor":0.0,"roughnessFactor":1.0,"baseColorTexture":{"index":0},"metallicRoughnessTexture":{"index":1}},"doubleSided":false,"occlusionTexture":{"index":1},"normalTexture":{"index":2}},{"name":"po_chao","pbrMetallicRoughness":{"baseColorFactor":[0.46,0.38,0.28,1.0],"metallicFactor":0.0,"roughnessFactor":1.0,"baseColorTexture":{"index":3},"metallicRoughnessTexture":{"index":4}},"doubleSided":false,"occlusionTexture":{"index":4},"normalTexture":{"index":5}},{"name":"po_escuro","pbrMetallicRoughness":{"baseColorFactor":[0.01,0.01,0.012,1.0],"metallicFactor":0.0,"roughnessFactor":0.95},"doubleSided":false},{"name":"po_ferro","pbrMetallicRoughness":{"baseColorFactor":[0.36,0.3,0.25,1.0],"metallicFactor":0.6,"roughnessFactor":0.68,"baseColorTexture":{"index":6},"metallicRoughnessTexture":{"index":7}},"doubleSided":false,"occlusionTexture":{"index":7},"normalTexture":{"index":8}},{"name":"po_pedra","pbrMetallicRoughness":{"baseColorFactor":[0.42,0.4,0.37,1.0],"metallicFactor":0.0,"roughnessFactor":0.98,"baseColorTexture":{"index":9},"metallicRoughnessTexture":{"index":10}},"doubleSided":false,"occlusionTexture":{"index":10},"normalTexture":{"index":11}},{"name":"po_raiz","pbrMetallicRoughness":{"baseColorFactor":[0.22,0.18,0.12,1.0],"metallicFactor":0.0,"roughnessFactor":0.96},"doubleSided":false},{"name":"po_tabua","pbrMetallicRoughness":{"baseColorFactor":[0.34,0.26,0.18,1.0],"metallicFactor":0.0,"roughnessFactor":0.94,"baseColorTexture":{"index":12},"metallicRoughnessTexture":{"index":13}},"doubleSided":false,"occlusionTexture":{"index":13},"normalTexture":{"index":14}},{"name":"po_terra","pbrMetallicRoughness":{"baseColorFactor":[0.4,0.31,0.22,1.0],"metallicFactor":0.0,"roughnessFactor":1.0,"baseColorTexture":{"index":15},"metallicRoughnessTexture":{"index":16}},"doubleSided":false,"occlusionTexture":{"index":16},"normalTexture":{"index":17}},{"name":"po_teto","pbrMetallicRoughness":{"baseColorFactor":[0.3,0.24,0.18,1.0],"metallicFactor":0.0,"roughnessFactor":1.0,"baseColorTexture":{"index":15},"metallicRoughnessTexture":{"index":16}},"doubleSided":false,"occlusionTexture":{"index":16},"normalTexture":{"index":17}}],"accessors":[{"bufferView":0,"componentType":5126,"count":24,"type":"VEC3","min":[-0.05,-0.55,-0.05],"max":[0.05,-0.45,0.05]},{"bufferView":1,"componentType":5126,"count":24,"type":"VEC3","min":[-1.0,-1,-1.0],"max":[1.0,1,1.0]},{"bufferView":2,"componentType":5126,"count":24,"type":"VEC2","min":[0.0,0.0],"max":[1.0,1.0]},{"bufferView":3,"componentType":5125,"count":36,"type":"SCALAR"},{"bufferView":4,"componentType":5126,"count":24,"type":"VEC3","min":[-0.006,-0.55,-0.006],"max":[0.006,0.0,0.006]},{"bufferView":5,"componentType":5126,"count":24,"type":"VEC3","min":[-1.0,-1,-1.0],"max":[1.0,1,1.0]},{"bufferView":6,"componentType":5126,"count":24,"type":"VEC2","min":[0.0,0.0],"max":[1.0,1.0]},{"bufferView":7,"componentType":5125,"count":36,"type":"SCALAR"},{"bufferView":8,"componentType":5126,"count":24,"type":"VEC3","min":[-0.025,-0.45500000000000007,-0.025],"max":[0.025,-0.385,0.025]},{"bufferView":9,"componentType":5126,"count":24,"type":"VEC3","min":[-1.0,-1,-1.0],"max":[1.0,1,1.0]},{"bufferView":10,"componentType":5126,"count":24,"type":"VEC2","min":[0.0,0.0],"max":[1.0,1.0]},{"bufferView":11,"componentType":5125,"count":36,"type":"SCALAR"}],"bufferViews":[{"buffer":0,"byteOffset":0,"byteLength":288,"target":34962},{"buffer":0,"byteOffset":288,"byteLength":288,"target":34962},{"buffer":0,"byteOffset":576,"byteLength":192,"target":34962},{"buffer":0,"byteOffset":768,"byteLength":144,"target":34963},{"buffer":0,"byteOffset":912,"byteLength":288,"target":34962},{"buffer":0,"byteOffset":1200,"byteLength":288,"target":34962},{"buffer":0,"byteOffset":1488,"byteLength":192,"target":34962},{"buffer":0,"byteOffset":1680,"byteLength":144,"target":34963},{"buffer":0,"byteOffset":1824,"byteLength":288,"target":34962},{"buffer":0,"byteOffset":2112,"byteLength":288,"target":34962},{"buffer":0,"byteOffset":2400,"byteLength":192,"target":34962},{"buffer":0,"byteOffset":2592,"byteLength":144,"target":34963}],"buffers":[{"uri":"bulbo_5cc96b1375.bin","byteLength":2736}],"images":[{"uri":"../../../../images/textures/polyhaven/rocky_trail_02_diff.jpg"},{"uri":"../../../../images/textures/polyhaven/rocky_trail_02_arm.jpg"},{"uri":"../../../../images/textures/polyhaven/rocky_trail_02_nor_gl.jpg"},{"uri":"../../../../images/textures/polyhaven/mud_cracked_dry_03_diff.jpg"},{"uri":"../../../../images/textures/polyhaven/mud_cracked_dry_03_arm.jpg"},{"uri":"../../../../images/textures/polyhaven/mud_cracked_dry_03_nor_gl.jpg"},{"uri":"../../../../images/textures/polyhaven/rusty_metal_02_diff.jpg"},{"uri":"../../../../images/textures/polyhaven/rusty_metal_02_arm.jpg"},{"uri":"../../../../images/textures/polyhaven/rusty_metal_02_nor_gl.jpg"},{"uri":"../../../../images/textures/polyhaven/rock_wall_08_diff.jpg"},{"uri":"../../../../images/textures/polyhaven/rock_wall_08_arm.jpg"},{"uri":"../../../../images/textures/polyhaven/rock_wall_08_nor_gl.jpg"},{"uri":"../../../../images/textures/polyhaven/weathered_brown_planks_diff.jpg"},{"uri":"../../../../images/textures/polyhaven/weathered_brown_planks_arm.jpg"},{"uri":"../../../../images/textures/polyhaven/weathered_brown_planks_nor_gl.jpg"},{"uri":"../../../../images/textures/polyhaven/brown_mud_02_diff.jpg"},{"uri":"../../../../images/textures/polyhaven/brown_mud_02_arm.jpg"},{"uri":"../../../../images/textures/polyhaven/brown_mud_02_nor_gl.jpg"}],"textures":[{"source":0},{"source":1},{"source":2},{"source":3},{"source":4},{"source":5},{"source":6},{"source":7},{"source":8},{"source":9},{"source":10},{"source":11},{"source":12},{"source":13},{"source":14},{"source":15},{"source":16},{"source":17}]}