{
	"asset":{
		"generator":"Khronos glTF Blender I/O v5.2.40",
		"version":"2.0"
	},
	"scene":0,
	"scenes":[
		{
			"name":"Scene",
			"nodes":[
				0
			]
		}
	],
	"nodes":[
		{
			"mesh":0,
			"name":"wooden_picnic_table"
		}
	],
	"materials":[
		{
			"doubleSided":true,
			"name":"wooden_picnic_table_bottom",
			"normalTexture":{
				"index":0
			},
			"pbrMetallicRoughness":{
				"baseColorTexture":{
					"index":1
				},
				"metallicRoughnessTexture":{
					"index":2
				}
			}
		},
		{
			"doubleSided":true,
			"name":"wooden_picnic_table_table",
			"normalTexture":{
				"index":3
			},
			"pbrMetallicRoughness":{
				"baseColorTexture":{
					"index":4
				},
				"metallicRoughnessTexture":{
					"index":5
				}
			}
		}
	],
	"meshes":[
		{
			"name":"Cube.003",
			"primitives":[
				{
					"attributes":{
						"POSITION":0,
						"NORMAL":1,
						"TEXCOORD_0":2
					},
					"indices":3,
					"material":0
				},
				{
					"attributes":{
						"POSITION":4,
						"NORMAL":5,
						"TEXCOORD_0":6
					},
					"indices":7,
					"material":1
				}
			]
		}
	],
	"textures":[
		{
			"sampler":0,
			"source":0
		},
		{
			"sampler":0,
			"source":1
		},
		{
			"sampler":0,
			"source":2
		},
		{
			"sampler":0,
			"source":3
		},
		{
			"sampler":0,
			"source":4
		},
		{
			"sampler":0,
			"source":5
		}
	],
	"images":[
		{
			"mimeType":"image/jpeg",
			"name":"wooden_picnic_table_bottom_nor_gl_1k",
			"uri":"textures/wooden_picnic_table_bottom_nor_gl_1k.jpg"
		},
		{
			"mimeType":"image/jpeg",
			"name":"wooden_picnic_table_bottom_diff_1k",
			"uri":"textures/wooden_picnic_table_bottom_diff_1k.jpg"
		},
		{
			"mimeType":"image/jpeg",
			"name":"wooden_picnic_table_bottom_arm_1k",
			"uri":"textures/wooden_picnic_table_bottom_arm_1k.jpg"
		},
		{
			"mimeType":"image/jpeg",
			"name":"wooden_picnic_table_top_nor_gl_1k",
			"uri":"textures/wooden_picnic_table_top_nor_gl_1k.jpg"
		},
		{
			"mimeType":"image/jpeg",
			"name":"wooden_picnic_table_top_diff_1k",
			"uri":"textures/wooden_picnic_table_top_diff_1k.jpg"
		},
		{
			"mimeType":"image/jpeg",
			"name":"wooden_picnic_table_top_arm_1k",
			"uri":"textures/wooden_picnic_table_top_arm_1k.jpg"
		}
	],
	"accessors":[
		{
			"bufferView":0,
			"componentType":5126,
			"count":1765,
			"max":[
				1.1197271347045898,
				0.7037535905838013,
				1.520809531211853
			],
			"min":[
				-1.1212488412857056,
				-0.0002588331699371338,
				-1.501520037651062
			],
			"type":"VEC3"
		},
		{
			"bufferView":1,
			"componentType":5126,
			"count":1765,
			"type":"VEC3"
		},
		{
			"bufferView":2,
			"componentType":5126,
			"count":1765,
			"type":"VEC2"
		},
		{
			"bufferView":3,
			"componentType":5123,
			"count":5001,
			"type":"SCALAR"
		},
		{
			"bufferView":4,
			"componentType":5126,
			"count":2821,
			"max":[
				0.617218554019928,
				0.745728075504303,
				1.4567949771881104
			],
			"min":[
				-0.6282728910446167,
				0.6976591348648071,
				-1.4655265808105469
			],
			"type":"VEC3"
		},
		{
			"bufferView":5,
			"componentType":5126,
			"count":2821,
			"type":"VEC3"
		},
		{
			"bufferView":6,
			"componentType":5126,
			"count":2821,
			"type":"VEC2"
		},
		{
			"bufferView":7,
			"componentType":5123,
			"count":12996,
			"type":"SCALAR"
		}
	],
	"bufferViews":[
		{
			"buffer":0,
			"byteLength":21180,
			"byteOffset":0,
			"target":34962
		},
		{
			"buffer":0,
			"byteLength":21180,
			"byteOffset":21180,
			"target":34962
		},
		{
			"buffer":0,
			"byteLength":14120,
			"byteOffset":42360,
			"target":34962
		},
		{
			"buffer":0,
			"byteLength":10002,
			"byteOffset":56480,
			"target":34963
		},
		{
			"buffer":0,
			"byteLength":33852,
			"byteOffset":66484,
			"target":34962
		},
		{
			"buffer":0,
			"byteLength":33852,
			"byteOffset":100336,
			"target":34962
		},
		{
			"buffer":0,
			"byteLength":22568,
			"byteOffset":134188,
			"target":34962
		},
		{
			"buffer":0,
			"byteLength":25992,
			"byteOffset":156756,
			"target":34963
		}
	],
	"samplers":[
		{
			"magFilter":9729,
			"minFilter":9987
		}
	],
	"buffers":[
		{
			"byteLength":182748,
			"uri":"wooden_picnic_table_1k.bin"
		}
	]
}
