{"asset":{"version":"2.0","generator":"red-valve/hospital"},"scene":0,"scenes":[{"nodes":[0]}],"nodes":[{"name":"mov_bc41249da9","mesh":0}],"meshes":[{"name":"mov_bc41249da9","primitives":[{"attributes":{"POSITION":0,"NORMAL":1,"TEXCOORD_0":2},"indices":3,"material":14},{"attributes":{"POSITION":4,"NORMAL":5,"TEXCOORD_0":6},"indices":7,"material":18},{"attributes":{"POSITION":8,"NORMAL":9,"TEXCOORD_0":10},"indices":11,"material":21}]}],"materials":[{"name":"escuro","pbrMetallicRoughness":{"baseColorFactor":[0.015,0.015,0.02,1.0],"metallicFactor":0.0,"roughnessFactor":0.95},"doubleSided":false},{"name":"esquadria","pbrMetallicRoughness":{"baseColorFactor":[0.28,0.29,0.28,1.0],"metallicFactor":0.35,"roughnessFactor":0.55},"doubleSided":false},{"name":"ferro","pbrMetallicRoughness":{"baseColorFactor":[0.42,0.36,0.3,1.0],"metallicFactor":0.7,"roughnessFactor":0.55,"baseColorTexture":{"index":0},"metallicRoughnessTexture":{"index":1}},"doubleSided":false,"occlusionTexture":{"index":1},"normalTexture":{"index":2}},{"name":"ferro_grade","pbrMetallicRoughness":{"baseColorFactor":[0.46,0.38,0.31,1.0],"metallicFactor":0.6,"roughnessFactor":0.62,"baseColorTexture":{"index":3},"metallicRoughnessTexture":{"index":4}},"doubleSided":true,"occlusionTexture":{"index":4},"normalTexture":{"index":5}},{"name":"friso","pbrMetallicRoughness":{"baseColorFactor":[0.2,0.3,0.3,1.0],"metallicFactor":0.1,"roughnessFactor":0.6},"doubleSided":false},{"name":"linha_quadra","pbrMetallicRoughness":{"baseColorFactor":[0.72,0.7,0.62,1.0],"metallicFactor":0.0,"roughnessFactor":0.75},"doubleSided":false,"emissiveFactor":[0.05,0.05,0.045]},{"name":"lum_bulbo","pbrMetallicRoughness":{"baseColorFactor":[0.92,0.8,0.56,1.0],"metallicFactor":0.0,"roughnessFactor":0.22},"doubleSided":false,"emissiveFactor":[1.0,0.62,0.26]},{"name":"lum_bulbo_morto","pbrMetallicRoughness":{"baseColorFactor":[0.34,0.31,0.26,1.0],"metallicFactor":0.0,"roughnessFactor":0.5},"doubleSided":false},{"name":"lum_corpo","pbrMetallicRoughness":{"baseColorFactor":[0.58,0.59,0.57,1.0],"metallicFactor":0.4,"roughnessFactor":0.55},"doubleSided":false},{"name":"lum_fio","pbrMetallicRoughness":{"baseColorFactor":[0.1,0.09,0.08,1.0],"metallicFactor":0.0,"roughnessFactor":0.8},"doubleSided":false},{"name":"lum_tubo_aceso","pbrMetallicRoughness":{"baseColorFactor":[0.88,0.93,0.88,1.0],"metallicFactor":0.0,"roughnessFactor":0.25},"doubleSided":false,"emissiveFactor":[0.7,0.86,0.74]},{"name":"lum_tubo_morto","pbrMetallicRoughness":{"baseColorFactor":[0.4,0.42,0.4,1.0],"metallicFactor":0.0,"roughnessFactor":0.45},"doubleSided":false},{"name":"lum_vermelha","pbrMetallicRoughness":{"baseColorFactor":[0.58,0.1,0.08,1.0],"metallicFactor":0.0,"roughnessFactor":0.4},"doubleSided":false,"emissiveFactor":[0.88,0.1,0.06]},{"name":"mat_borracha","pbrMetallicRoughness":{"baseColorFactor":[0.09,0.09,0.1,1.0],"metallicFactor":0.0,"roughnessFactor":0.92},"doubleSided":false},{"name":"mat_formica","pbrMetallicRoughness":{"baseColorFactor":[0.62,0.58,0.48,1.0],"metallicFactor":0.0,"roughnessFactor":0.58},"doubleSided":false},{"name":"mat_giz","pbrMetallicRoughness":{"baseColorFactor":[0.82,0.83,0.8,1.0],"metallicFactor":0.0,"roughnessFactor":0.92},"doubleSided":false},{"name":"mat_inox","pbrMetallicRoughness":{"baseColorFactor":[0.68,0.7,0.72,1.0],"metallicFactor":0.88,"roughnessFactor":0.34},"doubleSided":false},{"name":"mat_lousa","pbrMetallicRoughness":{"baseColorFactor":[0.07,0.15,0.11,1.0],"metallicFactor":0.05,"roughnessFactor":0.42},"doubleSided":false},{"name":"mat_madeira","pbrMetallicRoughness":{"baseColorFactor":[0.44,0.33,0.21,1.0],"metallicFactor":0.0,"roughnessFactor":0.74},"doubleSided":false},{"name":"mat_madeira_clara","pbrMetallicRoughness":{"baseColorFactor":[0.6,0.48,0.32,1.0],"metallicFactor":0.0,"roughnessFactor":0.72},"doubleSided":false},{"name":"mat_metal_claro","pbrMetallicRoughness":{"baseColorFactor":[0.56,0.58,0.55,1.0],"metallicFactor":0.05,"roughnessFactor":0.8},"doubleSided":false},{"name":"mat_metal_escuro","pbrMetallicRoughness":{"baseColorFactor":[0.19,0.2,0.22,1.0],"metallicFactor":0.1,"roughnessFactor":0.78},"doubleSided":false},{"name":"mat_papel","pbrMetallicRoughness":{"baseColorFactor":[0.66,0.62,0.52,1.0],"metallicFactor":0.0,"roughnessFactor":0.94},"doubleSided":false},{"name":"mat_placa","pbrMetallicRoughness":{"baseColorFactor":[0.58,0.6,0.58,1.0],"metallicFactor":0.0,"roughnessFactor":0.58},"doubleSided":false},{"name":"mat_plastico_azul","pbrMetallicRoughness":{"baseColorFactor":[0.16,0.26,0.38,1.0],"metallicFactor":0.0,"roughnessFactor":0.62},"doubleSided":false},{"name":"mat_plastico_verde","pbrMetallicRoughness":{"baseColorFactor":[0.18,0.3,0.22,1.0],"metallicFactor":0.0,"roughnessFactor":0.62},"doubleSided":false},{"name":"mat_rede","pbrMetallicRoughness":{"baseColorFactor":[0.58,0.58,0.54,1.0],"metallicFactor":0.0,"roughnessFactor":0.9},"doubleSided":true},{"name":"mat_seta","pbrMetallicRoughness":{"baseColorFactor":[0.08,0.32,0.2,1.0],"metallicFactor":0.0,"roughnessFactor":0.5},"doubleSided":false,"emissiveFactor":[0.05,0.42,0.22]},{"name":"mat_tela","pbrMetallicRoughness":{"baseColorFactor":[0.03,0.04,0.05,1.0],"metallicFactor":0.0,"roughnessFactor":0.25},"doubleSided":false},{"name":"mat_trave","pbrMetallicRoughness":{"baseColorFactor":[0.7,0.7,0.66,1.0],"metallicFactor":0.1,"roughnessFactor":0.52},"doubleSided":false},{"name":"mato","pbrMetallicRoughness":{"baseColorFactor":[0.26,0.31,0.21,1.0],"metallicFactor":0.0,"roughnessFactor":1.0,"baseColorTexture":{"index":6},"metallicRoughnessTexture":{"index":7}},"doubleSided":false,"occlusionTexture":{"index":7},"normalTexture":{"index":8}},{"name":"parede_alta","pbrMetallicRoughness":{"baseColorFactor":[0.72,0.71,0.66,1.0],"metallicFactor":0.0,"roughnessFactor":1.0,"baseColorTexture":{"index":9},"metallicRoughnessTexture":{"index":10}},"doubleSided":false,"occlusionTexture":{"index":10},"normalTexture":{"index":11}},{"name":"parede_alta_suja","pbrMetallicRoughness":{"baseColorFactor":[0.6,0.55,0.4,1.0],"metallicFactor":0.0,"roughnessFactor":1.0,"baseColorTexture":{"index":12},"metallicRoughnessTexture":{"index":13}},"doubleSided":false,"occlusionTexture":{"index":13},"normalTexture":{"index":14}},{"name":"parede_azulejo","pbrMetallicRoughness":{"baseColorFactor":[0.78,0.84,0.82,1.0],"metallicFactor":0.0,"roughnessFactor":1.0,"baseColorTexture":{"index":15},"metallicRoughnessTexture":{"index":16}},"doubleSided":false,"occlusionTexture":{"index":16},"normalTexture":{"index":17}},{"name":"parede_dado","pbrMetallicRoughness":{"baseColorFactor":[0.66,0.72,0.68,1.0],"metallicFactor":0.0,"roughnessFactor":1.0,"baseColorTexture":{"index":15},"metallicRoughnessTexture":{"index":16}},"doubleSided":false,"occlusionTexture":{"index":16},"normalTexture":{"index":17}},{"name":"parede_dado_azul","pbrMetallicRoughness":{"baseColorFactor":[0.44,0.58,0.66,1.0],"metallicFactor":0.0,"roughnessFactor":1.0,"baseColorTexture":{"index":15},"metallicRoughnessTexture":{"index":16}},"doubleSided":false,"occlusionTexture":{"index":16},"normalTexture":{"index":17}},{"name":"parede_patio","pbrMetallicRoughness":{"baseColorFactor":[0.5,0.49,0.44,1.0],"metallicFactor":0.0,"roughnessFactor":0.96,"baseColorTexture":{"index":18},"metallicRoughnessTexture":{"index":19}},"doubleSided":false,"occlusionTexture":{"index":19},"normalTexture":{"index":20}},{"name":"parede_tijolo","pbrMetallicRoughness":{"baseColorFactor":[0.36,0.28,0.24,1.0],"metallicFactor":0.0,"roughnessFactor":0.96,"baseColorTexture":{"index":21},"metallicRoughnessTexture":{"index":22}},"doubleSided":false,"occlusionTexture":{"index":22},"normalTexture":{"index":23}},{"name":"peitoril","pbrMetallicRoughness":{"baseColorFactor":[0.62,0.62,0.59,1.0],"metallicFactor":0.0,"roughnessFactor":0.85},"doubleSided":false},{"name":"piso_concreto","pbrMetallicRoughness":{"baseColorFactor":[0.46,0.46,0.45,1.0],"metallicFactor":0.0,"roughnessFactor":1.0,"baseColorTexture":{"index":24},"metallicRoughnessTexture":{"index":25}},"doubleSided":false,"occlusionTexture":{"index":25},"normalTexture":{"index":26}},{"name":"piso_corredor","pbrMetallicRoughness":{"baseColorFactor":[0.54,0.57,0.54,1.0],"metallicFactor":0.0,"roughnessFactor":1.0,"baseColorTexture":{"index":27},"metallicRoughnessTexture":{"index":28}},"doubleSided":false,"occlusionTexture":{"index":28},"normalTexture":{"index":29}},{"name":"piso_frio","pbrMetallicRoughness":{"baseColorFactor":[0.56,0.58,0.56,1.0],"metallicFactor":0.0,"roughnessFactor":1.0,"baseColorTexture":{"index":30},"metallicRoughnessTexture":{"index":31}},"doubleSided":false,"occlusionTexture":{"index":31},"normalTexture":{"index":32}},{"name":"piso_patio","pbrMetallicRoughness":{"baseColorFactor":[0.4,0.41,0.38,1.0],"metallicFactor":0.0,"roughnessFactor":1.0,"baseColorTexture":{"index":24},"metallicRoughnessTexture":{"index":25}},"doubleSided":false,"occlusionTexture":{"index":25},"normalTexture":{"index":26}},{"name":"piso_quadra","pbrMetallicRoughness":{"baseColorFactor":[0.33,0.37,0.35,1.0],"metallicFactor":0.0,"roughnessFactor":0.96,"baseColorTexture":{"index":33},"metallicRoughnessTexture":{"index":34}},"doubleSided":false,"occlusionTexture":{"index":34},"normalTexture":{"index":35}},{"name":"piso_sala","pbrMetallicRoughness":{"baseColorFactor":[0.46,0.38,0.3,1.0],"metallicFactor":0.0,"roughnessFactor":0.98,"baseColorTexture":{"index":36},"metallicRoughnessTexture":{"index":37}},"doubleSided":false,"occlusionTexture":{"index":37},"normalTexture":{"index":38}},{"name":"piso_servico","pbrMetallicRoughness":{"baseColorFactor":[0.5,0.5,0.48,1.0],"metallicFactor":0.0,"roughnessFactor":1.0,"baseColorTexture":{"index":39},"metallicRoughnessTexture":{"index":40}},"doubleSided":false,"occlusionTexture":{"index":40},"normalTexture":{"index":41}},{"name":"porta_folha","pbrMetallicRoughness":{"baseColorFactor":[0.4,0.33,0.25,1.0],"metallicFactor":0.0,"roughnessFactor":0.72,"baseColorTexture":{"index":42},"metallicRoughnessTexture":{"index":43}},"doubleSided":false,"occlusionTexture":{"index":43},"normalTexture":{"index":44}},{"name":"porta_metal","pbrMetallicRoughness":{"baseColorFactor":[0.5,0.5,0.48,1.0],"metallicFactor":0.65,"roughnessFactor":0.48,"baseColorTexture":{"index":0},"metallicRoughnessTexture":{"index":1}},"doubleSided":false,"occlusionTexture":{"index":1},"normalTexture":{"index":2}},{"name":"terra_buraco","pbrMetallicRoughness":{"baseColorFactor":[0.34,0.26,0.18,1.0],"metallicFactor":0.0,"roughnessFactor":1.0,"baseColorTexture":{"index":45},"metallicRoughnessTexture":{"index":46}},"doubleSided":false,"occlusionTexture":{"index":46},"normalTexture":{"index":47}},{"name":"teto","pbrMetallicRoughness":{"baseColorFactor":[0.7,0.7,0.67,1.0],"metallicFactor":0.0,"roughnessFactor":1.0,"baseColorTexture":{"index":48},"metallicRoughnessTexture":{"index":49}},"doubleSided":false,"occlusionTexture":{"index":49},"normalTexture":{"index":50}},{"name":"teto_concreto","pbrMetallicRoughness":{"baseColorFactor":[0.42,0.42,0.41,1.0],"metallicFactor":0.0,"roughnessFactor":1.0,"baseColorTexture":{"index":51},"metallicRoughnessTexture":{"index":52}},"doubleSided":false,"occlusionTexture":{"index":52},"normalTexture":{"index":53}},{"name":"vidro","pbrMetallicRoughness":{"baseColorFactor":[0.42,0.48,0.52,0.3],"metallicFactor":0.0,"roughnessFactor":0.12},"doubleSided":true,"alphaMode":"BLEND"},{"name":"vidro_caco","pbrMetallicRoughness":{"baseColorFactor":[0.5,0.56,0.58,0.18],"metallicFactor":0.2,"roughnessFactor":0.2},"doubleSided":true,"alphaMode":"BLEND"}],"accessors":[{"bufferView":0,"componentType":5126,"count":24,"type":"VEC3","min":[-2.5,0.84,-0.55],"max":[2.5,0.9,0.55]},{"bufferView":1,"componentType":5126,"count":24,"type":"VEC3","min":[-1.0,-1,-1.0],"max":[1.0,1,1.0]},{"bufferView":2,"componentType":5126,"count":24,"type":"VEC2","min":[0.0,0.0],"max":[1.0,1.0]},{"bufferView":3,"componentType":5125,"count":36,"type":"SCALAR"},{"bufferView":4,"componentType":5126,"count":24,"type":"VEC3","min":[-2.47,0.15000000000000002,-0.54],"max":[2.47,0.85,0.48]},{"bufferView":5,"componentType":5126,"count":24,"type":"VEC3","min":[-1.0,-1,-1.0],"max":[1.0,1,1.0]},{"bufferView":6,"componentType":5126,"count":24,"type":"VEC2","min":[0.0,0.0],"max":[1.0,1.0]},{"bufferView":7,"componentType":5125,"count":36,"type":"SCALAR"},{"bufferView":8,"componentType":5126,"count":24,"type":"VEC3","min":[-2.44,0.0,-0.5],"max":[2.44,0.12,0.44000000000000006]},{"bufferView":9,"componentType":5126,"count":24,"type":"VEC3","min":[-1.0,-1,-1.0],"max":[1.0,1,1.0]},{"bufferView":10,"componentType":5126,"count":24,"type":"VEC2","min":[0.0,0.0],"max":[1.0,1.0]},{"bufferView":11,"componentType":5125,"count":36,"type":"SCALAR"}],"bufferViews":[{"buffer":0,"byteOffset":0,"byteLength":288,"target":34962},{"buffer":0,"byteOffset":288,"byteLength":288,"target":34962},{"buffer":0,"byteOffset":576,"byteLength":192,"target":34962},{"buffer":0,"byteOffset":768,"byteLength":144,"target":34963},{"buffer":0,"byteOffset":912,"byteLength":288,"target":34962},{"buffer":0,"byteOffset":1200,"byteLength":288,"target":34962},{"buffer":0,"byteOffset":1488,"byteLength":192,"target":34962},{"buffer":0,"byteOffset":1680,"byteLength":144,"target":34963},{"buffer":0,"byteOffset":1824,"byteLength":288,"target":34962},{"buffer":0,"byteOffset":2112,"byteLength":288,"target":34962},{"buffer":0,"byteOffset":2400,"byteLength":192,"target":34962},{"buffer":0,"byteOffset":2592,"byteLength":144,"target":34963}],"buffers":[{"uri":"mov_bc41249da9.bin","byteLength":2736}],"images":[{"uri":"../../../../images/textures/polyhaven/rusty_metal_02_diff.jpg"},{"uri":"../../../../images/textures/polyhaven/rusty_metal_02_arm.jpg"},{"uri":"../../../../images/textures/polyhaven/rusty_metal_02_nor_gl.jpg"},{"uri":"../../../../images/textures/polyhaven/rusty_metal_grid_diff.jpg"},{"uri":"../../../../images/textures/polyhaven/rusty_metal_grid_arm.jpg"},{"uri":"../../../../images/textures/polyhaven/rusty_metal_grid_nor_gl.jpg"},{"uri":"../../../../images/textures/polyhaven/aerial_grass_rock_diff.jpg"},{"uri":"../../../../images/textures/polyhaven/aerial_grass_rock_arm.jpg"},{"uri":"../../../../images/textures/polyhaven/aerial_grass_rock_nor_gl.jpg"},{"uri":"../../../../images/textures/polyhaven/white_rough_plaster_diff.jpg"},{"uri":"../../../../images/textures/polyhaven/white_rough_plaster_arm.jpg"},{"uri":"../../../../images/textures/polyhaven/white_rough_plaster_nor_gl.jpg"},{"uri":"../../../../images/textures/polyhaven/yellow_plaster_diff.jpg"},{"uri":"../../../../images/textures/polyhaven/yellow_plaster_arm.jpg"},{"uri":"../../../../images/textures/polyhaven/yellow_plaster_nor_gl.jpg"},{"uri":"../../../../images/textures/polyhaven/interior_tiles_diff.jpg"},{"uri":"../../../../images/textures/polyhaven/interior_tiles_arm.jpg"},{"uri":"../../../../images/textures/polyhaven/interior_tiles_nor_gl.jpg"},{"uri":"../../../../images/textures/polyhaven/grey_plaster_02_diff.jpg"},{"uri":"../../../../images/textures/polyhaven/grey_plaster_02_arm.jpg"},{"uri":"../../../../images/textures/polyhaven/grey_plaster_02_nor_gl.jpg"},{"uri":"../../../../images/textures/polyhaven/brick_wall_02_diff.jpg"},{"uri":"../../../../images/textures/polyhaven/brick_wall_02_arm.jpg"},{"uri":"../../../../images/textures/polyhaven/brick_wall_02_nor_gl.jpg"},{"uri":"../../../../images/textures/polyhaven/concrete_floor_worn_001_diff.jpg"},{"uri":"../../../../images/textures/polyhaven/concrete_floor_worn_001_arm.jpg"},{"uri":"../../../../images/textures/polyhaven/concrete_floor_worn_001_nor_gl.jpg"},{"uri":"../../../../images/textures/polyhaven/terrazzo_tiles_diff.jpg"},{"uri":"../../../../images/textures/polyhaven/terrazzo_tiles_arm.jpg"},{"uri":"../../../../images/textures/polyhaven/terrazzo_tiles_nor_gl.jpg"},{"uri":"../../../../images/textures/polyhaven/tiled_floor_001_diff.jpg"},{"uri":"../../../../images/textures/polyhaven/tiled_floor_001_arm.jpg"},{"uri":"../../../../images/textures/polyhaven/tiled_floor_001_nor_gl.jpg"},{"uri":"../../../../images/textures/polyhaven/asphalt_02_diff.jpg"},{"uri":"../../../../images/textures/polyhaven/asphalt_02_arm.jpg"},{"uri":"../../../../images/textures/polyhaven/asphalt_02_nor_gl.jpg"},{"uri":"../../../../images/textures/polyhaven/plank_flooring_03_diff.jpg"},{"uri":"../../../../images/textures/polyhaven/plank_flooring_03_arm.jpg"},{"uri":"../../../../images/textures/polyhaven/plank_flooring_03_nor_gl.jpg"},{"uri":"../../../../images/textures/polyhaven/worn_tile_floor_diff.jpg"},{"uri":"../../../../images/textures/polyhaven/worn_tile_floor_arm.jpg"},{"uri":"../../../../images/textures/polyhaven/worn_tile_floor_nor_gl.jpg"},{"uri":"../../../../images/textures/polyhaven/weathered_brown_planks_diff.jpg"},{"uri":"../../../../images/textures/polyhaven/weathered_brown_planks_arm.jpg"},{"uri":"../../../../images/textures/polyhaven/weathered_brown_planks_nor_gl.jpg"},{"uri":"../../../../images/textures/polyhaven/brown_mud_02_diff.jpg"},{"uri":"../../../../images/textures/polyhaven/brown_mud_02_arm.jpg"},{"uri":"../../../../images/textures/polyhaven/brown_mud_02_nor_gl.jpg"},{"uri":"../../../../images/textures/polyhaven/ceiling_interior_diff.jpg"},{"uri":"../../../../images/textures/polyhaven/ceiling_interior_arm.jpg"},{"uri":"../../../../images/textures/polyhaven/ceiling_interior_nor_gl.jpg"},{"uri":"../../../../images/textures/polyhaven/plastered_wall_04_diff.jpg"},{"uri":"../../../../images/textures/polyhaven/plastered_wall_04_arm.jpg"},{"uri":"../../../../images/textures/polyhaven/plastered_wall_04_nor_gl.jpg"}],"textures":[{"source":0},{"source":1},{"source":2},{"source":3},{"source":4},{"source":5},{"source":6},{"source":7},{"source":8},{"source":9},{"source":10},{"source":11},{"source":12},{"source":13},{"source":14},{"source":15},{"source":16},{"source":17},{"source":18},{"source":19},{"source":20},{"source":21},{"source":22},{"source":23},{"source":24},{"source":25},{"source":26},{"source":27},{"source":28},{"source":29},{"source":30},{"source":31},{"source":32},{"source":33},{"source":34},{"source":35},{"source":36},{"source":37},{"source":38},{"source":39},{"source":40},{"source":41},{"source":42},{"source":43},{"source":44},{"source":45},{"source":46},{"source":47},{"source":48},{"source":49},{"source":50},{"source":51},{"source":52},{"source":53}]}