{
	"asset":{
		"generator":"Khronos glTF Blender I/O v5.2.40",
		"version":"2.0"
	},
	"scene":0,
	"scenes":[
		{
			"name":"Scene",
			"nodes":[
				0
			]
		}
	],
	"nodes":[
		{
			"mesh":0,
			"name":"shrub_02_c",
			"rotation":[
				0.12648987770080566,
				-0.7129753232002258,
				0.39439618587493896,
				0.5657898783683777
			],
			"translation":[
				1.5559492111206055,
				-0.005484403111040592,
				-0.006101916544139385
			]
		}
	],
	"materials":[
		{
			"alphaMode":"MASK",
			"doubleSided":true,
			"name":"shrub_02",
			"normalTexture":{
				"index":0
			},
			"pbrMetallicRoughness":{
				"baseColorTexture":{
					"index":1
				},
				"metallicFactor":0,
				"metallicRoughnessTexture":{
					"index":2
				}
			}
		}
	],
	"meshes":[
		{
			"name":"Plane.041",
			"primitives":[
				{
					"attributes":{
						"POSITION":0,
						"NORMAL":1,
						"TEXCOORD_0":2
					},
					"indices":3,
					"material":0
				}
			]
		}
	],
	"textures":[
		{
			"sampler":0,
			"source":0
		},
		{
			"sampler":0,
			"source":1
		},
		{
			"sampler":0,
			"source":2
		}
	],
	"images":[
		{
			"mimeType":"image/jpeg",
			"name":"shrub_02_nor_gl_1k",
			"uri":"textures/shrub_02_nor_gl_1k.jpg"
		},
		{
			"mimeType":"image/png",
			"name":"shrub_02_diff_1k",
			"uri":"textures/shrub_02_diff_1k.png"
		},
		{
			"mimeType":"image/jpeg",
			"name":"shrub_02_arm_1k",
			"uri":"textures/shrub_02_arm_1k.jpg"
		}
	],
	"accessors":[
		{
			"bufferView":0,
			"componentType":5126,
			"count":4652,
			"max":[
				1.287977695465088,
				0.8719967007637024,
				0.24143657088279724
			],
			"min":[
				-0.8910231590270996,
				-0.2947101294994354,
				-1.22649085521698
			],
			"type":"VEC3"
		},
		{
			"bufferView":1,
			"componentType":5126,
			"count":4652,
			"type":"VEC3"
		},
		{
			"bufferView":2,
			"componentType":5126,
			"count":4652,
			"type":"VEC2"
		},
		{
			"bufferView":3,
			"componentType":5123,
			"count":17997,
			"type":"SCALAR"
		}
	],
	"bufferViews":[
		{
			"buffer":0,
			"byteLength":55824,
			"byteOffset":0,
			"target":34962
		},
		{
			"buffer":0,
			"byteLength":55824,
			"byteOffset":55824,
			"target":34962
		},
		{
			"buffer":0,
			"byteLength":37216,
			"byteOffset":111648,
			"target":34962
		},
		{
			"buffer":0,
			"byteLength":35994,
			"byteOffset":148864,
			"target":34963
		}
	],
	"samplers":[
		{
			"magFilter":9729,
			"minFilter":9987
		}
	],
	"buffers":[
		{
			"byteLength":184860,
			"uri":"shrub_02_1k.bin"
		}
	]
}
