{
	"asset":{
		"generator":"Khronos glTF Blender I/O v5.2.40",
		"version":"2.0"
	},
	"scene":0,
	"scenes":[
		{
			"name":"Scene",
			"nodes":[
				0
			]
		}
	],
	"nodes":[
		{
			"mesh":0,
			"name":"wooden_ladder_supports",
			"translation":[
				0,
				1.1048070192337036,
				0
			]
		}
	],
	"materials":[
		{
			"doubleSided":true,
			"name":"wooden_ladder",
			"normalTexture":{
				"index":0
			},
			"pbrMetallicRoughness":{
				"baseColorTexture":{
					"index":1
				},
				"metallicRoughnessTexture":{
					"index":2
				}
			}
		}
	],
	"meshes":[
		{
			"name":"wooden_step_ladder_02",
			"primitives":[
				{
					"attributes":{
						"POSITION":0,
						"NORMAL":1,
						"TEXCOORD_0":2
					},
					"indices":3,
					"material":0
				}
			]
		}
	],
	"textures":[
		{
			"sampler":0,
			"source":0
		},
		{
			"sampler":0,
			"source":1
		},
		{
			"sampler":0,
			"source":2
		}
	],
	"images":[
		{
			"mimeType":"image/jpeg",
			"name":"wooden_ladder_nor_gl_1k",
			"uri":"textures/wooden_ladder_nor_gl_1k.jpg"
		},
		{
			"mimeType":"image/jpeg",
			"name":"wooden_ladder_diff_1k",
			"uri":"textures/wooden_ladder_diff_1k.jpg"
		},
		{
			"mimeType":"image/jpeg",
			"name":"wooden_ladder_arm_1k",
			"uri":"textures/wooden_ladder_arm_1k.jpg"
		}
	],
	"accessors":[
		{
			"bufferView":0,
			"componentType":5126,
			"count":5954,
			"max":[
				0.4742986559867859,
				0.23011624813079834,
				0.2500000596046448
			],
			"min":[
				-0.4848731458187103,
				-1.1048070192337036,
				-0.24999995529651642
			],
			"type":"VEC3"
		},
		{
			"bufferView":1,
			"componentType":5126,
			"count":5954,
			"type":"VEC3"
		},
		{
			"bufferView":2,
			"componentType":5126,
			"count":5954,
			"type":"VEC2"
		},
		{
			"bufferView":3,
			"componentType":5123,
			"count":18000,
			"type":"SCALAR"
		}
	],
	"bufferViews":[
		{
			"buffer":0,
			"byteLength":71448,
			"byteOffset":0,
			"target":34962
		},
		{
			"buffer":0,
			"byteLength":71448,
			"byteOffset":71448,
			"target":34962
		},
		{
			"buffer":0,
			"byteLength":47632,
			"byteOffset":142896,
			"target":34962
		},
		{
			"buffer":0,
			"byteLength":36000,
			"byteOffset":190528,
			"target":34963
		}
	],
	"samplers":[
		{
			"magFilter":9729,
			"minFilter":9987
		}
	],
	"buffers":[
		{
			"byteLength":226528,
			"uri":"wooden_ladder_1k.bin"
		}
	]
}
