{
	"asset":{
		"generator":"Khronos glTF Blender I/O v5.2.40",
		"version":"2.0"
	},
	"scene":0,
	"scenes":[
		{
			"name":"Scene",
			"nodes":[
				0
			]
		}
	],
	"nodes":[
		{
			"mesh":0,
			"name":"tree_stump_01"
		}
	],
	"materials":[
		{
			"doubleSided":true,
			"name":"tree_stump_01",
			"normalTexture":{
				"index":0
			},
			"pbrMetallicRoughness":{
				"baseColorTexture":{
					"index":1
				},
				"metallicFactor":0,
				"metallicRoughnessTexture":{
					"index":2
				}
			}
		}
	],
	"meshes":[
		{
			"name":"tt_01_rep.001",
			"primitives":[
				{
					"attributes":{
						"POSITION":0,
						"NORMAL":1,
						"TEXCOORD_0":2
					},
					"indices":3,
					"material":0
				}
			]
		}
	],
	"textures":[
		{
			"sampler":0,
			"source":0
		},
		{
			"sampler":0,
			"source":1
		},
		{
			"sampler":0,
			"source":2
		}
	],
	"images":[
		{
			"mimeType":"image/jpeg",
			"name":"tree_stump_01_nor_gl_1k",
			"uri":"textures/tree_stump_01_nor_gl_1k.jpg"
		},
		{
			"mimeType":"image/jpeg",
			"name":"tree_stump_01_diff_1k",
			"uri":"textures/tree_stump_01_diff_1k.jpg"
		},
		{
			"mimeType":"image/jpeg",
			"name":"tree_stump_01_arm_1k",
			"uri":"textures/tree_stump_01_arm_1k.jpg"
		}
	],
	"accessors":[
		{
			"bufferView":0,
			"componentType":5126,
			"count":3548,
			"max":[
				0.6402658820152283,
				0.37961965799331665,
				0.8305398225784302
			],
			"min":[
				-0.7846062183380127,
				-0.19253738224506378,
				-0.7607422471046448
			],
			"type":"VEC3"
		},
		{
			"bufferView":1,
			"componentType":5126,
			"count":3548,
			"type":"VEC3"
		},
		{
			"bufferView":2,
			"componentType":5126,
			"count":3548,
			"type":"VEC2"
		},
		{
			"bufferView":3,
			"componentType":5123,
			"count":15000,
			"type":"SCALAR"
		}
	],
	"bufferViews":[
		{
			"buffer":0,
			"byteLength":42576,
			"byteOffset":0,
			"target":34962
		},
		{
			"buffer":0,
			"byteLength":42576,
			"byteOffset":42576,
			"target":34962
		},
		{
			"buffer":0,
			"byteLength":28384,
			"byteOffset":85152,
			"target":34962
		},
		{
			"buffer":0,
			"byteLength":30000,
			"byteOffset":113536,
			"target":34963
		}
	],
	"samplers":[
		{
			"magFilter":9729,
			"minFilter":9987
		}
	],
	"buffers":[
		{
			"byteLength":143536,
			"uri":"tree_stump_01_1k.bin"
		}
	]
}
