{
	"asset":{
		"generator":"Khronos glTF Blender I/O v5.2.40",
		"version":"2.0"
	},
	"scene":0,
	"scenes":[
		{
			"name":"Scene",
			"nodes":[
				0
			]
		}
	],
	"nodes":[
		{
			"mesh":0,
			"name":"wooden_crate_01_lid"
		}
	],
	"materials":[
		{
			"doubleSided":true,
			"name":"wooden_crate_01",
			"normalTexture":{
				"index":0
			},
			"pbrMetallicRoughness":{
				"baseColorTexture":{
					"index":1
				},
				"metallicRoughnessTexture":{
					"index":2
				}
			}
		}
	],
	"meshes":[
		{
			"name":"Cube.005",
			"primitives":[
				{
					"attributes":{
						"POSITION":0,
						"NORMAL":1,
						"TEXCOORD_0":2
					},
					"indices":3,
					"material":0
				}
			]
		}
	],
	"textures":[
		{
			"sampler":0,
			"source":0
		},
		{
			"sampler":0,
			"source":1
		},
		{
			"sampler":0,
			"source":2
		}
	],
	"images":[
		{
			"mimeType":"image/jpeg",
			"name":"wooden_crate_01_nor_gl_1k",
			"uri":"textures/wooden_crate_01_nor_gl_1k.jpg"
		},
		{
			"mimeType":"image/jpeg",
			"name":"wooden_crate_01_diff_1k",
			"uri":"textures/wooden_crate_01_diff_1k.jpg"
		},
		{
			"mimeType":"image/jpeg",
			"name":"wooden_crate_01_arm_1k",
			"uri":"textures/wooden_crate_01_arm_1k.jpg"
		}
	],
	"accessors":[
		{
			"bufferView":0,
			"componentType":5126,
			"count":4400,
			"max":[
				0.4126364588737488,
				0.3416849374771118,
				0.2128141224384308
			],
			"min":[
				-0.4126364588737488,
				-0.00793334562331438,
				-0.1961396187543869
			],
			"type":"VEC3"
		},
		{
			"bufferView":1,
			"componentType":5126,
			"count":4400,
			"type":"VEC3"
		},
		{
			"bufferView":2,
			"componentType":5126,
			"count":4400,
			"type":"VEC2"
		},
		{
			"bufferView":3,
			"componentType":5123,
			"count":18000,
			"type":"SCALAR"
		}
	],
	"bufferViews":[
		{
			"buffer":0,
			"byteLength":52800,
			"byteOffset":0,
			"target":34962
		},
		{
			"buffer":0,
			"byteLength":52800,
			"byteOffset":52800,
			"target":34962
		},
		{
			"buffer":0,
			"byteLength":35200,
			"byteOffset":105600,
			"target":34962
		},
		{
			"buffer":0,
			"byteLength":36000,
			"byteOffset":140800,
			"target":34963
		}
	],
	"samplers":[
		{
			"magFilter":9729,
			"minFilter":9987
		}
	],
	"buffers":[
		{
			"byteLength":176800,
			"uri":"wooden_crate_01_1k.bin"
		}
	]
}
