{
	"asset":{
		"generator":"Khronos glTF Blender I/O v5.2.40",
		"version":"2.0"
	},
	"scene":0,
	"scenes":[
		{
			"name":"Scene",
			"nodes":[
				0
			]
		}
	],
	"nodes":[
		{
			"mesh":0,
			"name":"shrub_03_a"
		}
	],
	"materials":[
		{
			"alphaMode":"MASK",
			"doubleSided":true,
			"name":"shrub_03",
			"normalTexture":{
				"index":0
			},
			"pbrMetallicRoughness":{
				"baseColorTexture":{
					"index":1
				},
				"metallicFactor":0,
				"metallicRoughnessTexture":{
					"index":2
				}
			}
		}
	],
	"meshes":[
		{
			"name":"Plane.002",
			"primitives":[
				{
					"attributes":{
						"POSITION":0,
						"NORMAL":1,
						"TEXCOORD_0":2
					},
					"indices":3,
					"material":0
				}
			]
		}
	],
	"textures":[
		{
			"sampler":0,
			"source":0
		},
		{
			"sampler":0,
			"source":1
		},
		{
			"sampler":0,
			"source":2
		}
	],
	"images":[
		{
			"mimeType":"image/jpeg",
			"name":"shrub_03_nor_gl_1k",
			"uri":"textures/shrub_03_nor_gl_1k.jpg"
		},
		{
			"mimeType":"image/png",
			"name":"shrub_03_diff_1k",
			"uri":"textures/shrub_03_diff_1k.png"
		},
		{
			"mimeType":"image/jpeg",
			"name":"shrub_03_arm_1k",
			"uri":"textures/shrub_03_arm_1k.jpg"
		}
	],
	"accessors":[
		{
			"bufferView":0,
			"componentType":5126,
			"count":4727,
			"max":[
				1.2933756113052368,
				0.4009580910205841,
				0.07849743962287903
			],
			"min":[
				-0.07354381680488586,
				-0.0018257149495184422,
				-0.07270558923482895
			],
			"type":"VEC3"
		},
		{
			"bufferView":1,
			"componentType":5126,
			"count":4727,
			"type":"VEC3"
		},
		{
			"bufferView":2,
			"componentType":5126,
			"count":4727,
			"type":"VEC2"
		},
		{
			"bufferView":3,
			"componentType":5123,
			"count":17997,
			"type":"SCALAR"
		}
	],
	"bufferViews":[
		{
			"buffer":0,
			"byteLength":56724,
			"byteOffset":0,
			"target":34962
		},
		{
			"buffer":0,
			"byteLength":56724,
			"byteOffset":56724,
			"target":34962
		},
		{
			"buffer":0,
			"byteLength":37816,
			"byteOffset":113448,
			"target":34962
		},
		{
			"buffer":0,
			"byteLength":35994,
			"byteOffset":151264,
			"target":34963
		}
	],
	"samplers":[
		{
			"magFilter":9729,
			"minFilter":9987
		}
	],
	"buffers":[
		{
			"byteLength":187260,
			"uri":"shrub_03_1k.bin"
		}
	]
}
