{
	"asset":{
		"generator":"Khronos glTF Blender I/O v5.2.40",
		"version":"2.0"
	},
	"scene":0,
	"scenes":[
		{
			"name":"Scene",
			"nodes":[
				0
			]
		}
	],
	"nodes":[
		{
			"mesh":0,
			"name":"planter_box_01"
		}
	],
	"materials":[
		{
			"doubleSided":true,
			"name":"planter_box_01",
			"normalTexture":{
				"index":0
			},
			"pbrMetallicRoughness":{
				"baseColorTexture":{
					"index":1
				},
				"metallicRoughnessTexture":{
					"index":2
				}
			}
		}
	],
	"meshes":[
		{
			"name":"Plane.003",
			"primitives":[
				{
					"attributes":{
						"POSITION":0,
						"NORMAL":1,
						"TEXCOORD_0":2
					},
					"indices":3,
					"material":0
				}
			]
		}
	],
	"textures":[
		{
			"sampler":0,
			"source":0
		},
		{
			"sampler":0,
			"source":1
		},
		{
			"sampler":0,
			"source":2
		}
	],
	"images":[
		{
			"mimeType":"image/jpeg",
			"name":"planter_box_01_nor_gl_1k",
			"uri":"textures/planter_box_01_nor_gl_1k.jpg"
		},
		{
			"mimeType":"image/jpeg",
			"name":"planter_box_01_diff_1k",
			"uri":"textures/planter_box_01_diff_1k.jpg"
		},
		{
			"mimeType":"image/jpeg",
			"name":"planter_box_01_arm_1k",
			"uri":"textures/planter_box_01_arm_1k.jpg"
		}
	],
	"accessors":[
		{
			"bufferView":0,
			"componentType":5126,
			"count":4987,
			"max":[
				0.4558956027030945,
				0.42499640583992004,
				0.20653319358825684
			],
			"min":[
				-0.45671579241752625,
				2.816971391439438e-05,
				-0.20713478326797485
			],
			"type":"VEC3"
		},
		{
			"bufferView":1,
			"componentType":5126,
			"count":4987,
			"type":"VEC3"
		},
		{
			"bufferView":2,
			"componentType":5126,
			"count":4987,
			"type":"VEC2"
		},
		{
			"bufferView":3,
			"componentType":5123,
			"count":18000,
			"type":"SCALAR"
		}
	],
	"bufferViews":[
		{
			"buffer":0,
			"byteLength":59844,
			"byteOffset":0,
			"target":34962
		},
		{
			"buffer":0,
			"byteLength":59844,
			"byteOffset":59844,
			"target":34962
		},
		{
			"buffer":0,
			"byteLength":39896,
			"byteOffset":119688,
			"target":34962
		},
		{
			"buffer":0,
			"byteLength":36000,
			"byteOffset":159584,
			"target":34963
		}
	],
	"samplers":[
		{
			"magFilter":9729,
			"minFilter":9987
		}
	],
	"buffers":[
		{
			"byteLength":195584,
			"uri":"planter_box_01_1k.bin"
		}
	]
}
