{
	"asset":{
		"generator":"Khronos glTF Blender I/O v5.2.40",
		"version":"2.0"
	},
	"scene":0,
	"scenes":[
		{
			"name":"Scene",
			"nodes":[
				0
			]
		}
	],
	"nodes":[
		{
			"mesh":0,
			"name":"street_rat"
		}
	],
	"materials":[
		{
			"doubleSided":true,
			"name":"street_rat",
			"normalTexture":{
				"index":0
			},
			"pbrMetallicRoughness":{
				"baseColorTexture":{
					"index":1
				},
				"metallicFactor":0,
				"metallicRoughnessTexture":{
					"index":2
				}
			}
		}
	],
	"meshes":[
		{
			"name":"Mesh",
			"primitives":[
				{
					"attributes":{
						"POSITION":0,
						"NORMAL":1,
						"TEXCOORD_0":2
					},
					"indices":3,
					"material":0
				}
			]
		}
	],
	"textures":[
		{
			"sampler":0,
			"source":0
		},
		{
			"sampler":0,
			"source":1
		},
		{
			"sampler":0,
			"source":2
		}
	],
	"images":[
		{
			"mimeType":"image/jpeg",
			"name":"street_rat_nor_gl_1k",
			"uri":"textures/street_rat_nor_gl_1k.jpg"
		},
		{
			"mimeType":"image/jpeg",
			"name":"street_rat_diff_1k",
			"uri":"textures/street_rat_diff_1k.jpg"
		},
		{
			"mimeType":"image/jpeg",
			"name":"street_rat_arm_1k",
			"uri":"textures/street_rat_arm_1k.jpg"
		}
	],
	"accessors":[
		{
			"bufferView":0,
			"componentType":5126,
			"count":1610,
			"max":[
				0.016030358150601387,
				0.033848509192466736,
				0.04090530425310135
			],
			"min":[
				-0.016030358150601387,
				4.227638419251889e-05,
				-0.10739080607891083
			],
			"type":"VEC3"
		},
		{
			"bufferView":1,
			"componentType":5126,
			"count":1610,
			"type":"VEC3"
		},
		{
			"bufferView":2,
			"componentType":5126,
			"count":1610,
			"type":"VEC2"
		},
		{
			"bufferView":3,
			"componentType":5123,
			"count":5997,
			"type":"SCALAR"
		}
	],
	"bufferViews":[
		{
			"buffer":0,
			"byteLength":19320,
			"byteOffset":0,
			"target":34962
		},
		{
			"buffer":0,
			"byteLength":19320,
			"byteOffset":19320,
			"target":34962
		},
		{
			"buffer":0,
			"byteLength":12880,
			"byteOffset":38640,
			"target":34962
		},
		{
			"buffer":0,
			"byteLength":11994,
			"byteOffset":51520,
			"target":34963
		}
	],
	"samplers":[
		{
			"magFilter":9729,
			"minFilter":9987
		}
	],
	"buffers":[
		{
			"byteLength":63516,
			"uri":"street_rat_1k.bin"
		}
	]
}
