{
	"asset":{
		"generator":"Khronos glTF Blender I/O v5.2.40",
		"version":"2.0"
	},
	"scene":0,
	"scenes":[
		{
			"name":"Scene",
			"nodes":[
				0
			]
		}
	],
	"nodes":[
		{
			"mesh":0,
			"name":"wine_barrel_01_Lid"
		}
	],
	"materials":[
		{
			"doubleSided":true,
			"name":"wine_barrel_01",
			"normalTexture":{
				"index":0
			},
			"pbrMetallicRoughness":{
				"baseColorTexture":{
					"index":1
				},
				"metallicRoughnessTexture":{
					"index":2
				}
			}
		}
	],
	"meshes":[
		{
			"name":"DiameterSmall.012",
			"primitives":[
				{
					"attributes":{
						"POSITION":0,
						"NORMAL":1,
						"TEXCOORD_0":2
					},
					"indices":3,
					"material":0
				}
			]
		}
	],
	"textures":[
		{
			"sampler":0,
			"source":0
		},
		{
			"sampler":0,
			"source":1
		},
		{
			"sampler":0,
			"source":2
		}
	],
	"images":[
		{
			"mimeType":"image/jpeg",
			"name":"wine_barrel_01_nor_gl_1k",
			"uri":"textures/wine_barrel_01_nor_gl_1k.jpg"
		},
		{
			"mimeType":"image/jpeg",
			"name":"wine_barrel_01_diff_1k",
			"uri":"textures/wine_barrel_01_diff_1k.jpg"
		},
		{
			"mimeType":"image/jpeg",
			"name":"wine_barrel_01_arm_1k",
			"uri":"textures/wine_barrel_01_arm_1k.jpg"
		}
	],
	"accessors":[
		{
			"bufferView":0,
			"componentType":5126,
			"count":7353,
			"max":[
				0.3710978329181671,
				0.8719475269317627,
				0.38488179445266724
			],
			"min":[
				-0.37109488248825073,
				0.0006841719150543213,
				-0.3710985779762268
			],
			"type":"VEC3"
		},
		{
			"bufferView":1,
			"componentType":5126,
			"count":7353,
			"type":"VEC3"
		},
		{
			"bufferView":2,
			"componentType":5126,
			"count":7353,
			"type":"VEC2"
		},
		{
			"bufferView":3,
			"componentType":5123,
			"count":18000,
			"type":"SCALAR"
		}
	],
	"bufferViews":[
		{
			"buffer":0,
			"byteLength":88236,
			"byteOffset":0,
			"target":34962
		},
		{
			"buffer":0,
			"byteLength":88236,
			"byteOffset":88236,
			"target":34962
		},
		{
			"buffer":0,
			"byteLength":58824,
			"byteOffset":176472,
			"target":34962
		},
		{
			"buffer":0,
			"byteLength":36000,
			"byteOffset":235296,
			"target":34963
		}
	],
	"samplers":[
		{
			"magFilter":9729,
			"minFilter":9987
		}
	],
	"buffers":[
		{
			"byteLength":271296,
			"uri":"wine_barrel_01_1k.bin"
		}
	]
}
