{"asset":{"version":"2.0","generator":"red-valve/hospital"},"scene":0,"scenes":[{"nodes":[0]}],"nodes":[{"name":"mov_9ebdaccb5d","mesh":0}],"meshes":[{"name":"mov_9ebdaccb5d","primitives":[{"attributes":{"POSITION":0,"NORMAL":1,"TEXCOORD_0":2},"indices":3,"material":9},{"attributes":{"POSITION":4,"NORMAL":5,"TEXCOORD_0":6},"indices":7,"material":23},{"attributes":{"POSITION":8,"NORMAL":9,"TEXCOORD_0":10},"indices":11,"material":28}]}],"materials":[{"name":"cabine_parede","pbrMetallicRoughness":{"baseColorFactor":[0.52,0.5,0.47,1.0],"metallicFactor":0.55,"roughnessFactor":0.62,"baseColorTexture":{"index":0},"metallicRoughnessTexture":{"index":1}},"doubleSided":false,"occlusionTexture":{"index":1},"normalTexture":{"index":2}},{"name":"cabine_piso","pbrMetallicRoughness":{"baseColorFactor":[0.5,0.5,0.5,1.0],"metallicFactor":0.75,"roughnessFactor":0.52,"baseColorTexture":{"index":3},"metallicRoughnessTexture":{"index":4}},"doubleSided":false,"occlusionTexture":{"index":4},"normalTexture":{"index":5}},{"name":"esquadria","pbrMetallicRoughness":{"baseColorFactor":[0.3,0.31,0.3,1.0],"metallicFactor":0.35,"roughnessFactor":0.55},"doubleSided":false},{"name":"friso","pbrMetallicRoughness":{"baseColorFactor":[0.26,0.3,0.28,1.0],"metallicFactor":0.1,"roughnessFactor":0.6},"doubleSided":false},{"name":"lum_corpo","pbrMetallicRoughness":{"baseColorFactor":[0.62,0.63,0.61,1.0],"metallicFactor":0.4,"roughnessFactor":0.55},"doubleSided":false},{"name":"lum_forro_cabine","pbrMetallicRoughness":{"baseColorFactor":[0.82,0.86,0.82,1.0],"metallicFactor":0.0,"roughnessFactor":0.35},"doubleSided":false,"emissiveFactor":[0.16,0.21,0.17]},{"name":"lum_tubo_aceso","pbrMetallicRoughness":{"baseColorFactor":[0.9,0.95,0.9,1.0],"metallicFactor":0.0,"roughnessFactor":0.25},"doubleSided":false,"emissiveFactor":[0.72,0.88,0.76]},{"name":"lum_tubo_morto","pbrMetallicRoughness":{"baseColorFactor":[0.42,0.44,0.42,1.0],"metallicFactor":0.0,"roughnessFactor":0.45},"doubleSided":false},{"name":"lum_vermelha","pbrMetallicRoughness":{"baseColorFactor":[0.6,0.1,0.08,1.0],"metallicFactor":0.0,"roughnessFactor":0.4},"doubleSided":false,"emissiveFactor":[0.9,0.1,0.06]},{"name":"mat_balcao","pbrMetallicRoughness":{"baseColorFactor":[0.44,0.44,0.41,1.0],"metallicFactor":0.0,"roughnessFactor":0.72},"doubleSided":false},{"name":"mat_borracha","pbrMetallicRoughness":{"baseColorFactor":[0.09,0.09,0.1,1.0],"metallicFactor":0.0,"roughnessFactor":0.92},"doubleSided":false},{"name":"mat_botao","pbrMetallicRoughness":{"baseColorFactor":[0.8,0.74,0.4,1.0],"metallicFactor":0.3,"roughnessFactor":0.4},"doubleSided":false,"emissiveFactor":[0.5,0.42,0.1]},{"name":"mat_colchao","pbrMetallicRoughness":{"baseColorFactor":[0.78,0.76,0.68,1.0],"metallicFactor":0.0,"roughnessFactor":0.88},"doubleSided":false},{"name":"mat_cortina","pbrMetallicRoughness":{"baseColorFactor":[0.5,0.6,0.53,1.0],"metallicFactor":0.0,"roughnessFactor":0.96},"doubleSided":false},{"name":"mat_couro_verde","pbrMetallicRoughness":{"baseColorFactor":[0.13,0.26,0.22,1.0],"metallicFactor":0.0,"roughnessFactor":0.52},"doubleSided":false},{"name":"mat_formica","pbrMetallicRoughness":{"baseColorFactor":[0.64,0.6,0.52,1.0],"metallicFactor":0.0,"roughnessFactor":0.6},"doubleSided":false},{"name":"mat_gaveta","pbrMetallicRoughness":{"baseColorFactor":[0.68,0.7,0.72,1.0],"metallicFactor":0.85,"roughnessFactor":0.36},"doubleSided":false},{"name":"mat_inox","pbrMetallicRoughness":{"baseColorFactor":[0.7,0.72,0.75,1.0],"metallicFactor":0.9,"roughnessFactor":0.32},"doubleSided":false},{"name":"mat_inox_escovado","pbrMetallicRoughness":{"baseColorFactor":[0.64,0.66,0.68,1.0],"metallicFactor":0.85,"roughnessFactor":0.46},"doubleSided":false},{"name":"mat_lampada","pbrMetallicRoughness":{"baseColorFactor":[0.92,0.94,0.9,1.0],"metallicFactor":0.0,"roughnessFactor":0.2},"doubleSided":false,"emissiveFactor":[0.9,0.94,0.98]},{"name":"mat_lencol","pbrMetallicRoughness":{"baseColorFactor":[0.84,0.85,0.82,1.0],"metallicFactor":0.0,"roughnessFactor":0.94},"doubleSided":false},{"name":"mat_lencol_sujo","pbrMetallicRoughness":{"baseColorFactor":[0.68,0.64,0.52,1.0],"metallicFactor":0.0,"roughnessFactor":0.96},"doubleSided":false},{"name":"mat_metal_claro","pbrMetallicRoughness":{"baseColorFactor":[0.6,0.62,0.59,1.0],"metallicFactor":0.35,"roughnessFactor":0.55},"doubleSided":false},{"name":"mat_metal_escuro","pbrMetallicRoughness":{"baseColorFactor":[0.2,0.21,0.23,1.0],"metallicFactor":0.5,"roughnessFactor":0.6},"doubleSided":false},{"name":"mat_painel","pbrMetallicRoughness":{"baseColorFactor":[0.12,0.13,0.14,1.0],"metallicFactor":0.3,"roughnessFactor":0.48},"doubleSided":false},{"name":"mat_placa","pbrMetallicRoughness":{"baseColorFactor":[0.62,0.64,0.62,1.0],"metallicFactor":0.0,"roughnessFactor":0.58},"doubleSided":false},{"name":"mat_seta","pbrMetallicRoughness":{"baseColorFactor":[0.08,0.32,0.2,1.0],"metallicFactor":0.0,"roughnessFactor":0.5},"doubleSided":false,"emissiveFactor":[0.05,0.42,0.22]},{"name":"mat_soro","pbrMetallicRoughness":{"baseColorFactor":[0.82,0.86,0.7,1.0],"metallicFactor":0.0,"roughnessFactor":0.28},"doubleSided":false},{"name":"mat_tampo","pbrMetallicRoughness":{"baseColorFactor":[0.2,0.3,0.26,1.0],"metallicFactor":0.05,"roughnessFactor":0.5},"doubleSided":false},{"name":"mat_tela","pbrMetallicRoughness":{"baseColorFactor":[0.03,0.04,0.05,1.0],"metallicFactor":0.0,"roughnessFactor":0.25},"doubleSided":false},{"name":"mat_vidro_fosco","pbrMetallicRoughness":{"baseColorFactor":[0.66,0.72,0.72,0.55],"metallicFactor":0.1,"roughnessFactor":0.22},"doubleSided":false,"alphaMode":"BLEND"},{"name":"parede_alta","pbrMetallicRoughness":{"baseColorFactor":[0.74,0.74,0.7,1.0],"metallicFactor":0.0,"roughnessFactor":1.0,"baseColorTexture":{"index":6},"metallicRoughnessTexture":{"index":7}},"doubleSided":false,"occlusionTexture":{"index":7},"normalTexture":{"index":8}},{"name":"parede_alta_suja","pbrMetallicRoughness":{"baseColorFactor":[0.62,0.58,0.44,1.0],"metallicFactor":0.0,"roughnessFactor":1.0,"baseColorTexture":{"index":9},"metallicRoughnessTexture":{"index":10}},"doubleSided":false,"occlusionTexture":{"index":10},"normalTexture":{"index":11}},{"name":"parede_azulejo","pbrMetallicRoughness":{"baseColorFactor":[0.84,0.9,0.88,1.0],"metallicFactor":0.0,"roughnessFactor":1.0,"baseColorTexture":{"index":12},"metallicRoughnessTexture":{"index":13}},"doubleSided":false,"occlusionTexture":{"index":13},"normalTexture":{"index":14}},{"name":"parede_dado","pbrMetallicRoughness":{"baseColorFactor":[0.78,0.86,0.82,1.0],"metallicFactor":0.0,"roughnessFactor":1.0,"baseColorTexture":{"index":12},"metallicRoughnessTexture":{"index":13}},"doubleSided":false,"occlusionTexture":{"index":13},"normalTexture":{"index":14}},{"name":"parede_dado_verde","pbrMetallicRoughness":{"baseColorFactor":[0.5,0.7,0.62,1.0],"metallicFactor":0.0,"roughnessFactor":1.0,"baseColorTexture":{"index":12},"metallicRoughnessTexture":{"index":13}},"doubleSided":false,"occlusionTexture":{"index":13},"normalTexture":{"index":14}},{"name":"peitoril","pbrMetallicRoughness":{"baseColorFactor":[0.66,0.66,0.63,1.0],"metallicFactor":0.0,"roughnessFactor":0.85},"doubleSided":false},{"name":"piso_concreto","pbrMetallicRoughness":{"baseColorFactor":[0.46,0.46,0.45,1.0],"metallicFactor":0.0,"roughnessFactor":1.0,"baseColorTexture":{"index":15},"metallicRoughnessTexture":{"index":16}},"doubleSided":false,"occlusionTexture":{"index":16},"normalTexture":{"index":17}},{"name":"piso_corredor","pbrMetallicRoughness":{"baseColorFactor":[0.52,0.56,0.53,1.0],"metallicFactor":0.0,"roughnessFactor":1.0,"baseColorTexture":{"index":18},"metallicRoughnessTexture":{"index":19}},"doubleSided":false,"occlusionTexture":{"index":19},"normalTexture":{"index":20}},{"name":"piso_hall","pbrMetallicRoughness":{"baseColorFactor":[0.58,0.6,0.58,1.0],"metallicFactor":0.05,"roughnessFactor":1.0,"baseColorTexture":{"index":18},"metallicRoughnessTexture":{"index":19}},"doubleSided":false,"occlusionTexture":{"index":19},"normalTexture":{"index":20}},{"name":"piso_sala","pbrMetallicRoughness":{"baseColorFactor":[0.6,0.62,0.58,1.0],"metallicFactor":0.0,"roughnessFactor":1.0,"baseColorTexture":{"index":21},"metallicRoughnessTexture":{"index":22}},"doubleSided":false,"occlusionTexture":{"index":22},"normalTexture":{"index":23}},{"name":"piso_servico","pbrMetallicRoughness":{"baseColorFactor":[0.54,0.56,0.54,1.0],"metallicFactor":0.0,"roughnessFactor":1.0,"baseColorTexture":{"index":24},"metallicRoughnessTexture":{"index":25}},"doubleSided":false,"occlusionTexture":{"index":25},"normalTexture":{"index":26}},{"name":"poco_concreto","pbrMetallicRoughness":{"baseColorFactor":[0.38,0.38,0.38,1.0],"metallicFactor":0.0,"roughnessFactor":1.0,"baseColorTexture":{"index":15},"metallicRoughnessTexture":{"index":16}},"doubleSided":false,"occlusionTexture":{"index":16},"normalTexture":{"index":17}},{"name":"porta_folha","pbrMetallicRoughness":{"baseColorFactor":[0.54,0.57,0.53,1.0],"metallicFactor":0.1,"roughnessFactor":0.62},"doubleSided":false},{"name":"porta_metal","pbrMetallicRoughness":{"baseColorFactor":[0.56,0.58,0.58,1.0],"metallicFactor":0.7,"roughnessFactor":0.45,"baseColorTexture":{"index":0},"metallicRoughnessTexture":{"index":1}},"doubleSided":false,"occlusionTexture":{"index":1},"normalTexture":{"index":2}},{"name":"teto","pbrMetallicRoughness":{"baseColorFactor":[0.76,0.76,0.73,1.0],"metallicFactor":0.0,"roughnessFactor":1.0,"baseColorTexture":{"index":27},"metallicRoughnessTexture":{"index":28}},"doubleSided":false,"occlusionTexture":{"index":28},"normalTexture":{"index":29}},{"name":"teto_concreto","pbrMetallicRoughness":{"baseColorFactor":[0.44,0.44,0.43,1.0],"metallicFactor":0.0,"roughnessFactor":1.0,"baseColorTexture":{"index":30},"metallicRoughnessTexture":{"index":31}},"doubleSided":false,"occlusionTexture":{"index":31},"normalTexture":{"index":32}},{"name":"vidro","pbrMetallicRoughness":{"baseColorFactor":[0.44,0.5,0.54,0.3],"metallicFactor":0.0,"roughnessFactor":0.12},"doubleSided":true,"alphaMode":"BLEND"}],"accessors":[{"bufferView":0,"componentType":5126,"count":24,"type":"VEC3","min":[-1.7,0.0,-0.35],"max":[1.7,0.9700000000000001,0.35]},{"bufferView":1,"componentType":5126,"count":24,"type":"VEC3","min":[-1.0,-1,-1.0],"max":[1.0,1,1.0]},{"bufferView":2,"componentType":5126,"count":24,"type":"VEC2","min":[0.0,0.0],"max":[1.0,1.0]},{"bufferView":3,"componentType":5125,"count":36,"type":"SCALAR"},{"bufferView":4,"componentType":5126,"count":24,"type":"VEC3","min":[-1.67,0.0,-0.3],"max":[1.67,0.12,0.3]},{"bufferView":5,"componentType":5126,"count":24,"type":"VEC3","min":[-1.0,-1,-1.0],"max":[1.0,1,1.0]},{"bufferView":6,"componentType":5126,"count":24,"type":"VEC2","min":[0.0,0.0],"max":[1.0,1.0]},{"bufferView":7,"componentType":5125,"count":36,"type":"SCALAR"},{"bufferView":8,"componentType":5126,"count":24,"type":"VEC3","min":[-1.75,0.985,-0.39],"max":[1.75,1.055,0.47]},{"bufferView":9,"componentType":5126,"count":24,"type":"VEC3","min":[-1.0,-1,-1.0],"max":[1.0,1,1.0]},{"bufferView":10,"componentType":5126,"count":24,"type":"VEC2","min":[0.0,0.0],"max":[1.0,1.0]},{"bufferView":11,"componentType":5125,"count":36,"type":"SCALAR"}],"bufferViews":[{"buffer":0,"byteOffset":0,"byteLength":288,"target":34962},{"buffer":0,"byteOffset":288,"byteLength":288,"target":34962},{"buffer":0,"byteOffset":576,"byteLength":192,"target":34962},{"buffer":0,"byteOffset":768,"byteLength":144,"target":34963},{"buffer":0,"byteOffset":912,"byteLength":288,"target":34962},{"buffer":0,"byteOffset":1200,"byteLength":288,"target":34962},{"buffer":0,"byteOffset":1488,"byteLength":192,"target":34962},{"buffer":0,"byteOffset":1680,"byteLength":144,"target":34963},{"buffer":0,"byteOffset":1824,"byteLength":288,"target":34962},{"buffer":0,"byteOffset":2112,"byteLength":288,"target":34962},{"buffer":0,"byteOffset":2400,"byteLength":192,"target":34962},{"buffer":0,"byteOffset":2592,"byteLength":144,"target":34963}],"buffers":[{"uri":"mov_9ebdaccb5d.bin","byteLength":2736}],"images":[{"uri":"../../../../images/textures/polyhaven/rusty_metal_02_diff.jpg"},{"uri":"../../../../images/textures/polyhaven/rusty_metal_02_arm.jpg"},{"uri":"../../../../images/textures/polyhaven/rusty_metal_02_nor_gl.jpg"},{"uri":"../../../../images/textures/polyhaven/metal_plate_diff.jpg"},{"uri":"../../../../images/textures/polyhaven/metal_plate_arm.jpg"},{"uri":"../../../../images/textures/polyhaven/metal_plate_nor_gl.jpg"},{"uri":"../../../../images/textures/polyhaven/white_rough_plaster_diff.jpg"},{"uri":"../../../../images/textures/polyhaven/white_rough_plaster_arm.jpg"},{"uri":"../../../../images/textures/polyhaven/white_rough_plaster_nor_gl.jpg"},{"uri":"../../../../images/textures/polyhaven/yellow_plaster_diff.jpg"},{"uri":"../../../../images/textures/polyhaven/yellow_plaster_arm.jpg"},{"uri":"../../../../images/textures/polyhaven/yellow_plaster_nor_gl.jpg"},{"uri":"../../../../images/textures/polyhaven/interior_tiles_diff.jpg"},{"uri":"../../../../images/textures/polyhaven/interior_tiles_arm.jpg"},{"uri":"../../../../images/textures/polyhaven/interior_tiles_nor_gl.jpg"},{"uri":"../../../../images/textures/polyhaven/concrete_floor_worn_001_diff.jpg"},{"uri":"../../../../images/textures/polyhaven/concrete_floor_worn_001_arm.jpg"},{"uri":"../../../../images/textures/polyhaven/concrete_floor_worn_001_nor_gl.jpg"},{"uri":"../../../../images/textures/polyhaven/terrazzo_tiles_diff.jpg"},{"uri":"../../../../images/textures/polyhaven/terrazzo_tiles_arm.jpg"},{"uri":"../../../../images/textures/polyhaven/terrazzo_tiles_nor_gl.jpg"},{"uri":"../../../../images/textures/polyhaven/floor_tiles_06_diff.jpg"},{"uri":"../../../../images/textures/polyhaven/floor_tiles_06_arm.jpg"},{"uri":"../../../../images/textures/polyhaven/floor_tiles_06_nor_gl.jpg"},{"uri":"../../../../images/textures/polyhaven/worn_tile_floor_diff.jpg"},{"uri":"../../../../images/textures/polyhaven/worn_tile_floor_arm.jpg"},{"uri":"../../../../images/textures/polyhaven/worn_tile_floor_nor_gl.jpg"},{"uri":"../../../../images/textures/polyhaven/ceiling_interior_diff.jpg"},{"uri":"../../../../images/textures/polyhaven/ceiling_interior_arm.jpg"},{"uri":"../../../../images/textures/polyhaven/ceiling_interior_nor_gl.jpg"},{"uri":"../../../../images/textures/polyhaven/plastered_wall_04_diff.jpg"},{"uri":"../../../../images/textures/polyhaven/plastered_wall_04_arm.jpg"},{"uri":"../../../../images/textures/polyhaven/plastered_wall_04_nor_gl.jpg"}],"textures":[{"source":0},{"source":1},{"source":2},{"source":3},{"source":4},{"source":5},{"source":6},{"source":7},{"source":8},{"source":9},{"source":10},{"source":11},{"source":12},{"source":13},{"source":14},{"source":15},{"source":16},{"source":17},{"source":18},{"source":19},{"source":20},{"source":21},{"source":22},{"source":23},{"source":24},{"source":25},{"source":26},{"source":27},{"source":28},{"source":29},{"source":30},{"source":31},{"source":32}]}