{"asset":{"version":"2.0","generator":"red-valve/hospital"},"scene":0,"scenes":[{"nodes":[0,1,2,3,4,5,6,7,8,9,10,11,12,13,14,15,16]}],"nodes":[{"name":"por_00_00","mesh":0},{"name":"por_01_00","mesh":1},{"name":"por_02_00","mesh":2},{"name":"por_03_00","mesh":3},{"name":"por_01_01","mesh":4},{"name":"por_03_01","mesh":5},{"name":"por_02_01","mesh":6},{"name":"por_00_01","mesh":7},{"name":"por_00_02","mesh":8},{"name":"por_01_02","mesh":9},{"name":"por_02_02","mesh":10},{"name":"por_03_02","mesh":11},{"name":"por_01_03","mesh":12},{"name":"por_02_03","mesh":13},{"name":"por_03_03","mesh":14},{"name":"por_00_03","mesh":15},{"name":"por_-1_00","mesh":16}],"meshes":[{"name":"por_00_00","primitives":[{"attributes":{"POSITION":0,"NORMAL":1,"TEXCOORD_0":2},"indices":3,"material":7},{"attributes":{"POSITION":4,"NORMAL":5,"TEXCOORD_0":6},"indices":7,"material":8},{"attributes":{"POSITION":8,"NORMAL":9,"TEXCOORD_0":10},"indices":11,"material":9},{"attributes":{"POSITION":12,"NORMAL":13,"TEXCOORD_0":14},"indices":15,"material":11},{"attributes":{"POSITION":16,"NORMAL":17,"TEXCOORD_0":18},"indices":19,"material":12},{"attributes":{"POSITION":20,"NORMAL":21,"TEXCOORD_0":22},"indices":23,"material":13},{"attributes":{"POSITION":24,"NORMAL":25,"TEXCOORD_0":26},"indices":27,"material":14},{"attributes":{"POSITION":28,"NORMAL":29,"TEXCOORD_0":30},"indices":31,"material":15}]},{"name":"por_01_00","primitives":[{"attributes":{"POSITION":32,"NORMAL":33,"TEXCOORD_0":34},"indices":35,"material":7},{"attributes":{"POSITION":36,"NORMAL":37,"TEXCOORD_0":38},"indices":39,"material":8},{"attributes":{"POSITION":40,"NORMAL":41,"TEXCOORD_0":42},"indices":43,"material":11},{"attributes":{"POSITION":44,"NORMAL":45,"TEXCOORD_0":46},"indices":47,"material":12},{"attributes":{"POSITION":48,"NORMAL":49,"TEXCOORD_0":50},"indices":51,"material":13},{"attributes":{"POSITION":52,"NORMAL":53,"TEXCOORD_0":54},"indices":55,"material":14},{"attributes":{"POSITION":56,"NORMAL":57,"TEXCOORD_0":58},"indices":59,"material":15}]},{"name":"por_02_00","primitives":[{"attributes":{"POSITION":60,"NORMAL":61,"TEXCOORD_0":62},"indices":63,"material":7},{"attributes":{"POSITION":64,"NORMAL":65,"TEXCOORD_0":66},"indices":67,"material":8},{"attributes":{"POSITION":68,"NORMAL":69,"TEXCOORD_0":70},"indices":71,"material":11},{"attributes":{"POSITION":72,"NORMAL":73,"TEXCOORD_0":74},"indices":75,"material":12},{"attributes":{"POSITION":76,"NORMAL":77,"TEXCOORD_0":78},"indices":79,"material":13},{"attributes":{"POSITION":80,"NORMAL":81,"TEXCOORD_0":82},"indices":83,"material":14},{"attributes":{"POSITION":84,"NORMAL":85,"TEXCOORD_0":86},"indices":87,"material":15}]},{"name":"por_03_00","primitives":[{"attributes":{"POSITION":88,"NORMAL":89,"TEXCOORD_0":90},"indices":91,"material":7},{"attributes":{"POSITION":92,"NORMAL":93,"TEXCOORD_0":94},"indices":95,"material":8},{"attributes":{"POSITION":96,"NORMAL":97,"TEXCOORD_0":98},"indices":99,"material":11},{"attributes":{"POSITION":100,"NORMAL":101,"TEXCOORD_0":102},"indices":103,"material":12},{"attributes":{"POSITION":104,"NORMAL":105,"TEXCOORD_0":106},"indices":107,"material":13},{"attributes":{"POSITION":108,"NORMAL":109,"TEXCOORD_0":110},"indices":111,"material":14},{"attributes":{"POSITION":112,"NORMAL":113,"TEXCOORD_0":114},"indices":115,"material":15}]},{"name":"por_01_01","primitives":[{"attributes":{"POSITION":116,"NORMAL":117,"TEXCOORD_0":118},"indices":119,"material":7},{"attributes":{"POSITION":120,"NORMAL":121,"TEXCOORD_0":122},"indices":123,"material":8},{"attributes":{"POSITION":124,"NORMAL":125,"TEXCOORD_0":126},"indices":127,"material":11},{"attributes":{"POSITION":128,"NORMAL":129,"TEXCOORD_0":130},"indices":131,"material":12},{"attributes":{"POSITION":132,"NORMAL":133,"TEXCOORD_0":134},"indices":135,"material":13},{"attributes":{"POSITION":136,"NORMAL":137,"TEXCOORD_0":138},"indices":139,"material":14},{"attributes":{"POSITION":140,"NORMAL":141,"TEXCOORD_0":142},"indices":143,"material":15}]},{"name":"por_03_01","primitives":[{"attributes":{"POSITION":144,"NORMAL":145,"TEXCOORD_0":146},"indices":147,"material":7},{"attributes":{"POSITION":148,"NORMAL":149,"TEXCOORD_0":150},"indices":151,"material":8},{"attributes":{"POSITION":152,"NORMAL":153,"TEXCOORD_0":154},"indices":155,"material":11},{"attributes":{"POSITION":156,"NORMAL":157,"TEXCOORD_0":158},"indices":159,"material":12},{"attributes":{"POSITION":160,"NORMAL":161,"TEXCOORD_0":162},"indices":163,"material":13},{"attributes":{"POSITION":164,"NORMAL":165,"TEXCOORD_0":166},"indices":167,"material":14},{"attributes":{"POSITION":168,"NORMAL":169,"TEXCOORD_0":170},"indices":171,"material":15}]},{"name":"por_02_01","primitives":[{"attributes":{"POSITION":172,"NORMAL":173,"TEXCOORD_0":174},"indices":175,"material":7},{"attributes":{"POSITION":176,"NORMAL":177,"TEXCOORD_0":178},"indices":179,"material":8},{"attributes":{"POSITION":180,"NORMAL":181,"TEXCOORD_0":182},"indices":183,"material":11},{"attributes":{"POSITION":184,"NORMAL":185,"TEXCOORD_0":186},"indices":187,"material":12},{"attributes":{"POSITION":188,"NORMAL":189,"TEXCOORD_0":190},"indices":191,"material":13},{"attributes":{"POSITION":192,"NORMAL":193,"TEXCOORD_0":194},"indices":195,"material":14},{"attributes":{"POSITION":196,"NORMAL":197,"TEXCOORD_0":198},"indices":199,"material":15}]},{"name":"por_00_01","primitives":[{"attributes":{"POSITION":200,"NORMAL":201,"TEXCOORD_0":202},"indices":203,"material":7},{"attributes":{"POSITION":204,"NORMAL":205,"TEXCOORD_0":206},"indices":207,"material":8},{"attributes":{"POSITION":208,"NORMAL":209,"TEXCOORD_0":210},"indices":211,"material":11},{"attributes":{"POSITION":212,"NORMAL":213,"TEXCOORD_0":214},"indices":215,"material":12},{"attributes":{"POSITION":216,"NORMAL":217,"TEXCOORD_0":218},"indices":219,"material":14},{"attributes":{"POSITION":220,"NORMAL":221,"TEXCOORD_0":222},"indices":223,"material":15}]},{"name":"por_00_02","primitives":[{"attributes":{"POSITION":224,"NORMAL":225,"TEXCOORD_0":226},"indices":227,"material":7},{"attributes":{"POSITION":228,"NORMAL":229,"TEXCOORD_0":230},"indices":231,"material":8},{"attributes":{"POSITION":232,"NORMAL":233,"TEXCOORD_0":234},"indices":235,"material":11},{"attributes":{"POSITION":236,"NORMAL":237,"TEXCOORD_0":238},"indices":239,"material":12},{"attributes":{"POSITION":240,"NORMAL":241,"TEXCOORD_0":242},"indices":243,"material":13},{"attributes":{"POSITION":244,"NORMAL":245,"TEXCOORD_0":246},"indices":247,"material":14},{"attributes":{"POSITION":248,"NORMAL":249,"TEXCOORD_0":250},"indices":251,"material":15}]},{"name":"por_01_02","primitives":[{"attributes":{"POSITION":252,"NORMAL":253,"TEXCOORD_0":254},"indices":255,"material":7},{"attributes":{"POSITION":256,"NORMAL":257,"TEXCOORD_0":258},"indices":259,"material":8},{"attributes":{"POSITION":260,"NORMAL":261,"TEXCOORD_0":262},"indices":263,"material":11},{"attributes":{"POSITION":264,"NORMAL":265,"TEXCOORD_0":266},"indices":267,"material":12},{"attributes":{"POSITION":268,"NORMAL":269,"TEXCOORD_0":270},"indices":271,"material":13},{"attributes":{"POSITION":272,"NORMAL":273,"TEXCOORD_0":274},"indices":275,"material":14},{"attributes":{"POSITION":276,"NORMAL":277,"TEXCOORD_0":278},"indices":279,"material":15}]},{"name":"por_02_02","primitives":[{"attributes":{"POSITION":280,"NORMAL":281,"TEXCOORD_0":282},"indices":283,"material":7},{"attributes":{"POSITION":284,"NORMAL":285,"TEXCOORD_0":286},"indices":287,"material":8},{"attributes":{"POSITION":288,"NORMAL":289,"TEXCOORD_0":290},"indices":291,"material":11},{"attributes":{"POSITION":292,"NORMAL":293,"TEXCOORD_0":294},"indices":295,"material":12},{"attributes":{"POSITION":296,"NORMAL":297,"TEXCOORD_0":298},"indices":299,"material":13},{"attributes":{"POSITION":300,"NORMAL":301,"TEXCOORD_0":302},"indices":303,"material":14},{"attributes":{"POSITION":304,"NORMAL":305,"TEXCOORD_0":306},"indices":307,"material":15}]},{"name":"por_03_02","primitives":[{"attributes":{"POSITION":308,"NORMAL":309,"TEXCOORD_0":310},"indices":311,"material":8},{"attributes":{"POSITION":312,"NORMAL":313,"TEXCOORD_0":314},"indices":315,"material":11},{"attributes":{"POSITION":316,"NORMAL":317,"TEXCOORD_0":318},"indices":319,"material":12},{"attributes":{"POSITION":320,"NORMAL":321,"TEXCOORD_0":322},"indices":323,"material":14},{"attributes":{"POSITION":324,"NORMAL":325,"TEXCOORD_0":326},"indices":327,"material":15}]},{"name":"por_01_03","primitives":[{"attributes":{"POSITION":328,"NORMAL":329,"TEXCOORD_0":330},"indices":331,"material":7},{"attributes":{"POSITION":332,"NORMAL":333,"TEXCOORD_0":334},"indices":335,"material":8},{"attributes":{"POSITION":336,"NORMAL":337,"TEXCOORD_0":338},"indices":339,"material":11},{"attributes":{"POSITION":340,"NORMAL":341,"TEXCOORD_0":342},"indices":343,"material":12},{"attributes":{"POSITION":344,"NORMAL":345,"TEXCOORD_0":346},"indices":347,"material":13},{"attributes":{"POSITION":348,"NORMAL":349,"TEXCOORD_0":350},"indices":351,"material":14},{"attributes":{"POSITION":352,"NORMAL":353,"TEXCOORD_0":354},"indices":355,"material":15}]},{"name":"por_02_03","primitives":[{"attributes":{"POSITION":356,"NORMAL":357,"TEXCOORD_0":358},"indices":359,"material":8},{"attributes":{"POSITION":360,"NORMAL":361,"TEXCOORD_0":362},"indices":363,"material":12},{"attributes":{"POSITION":364,"NORMAL":365,"TEXCOORD_0":366},"indices":367,"material":14},{"attributes":{"POSITION":368,"NORMAL":369,"TEXCOORD_0":370},"indices":371,"material":15}]},{"name":"por_03_03","primitives":[{"attributes":{"POSITION":372,"NORMAL":373,"TEXCOORD_0":374},"indices":375,"material":7},{"attributes":{"POSITION":376,"NORMAL":377,"TEXCOORD_0":378},"indices":379,"material":8},{"attributes":{"POSITION":380,"NORMAL":381,"TEXCOORD_0":382},"indices":383,"material":9},{"attributes":{"POSITION":384,"NORMAL":385,"TEXCOORD_0":386},"indices":387,"material":11},{"attributes":{"POSITION":388,"NORMAL":389,"TEXCOORD_0":390},"indices":391,"material":12},{"attributes":{"POSITION":392,"NORMAL":393,"TEXCOORD_0":394},"indices":395,"material":14},{"attributes":{"POSITION":396,"NORMAL":397,"TEXCOORD_0":398},"indices":399,"material":15}]},{"name":"por_00_03","primitives":[{"attributes":{"POSITION":400,"NORMAL":401,"TEXCOORD_0":402},"indices":403,"material":14}]},{"name":"por_-1_00","primitives":[{"attributes":{"POSITION":404,"NORMAL":405,"TEXCOORD_0":406},"indices":407,"material":9}]}],"materials":[{"name":"lum_bulbo","pbrMetallicRoughness":{"baseColorFactor":[0.92,0.8,0.56,1.0],"metallicFactor":0.0,"roughnessFactor":0.22},"doubleSided":false,"emissiveFactor":[1.0,0.62,0.26]},{"name":"lum_bulbo_morto","pbrMetallicRoughness":{"baseColorFactor":[0.34,0.31,0.26,1.0],"metallicFactor":0.0,"roughnessFactor":0.5},"doubleSided":false},{"name":"lum_corpo","pbrMetallicRoughness":{"baseColorFactor":[0.58,0.59,0.57,1.0],"metallicFactor":0.4,"roughnessFactor":0.55},"doubleSided":false},{"name":"lum_fio","pbrMetallicRoughness":{"baseColorFactor":[0.1,0.09,0.08,1.0],"metallicFactor":0.0,"roughnessFactor":0.8},"doubleSided":false},{"name":"lum_tubo_aceso","pbrMetallicRoughness":{"baseColorFactor":[0.88,0.93,0.88,1.0],"metallicFactor":0.0,"roughnessFactor":0.25},"doubleSided":false,"emissiveFactor":[0.7,0.86,0.74]},{"name":"lum_tubo_morto","pbrMetallicRoughness":{"baseColorFactor":[0.4,0.42,0.4,1.0],"metallicFactor":0.0,"roughnessFactor":0.45},"doubleSided":false},{"name":"lum_vermelha","pbrMetallicRoughness":{"baseColorFactor":[0.58,0.1,0.08,1.0],"metallicFactor":0.0,"roughnessFactor":0.4},"doubleSided":false,"emissiveFactor":[0.88,0.1,0.06]},{"name":"po_cascalho","pbrMetallicRoughness":{"baseColorFactor":[0.44,0.39,0.32,1.0],"metallicFactor":0.0,"roughnessFactor":1.0,"baseColorTexture":{"index":0},"metallicRoughnessTexture":{"index":1}},"doubleSided":false,"occlusionTexture":{"index":1},"normalTexture":{"index":2}},{"name":"po_chao","pbrMetallicRoughness":{"baseColorFactor":[0.46,0.38,0.28,1.0],"metallicFactor":0.0,"roughnessFactor":1.0,"baseColorTexture":{"index":3},"metallicRoughnessTexture":{"index":4}},"doubleSided":false,"occlusionTexture":{"index":4},"normalTexture":{"index":5}},{"name":"po_escuro","pbrMetallicRoughness":{"baseColorFactor":[0.01,0.01,0.012,1.0],"metallicFactor":0.0,"roughnessFactor":0.95},"doubleSided":false},{"name":"po_ferro","pbrMetallicRoughness":{"baseColorFactor":[0.36,0.3,0.25,1.0],"metallicFactor":0.6,"roughnessFactor":0.68,"baseColorTexture":{"index":6},"metallicRoughnessTexture":{"index":7}},"doubleSided":false,"occlusionTexture":{"index":7},"normalTexture":{"index":8}},{"name":"po_pedra","pbrMetallicRoughness":{"baseColorFactor":[0.42,0.4,0.37,1.0],"metallicFactor":0.0,"roughnessFactor":0.98,"baseColorTexture":{"index":9},"metallicRoughnessTexture":{"index":10}},"doubleSided":false,"occlusionTexture":{"index":10},"normalTexture":{"index":11}},{"name":"po_raiz","pbrMetallicRoughness":{"baseColorFactor":[0.22,0.18,0.12,1.0],"metallicFactor":0.0,"roughnessFactor":0.96},"doubleSided":false},{"name":"po_tabua","pbrMetallicRoughness":{"baseColorFactor":[0.34,0.26,0.18,1.0],"metallicFactor":0.0,"roughnessFactor":0.94,"baseColorTexture":{"index":12},"metallicRoughnessTexture":{"index":13}},"doubleSided":false,"occlusionTexture":{"index":13},"normalTexture":{"index":14}},{"name":"po_terra","pbrMetallicRoughness":{"baseColorFactor":[0.4,0.31,0.22,1.0],"metallicFactor":0.0,"roughnessFactor":1.0,"baseColorTexture":{"index":15},"metallicRoughnessTexture":{"index":16}},"doubleSided":false,"occlusionTexture":{"index":16},"normalTexture":{"index":17}},{"name":"po_teto","pbrMetallicRoughness":{"baseColorFactor":[0.3,0.24,0.18,1.0],"metallicFactor":0.0,"roughnessFactor":1.0,"baseColorTexture":{"index":15},"metallicRoughnessTexture":{"index":16}},"doubleSided":false,"occlusionTexture":{"index":16},"normalTexture":{"index":17}}],"accessors":[{"bufferView":0,"componentType":5126,"count":312,"type":"VEC3","min":[1.1999999999999993,-0.5,6.0],"max":[20.884212418060105,2.204665811481131,13.0]},{"bufferView":1,"componentType":5126,"count":312,"type":"VEC3","min":[-1.0,-1,-1.0],"max":[1.0,1,1.0]},{"bufferView":2,"componentType":5126,"count":312,"type":"VEC2","min":[0.5999999999999996,-0.25],"max":[14.917294584328648,9.285714285714286]},{"bufferView":3,"componentType":5125,"count":468,"type":"SCALAR"},{"bufferView":4,"componentType":5126,"count":192,"type":"VEC3","min":[4.0,-0.6,6.0],"max":[24.0,0.0,14.0]},{"bufferView":5,"componentType":5126,"count":192,"type":"VEC3","min":[-1.0,-1,-1.0],"max":[1.0,1,1.0]},{"bufferView":6,"componentType":5126,"count":192,"type":"VEC2","min":[1.3333333333333333,-0.19999999999999998],"max":[8.0,4.666666666666667]},{"bufferView":7,"componentType":5125,"count":288,"type":"SCALAR"},{"bufferView":8,"componentType":5126,"count":24,"type":"VEC3","min":[0.0,0.8000000000000003,6.4],"max":[2.6,3.6,9.6]},{"bufferView":9,"componentType":5126,"count":24,"type":"VEC3","min":[-1.0,-1,-1.0],"max":[1.0,1,1.0]},{"bufferView":10,"componentType":5126,"count":24,"type":"VEC2","min":[0.0,0.40000000000000013],"max":[4.8,4.8]},{"bufferView":11,"componentType":5125,"count":36,"type":"SCALAR"},{"bufferView":12,"componentType":5126,"count":216,"type":"VEC3","min":[3.2687772050070514,-0.6000000000000001,6.0],"max":[24.0,3.2,15.18389343233747]},{"bufferView":13,"componentType":5126,"count":216,"type":"VEC3","min":[-1.0,-1,-1.0],"max":[1.0,1,1.0]},{"bufferView":14,"componentType":5126,"count":216,"type":"VEC2","min":[1.257222001925789,-0.23076923076923078],"max":[9.23076923076923,7.857142857142858]},{"bufferView":15,"componentType":5125,"count":324,"type":"SCALAR"},{"bufferView":16,"componentType":5126,"count":144,"type":"VEC3","min":[7.518001437993141,1.584122900840338,6.6417230365589885],"max":[22.591040857717857,2.6000000000000005,10.570632975244283]},{"bufferView":17,"componentType":5126,"count":144,"type":"VEC3","min":[-1.0,-1,-1.0],"max":[1.0,1,1.0]},{"bufferView":18,"componentType":5126,"count":144,"type":"VEC2","min":[11.069538394264981,2.6402048347338964],"max":[37.6517347628631,17.61772162540714]},{"bufferView":19,"componentType":5125,"count":216,"type":"SCALAR"},{"bufferView":20,"componentType":5126,"count":144,"type":"VEC3","min":[10.88,0.0,6.5],"max":[21.12,2.54,13.0]},{"bufferView":21,"componentType":5126,"count":144,"type":"VEC3","min":[-1.0,-1,-1.0],"max":[1.0,1,1.0]},{"bufferView":22,"componentType":5126,"count":144,"type":"VEC2","min":[6.5,0.0],"max":[21.12,13.0]},{"bufferView":23,"componentType":5125,"count":216,"type":"SCALAR"},{"bufferView":24,"componentType":5126,"count":384,"type":"VEC3","min":[4.0,-0.6000000000000001,4.738679928864663],"max":[24.0,3.2,17.0]},{"bufferView":25,"componentType":5126,"count":384,"type":"VEC3","min":[-1.0,-1,-1.0],"max":[1.0,1,1.0]},{"bufferView":26,"componentType":5126,"count":384,"type":"VEC2","min":[1.5384615384615383,-0.23076923076923078],"max":[9.23076923076923,6.538461538461538]},{"bufferView":27,"componentType":5125,"count":576,"type":"SCALAR"},{"bufferView":28,"componentType":5126,"count":192,"type":"VEC3","min":[4.0,2.6000000000000005,6.0],"max":[24.0,3.2,14.0]},{"bufferView":29,"componentType":5126,"count":192,"type":"VEC3","min":[-1.0,-1,-1.0],"max":[1.0,1,1.0]},{"bufferView":30,"componentType":5126,"count":192,"type":"VEC2","min":[1.1764705882352942,0.7647058823529413],"max":[7.0588235294117645,4.11764705882353]},{"bufferView":31,"componentType":5125,"count":288,"type":"SCALAR"},{"bufferView":32,"componentType":5126,"count":192,"type":"VEC3","min":[24.228307560187396,0.4460943897483106,7.0],"max":[46.507694608714374,2.4695314600520355,24.0]},{"bufferView":33,"componentType":5126,"count":192,"type":"VEC3","min":[-1.0,-1,-1.0],"max":[1.0,1,1.0]},{"bufferView":34,"componentType":5126,"count":192,"type":"VEC2","min":[5.0,0.3186388498202219],"max":[33.21978186336741,17.142857142857142]},{"bufferView":35,"componentType":5125,"count":288,"type":"SCALAR"},{"bufferView":36,"componentType":5126,"count":528,"type":"VEC3","min":[24.0,-0.6,7.0],"max":[48.0,0.0,24.0]},{"bufferView":37,"componentType":5126,"count":528,"type":"VEC3","min":[-1.0,-1,-1.0],"max":[1.0,1,1.0]},{"bufferView":38,"componentType":5126,"count":528,"type":"VEC2","min":[2.3333333333333335,-0.19999999999999998],"max":[16.0,8.0]},{"bufferView":39,"componentType":5125,"count":792,"type":"SCALAR"},{"bufferView":40,"componentType":5126,"count":192,"type":"VEC3","min":[24.0,-0.6000000000000001,9.936592314323121],"max":[48.0,3.2,23.230038085780883]},{"bufferView":41,"componentType":5126,"count":192,"type":"VEC3","min":[-1.0,-1,-1.0],"max":[1.0,1,1.0]},{"bufferView":42,"componentType":5126,"count":192,"type":"VEC2","min":[3.821766274739662,-0.23076923076923078],"max":[27.565308046362272,16.592884346986345]},{"bufferView":43,"componentType":5125,"count":288,"type":"SCALAR"},{"bufferView":44,"componentType":5126,"count":264,"type":"VEC3","min":[24.48625576473407,1.8442771923125425,8.607661690204957],"max":[47.30988224373804,2.6000000000000005,23.73579423520749]},{"bufferView":45,"componentType":5126,"count":264,"type":"VEC3","min":[-1.0,-1,-1.0],"max":[1.0,1,1.0]},{"bufferView":46,"componentType":5126,"count":264,"type":"VEC2","min":[14.346102817008262,3.073795320520904],"max":[78.8498037395634,39.55965705867915]},{"bufferView":47,"componentType":5125,"count":396,"type":"SCALAR"},{"bufferView":48,"componentType":5126,"count":168,"type":"VEC3","min":[26.0,0.0,17.38],"max":[46.12,2.54,24.0]},{"bufferView":49,"componentType":5126,"count":168,"type":"VEC3","min":[-1.0,-1,-1.0],"max":[1.0,1,1.0]},{"bufferView":50,"componentType":5126,"count":168,"type":"VEC2","min":[17.38,0.0],"max":[46.12,24.0]},{"bufferView":51,"componentType":5125,"count":252,"type":"SCALAR"},{"bufferView":52,"componentType":5126,"count":1008,"type":"VEC3","min":[24.0,-0.6000000000000001,6.173113787706724],"max":[48.0,3.2,24.0]},{"bufferView":53,"componentType":5126,"count":1008,"type":"VEC3","min":[-1.0,-1,-1.0],"max":[1.0,1,1.0]},{"bufferView":54,"componentType":5126,"count":1008,"type":"VEC2","min":[2.374274533733355,-0.23076923076923078],"max":[18.46153846153846,9.23076923076923]},{"bufferView":55,"componentType":5125,"count":1512,"type":"SCALAR"},{"bufferView":56,"componentType":5126,"count":528,"type":"VEC3","min":[24.0,2.6000000000000005,7.0],"max":[48.0,3.2,24.0]},{"bufferView":57,"componentType":5126,"count":528,"type":"VEC3","min":[-1.0,-1,-1.0],"max":[1.0,1,1.0]},{"bufferView":58,"componentType":5126,"count":528,"type":"VEC2","min":[2.058823529411765,0.7647058823529413],"max":[14.117647058823529,7.0588235294117645]},{"bufferView":59,"componentType":5125,"count":792,"type":"SCALAR"},{"bufferView":60,"componentType":5126,"count":264,"type":"VEC3","min":[49.0,0.12697192500426635,10.0],"max":[71.35018966001341,2.17231924566784,23.0]},{"bufferView":61,"componentType":5126,"count":264,"type":"VEC3","min":[-1.0,-1,-1.0],"max":[1.0,1,1.0]},{"bufferView":62,"componentType":5126,"count":264,"type":"VEC2","min":[7.142857142857143,0.09069423214590454],"max":[50.96442118572387,16.42857142857143]},{"bufferView":63,"componentType":5125,"count":396,"type":"SCALAR"},{"bufferView":64,"componentType":5126,"count":552,"type":"VEC3","min":[48.0,-0.6,9.0],"max":[72.0,0.0,24.0]},{"bufferView":65,"componentType":5126,"count":552,"type":"VEC3","min":[-1.0,-1,-1.0],"max":[1.0,1,1.0]},{"bufferView":66,"componentType":5126,"count":552,"type":"VEC2","min":[3.0,-0.19999999999999998],"max":[24.0,8.0]},{"bufferView":67,"componentType":5125,"count":828,"type":"SCALAR"},{"bufferView":68,"componentType":5126,"count":216,"type":"VEC3","min":[48.0,-0.6000000000000001,14.0],"max":[72.0,3.2,24.0]},{"bufferView":69,"componentType":5126,"count":216,"type":"VEC3","min":[-1.0,-1,-1.0],"max":[1.0,1,1.0]},{"bufferView":70,"componentType":5126,"count":216,"type":"VEC2","min":[5.384615384615384,-0.23076923076923078],"max":[48.33610016216093,14.285714285714286]},{"bufferView":71,"componentType":5125,"count":324,"type":"SCALAR"},{"bufferView":72,"componentType":5126,"count":360,"type":"VEC3","min":[48.262186244115625,1.5934039147687868,10.301109990626482],"max":[71.53584595714874,2.6000000000000005,22.614560559323447]},{"bufferView":73,"componentType":5126,"count":360,"type":"VEC3","min":[-1.0,-1,-1.0],"max":[1.0,1,1.0]},{"bufferView":74,"componentType":5126,"count":360,"type":"VEC2","min":[17.16851665104414,2.6556731912813114],"max":[119.22640992858123,37.69093426553908]},{"bufferView":75,"componentType":5125,"count":540,"type":"SCALAR"},{"bufferView":76,"componentType":5126,"count":144,"type":"VEC3","min":[57.88,0.0,14.5],"max":[69.12,2.54,20.0]},{"bufferView":77,"componentType":5126,"count":144,"type":"VEC3","min":[-1.0,-1,-1.0],"max":[1.0,1,1.0]},{"bufferView":78,"componentType":5126,"count":144,"type":"VEC2","min":[14.5,0.0],"max":[69.12,20.0]},{"bufferView":79,"componentType":5125,"count":216,"type":"SCALAR"},{"bufferView":80,"componentType":5126,"count":1104,"type":"VEC3","min":[48.0,-0.6000000000000001,8.0],"max":[72.0,3.2,23.948382854919835]},{"bufferView":81,"componentType":5126,"count":1104,"type":"VEC3","min":[-1.0,-1,-1.0],"max":[1.0,1,1.0]},{"bufferView":82,"componentType":5126,"count":1104,"type":"VEC2","min":[3.0769230769230766,-0.23076923076923078],"max":[27.69230769230769,9.210916482661474]},{"bufferView":83,"componentType":5125,"count":1656,"type":"SCALAR"},{"bufferView":84,"componentType":5126,"count":552,"type":"VEC3","min":[48.0,2.6000000000000005,9.0],"max":[72.0,3.2,24.0]},{"bufferView":85,"componentType":5126,"count":552,"type":"VEC3","min":[-1.0,-1,-1.0],"max":[1.0,1,1.0]},{"bufferView":86,"componentType":5126,"count":552,"type":"VEC2","min":[2.6470588235294117,0.7647058823529413],"max":[21.176470588235293,7.0588235294117645]},{"bufferView":87,"componentType":5125,"count":828,"type":"SCALAR"},{"bufferView":88,"componentType":5126,"count":24,"type":"VEC3","min":[77.63772114168208,1.5530918583664644,20.690180826109668],"max":[78.0,2.303526251112351,21.343684708914473]},{"bufferView":89,"componentType":5126,"count":24,"type":"VEC3","min":[-1.0,-1,-1.0],"max":[1.0,1,1.0]},{"bufferView":90,"componentType":5126,"count":24,"type":"VEC2","min":[14.778700590078335,1.1093513274046174],"max":[55.714285714285715,15.245489077796053]},{"bufferView":91,"componentType":5125,"count":36,"type":"SCALAR"},{"bufferView":92,"componentType":5126,"count":216,"type":"VEC3","min":[72.0,-0.6,15.0],"max":[79.0,0.0,24.0]},{"bufferView":93,"componentType":5126,"count":216,"type":"VEC3","min":[-1.0,-1,-1.0],"max":[1.0,1,1.0]},{"bufferView":94,"componentType":5126,"count":216,"type":"VEC2","min":[5.0,-0.19999999999999998],"max":[26.333333333333332,8.0]},{"bufferView":95,"componentType":5125,"count":324,"type":"SCALAR"},{"bufferView":96,"componentType":5126,"count":96,"type":"VEC3","min":[72.0,-0.6000000000000001,15.0],"max":[77.0,3.2,21.77451393762265]},{"bufferView":97,"componentType":5126,"count":96,"type":"VEC3","min":[-1.0,-1,-1.0],"max":[1.0,1,1.0]},{"bufferView":98,"componentType":5126,"count":96,"type":"VEC2","min":[5.769230769230769,-0.23076923076923078],"max":[54.60670560374916,11.693374624772487]},{"bufferView":99,"componentType":5125,"count":144,"type":"SCALAR"},{"bufferView":100,"componentType":5126,"count":96,"type":"VEC3","min":[72.14937323455926,1.6335336635578215,16.703736494137836],"max":[75.46556253596194,2.6000000000000005,23.781015764825753]},{"bufferView":101,"componentType":5126,"count":96,"type":"VEC3","min":[-1.0,-1,-1.0],"max":[1.0,1,1.0]},{"bufferView":102,"componentType":5126,"count":96,"type":"VEC2","min":[27.839560823563062,2.7225561059297028],"max":[125.77593755993657,39.63502627470959]},{"bufferView":103,"componentType":5125,"count":144,"type":"SCALAR"},{"bufferView":104,"componentType":5126,"count":72,"type":"VEC3","min":[74.0,0.0,22.88],"max":[78.0,2.54,23.12]},{"bufferView":105,"componentType":5126,"count":72,"type":"VEC3","min":[-1.0,-1,-1.0],"max":[1.0,1,1.0]},{"bufferView":106,"componentType":5126,"count":72,"type":"VEC2","min":[22.88,0.0],"max":[78.0,23.12]},{"bufferView":107,"componentType":5125,"count":108,"type":"SCALAR"},{"bufferView":108,"componentType":5126,"count":264,"type":"VEC3","min":[72.0,-0.6000000000000001,13.905376429353261],"max":[79.76857471310376,3.2,24.0]},{"bufferView":109,"componentType":5126,"count":264,"type":"VEC3","min":[-1.0,-1,-1.0],"max":[1.0,1,1.0]},{"bufferView":110,"componentType":5126,"count":264,"type":"VEC2","min":[5.348221703597408,-0.23076923076923078],"max":[30.680221043501444,9.23076923076923]},{"bufferView":111,"componentType":5125,"count":396,"type":"SCALAR"},{"bufferView":112,"componentType":5126,"count":216,"type":"VEC3","min":[72.0,2.6000000000000005,15.0],"max":[79.0,3.2,24.0]},{"bufferView":113,"componentType":5126,"count":216,"type":"VEC3","min":[-1.0,-1,-1.0],"max":[1.0,1,1.0]},{"bufferView":114,"componentType":5126,"count":216,"type":"VEC2","min":[4.411764705882353,0.7647058823529413],"max":[23.235294117647058,7.0588235294117645]},{"bufferView":115,"componentType":5125,"count":324,"type":"SCALAR"},{"bufferView":116,"componentType":5126,"count":168,"type":"VEC3","min":[25.733633985492002,1.04444832065345,24.796288526049352],"max":[48.0,4.399974811469484,45.27119558572605]},{"bufferView":117,"componentType":5126,"count":168,"type":"VEC3","min":[-1.0,-1,-1.0],"max":[1.0,1,1.0]},{"bufferView":118,"componentType":5126,"count":168,"type":"VEC2","min":[17.711634661463822,0.7460345147524644],"max":[34.285714285714285,32.33656827551861]},{"bufferView":119,"componentType":5125,"count":252,"type":"SCALAR"},{"bufferView":120,"componentType":5126,"count":384,"type":"VEC3","min":[24.0,-0.6,24.0],"max":[48.0,0.0,48.0]},{"bufferView":121,"componentType":5126,"count":384,"type":"VEC3","min":[-1.0,-1,-1.0],"max":[1.0,1,1.0]},{"bufferView":122,"componentType":5126,"count":384,"type":"VEC2","min":[8.0,-0.19999999999999998],"max":[16.0,16.0]},{"bufferView":123,"componentType":5125,"count":576,"type":"SCALAR"},{"bufferView":124,"componentType":5126,"count":168,"type":"VEC3","min":[39.0,-0.6000000000000001,24.61548126751019],"max":[48.0,3.8145775155657953,45.30781176577558]},{"bufferView":125,"componentType":5126,"count":168,"type":"VEC3","min":[-1.0,-1,-1.0],"max":[1.0,1,1.0]},{"bufferView":126,"componentType":5126,"count":168,"type":"VEC2","min":[9.615384615384615,-0.23076923076923078],"max":[34.285714285714285,32.36272268983971]},{"bufferView":127,"componentType":5125,"count":252,"type":"SCALAR"},{"bufferView":128,"componentType":5126,"count":840,"type":"VEC3","min":[24.290169371658234,1.7400467733586547,24.263045088180164],"max":[47.31840557370426,5.200000000000001,47.712165362040984]},{"bufferView":129,"componentType":5126,"count":840,"type":"VEC3","min":[-1.0,-1,-1.0],"max":[1.0,1,1.0]},{"bufferView":130,"componentType":5126,"count":840,"type":"VEC2","min":[40.438408480300275,2.900077955597758],"max":[79.52027560340164,79.52027560340164]},{"bufferView":131,"componentType":5125,"count":1260,"type":"SCALAR"},{"bufferView":132,"componentType":5126,"count":96,"type":"VEC3","min":[34.88,0.0,24.0],"max":[46.12,2.54,25.5]},{"bufferView":133,"componentType":5126,"count":96,"type":"VEC3","min":[-1.0,-1,-1.0],"max":[1.0,1,1.0]},{"bufferView":134,"componentType":5126,"count":96,"type":"VEC2","min":[24.0,0.0],"max":[46.12,25.5]},{"bufferView":135,"componentType":5125,"count":144,"type":"SCALAR"},{"bufferView":136,"componentType":5126,"count":408,"type":"VEC3","min":[24.0,-0.6000000000000001,24.0],"max":[48.0,5.8,39.0]},{"bufferView":137,"componentType":5126,"count":408,"type":"VEC3","min":[-1.0,-1,-1.0],"max":[1.0,1,1.0]},{"bufferView":138,"componentType":5126,"count":408,"type":"VEC2","min":[9.23076923076923,-0.23076923076923078],"max":[18.46153846153846,15.0]},{"bufferView":139,"componentType":5125,"count":612,"type":"SCALAR"},{"bufferView":140,"componentType":5126,"count":456,"type":"VEC3","min":[24.0,2.6000000000000005,24.0],"max":[48.0,5.8,48.0]},{"bufferView":141,"componentType":5126,"count":456,"type":"VEC3","min":[-1.0,-1,-1.0],"max":[1.0,1,1.0]},{"bufferView":142,"componentType":5126,"count":456,"type":"VEC2","min":[7.0588235294117645,0.7647058823529413],"max":[14.117647058823529,14.117647058823529]},{"bufferView":143,"componentType":5125,"count":684,"type":"SCALAR"},{"bufferView":144,"componentType":5126,"count":24,"type":"VEC3","min":[73.07156731281196,1.9166287535737785,28.0],"max":[74.32709624405373,2.2919882854629634,28.155262323467554]},{"bufferView":145,"componentType":5126,"count":24,"type":"VEC3","min":[-1.0,-1,-1.0],"max":[1.0,1,1.0]},{"bufferView":146,"componentType":5126,"count":24,"type":"VEC2","min":[20.0,1.3690205382669847],"max":[53.090783031466955,20.11090165961968]},{"bufferView":147,"componentType":5125,"count":36,"type":"SCALAR"},{"bufferView":148,"componentType":5126,"count":216,"type":"VEC3","min":[72.0,-0.6,24.0],"max":[80.0,0.0,33.0]},{"bufferView":149,"componentType":5126,"count":216,"type":"VEC3","min":[-1.0,-1,-1.0],"max":[1.0,1,1.0]},{"bufferView":150,"componentType":5126,"count":216,"type":"VEC2","min":[8.0,-0.19999999999999998],"max":[26.666666666666668,11.0]},{"bufferView":151,"componentType":5125,"count":324,"type":"SCALAR"},{"bufferView":152,"componentType":5126,"count":144,"type":"VEC3","min":[72.3086021264883,-0.6000000000000001,24.91258541271806],"max":[80.0,3.2,32.0]},{"bufferView":153,"componentType":5126,"count":144,"type":"VEC3","min":[-1.0,-1,-1.0],"max":[1.0,1,1.0]},{"bufferView":154,"componentType":5126,"count":144,"type":"VEC2","min":[9.581763620276176,-0.23076923076923078],"max":[53.461229253333244,22.857142857142858]},{"bufferView":155,"componentType":5125,"count":216,"type":"SCALAR"},{"bufferView":156,"componentType":5126,"count":96,"type":"VEC3","min":[72.15589150041741,1.6056347555195771,24.567307193842748],"max":[78.66707023594682,2.6000000000000005,30.65109615892561]},{"bufferView":157,"componentType":5126,"count":96,"type":"VEC3","min":[-1.0,-1,-1.0],"max":[1.0,1,1.0]},{"bufferView":158,"componentType":5126,"count":96,"type":"VEC2","min":[40.945511989737916,2.676057925865962],"max":[131.11178372657804,51.08516026487602]},{"bufferView":159,"componentType":5125,"count":144,"type":"SCALAR"},{"bufferView":160,"componentType":5126,"count":72,"type":"VEC3","min":[72.88,0.0,28.5],"max":[73.12,2.54,32.5]},{"bufferView":161,"componentType":5126,"count":72,"type":"VEC3","min":[-1.0,-1,-1.0],"max":[1.0,1,1.0]},{"bufferView":162,"componentType":5126,"count":72,"type":"VEC2","min":[28.5,0.0],"max":[73.12,32.5]},{"bufferView":163,"componentType":5125,"count":108,"type":"SCALAR"},{"bufferView":164,"componentType":5126,"count":336,"type":"VEC3","min":[72.0,-0.6000000000000001,24.0],"max":[80.80008886246557,3.2,34.0]},{"bufferView":165,"componentType":5126,"count":336,"type":"VEC3","min":[-1.0,-1,-1.0],"max":[1.0,1,1.0]},{"bufferView":166,"componentType":5126,"count":336,"type":"VEC2","min":[9.23076923076923,-0.23076923076923078],"max":[31.07695725479445,13.076923076923077]},{"bufferView":167,"componentType":5125,"count":504,"type":"SCALAR"},{"bufferView":168,"componentType":5126,"count":216,"type":"VEC3","min":[72.0,2.6000000000000005,24.0],"max":[80.0,3.2,33.0]},{"bufferView":169,"componentType":5126,"count":216,"type":"VEC3","min":[-1.0,-1,-1.0],"max":[1.0,1,1.0]},{"bufferView":170,"componentType":5126,"count":216,"type":"VEC2","min":[7.0588235294117645,0.7647058823529413],"max":[23.529411764705884,9.705882352941178]},{"bufferView":171,"componentType":5125,"count":324,"type":"SCALAR"},{"bufferView":172,"componentType":5126,"count":144,"type":"VEC3","min":[52.7189179579531,0.14818033678729348,31.0],"max":[65.9020387071702,2.1994790288425246,37.0]},{"bufferView":173,"componentType":5126,"count":144,"type":"VEC3","min":[-1.0,-1,-1.0],"max":[1.0,1,1.0]},{"bufferView":174,"componentType":5126,"count":144,"type":"VEC2","min":[22.142857142857146,0.10584309770520964],"max":[47.072884790835865,26.42857142857143]},{"bufferView":175,"componentType":5125,"count":216,"type":"SCALAR"},{"bufferView":176,"componentType":5126,"count":264,"type":"VEC3","min":[48.0,-0.6,29.0],"max":[72.0,0.0,40.0]},{"bufferView":177,"componentType":5126,"count":264,"type":"VEC3","min":[-1.0,-1,-1.0],"max":[1.0,1,1.0]},{"bufferView":178,"componentType":5126,"count":264,"type":"VEC2","min":[9.666666666666666,-0.19999999999999998],"max":[24.0,13.333333333333334]},{"bufferView":179,"componentType":5125,"count":396,"type":"SCALAR"},{"bufferView":180,"componentType":5126,"count":168,"type":"VEC3","min":[51.0,-0.6000000000000001,30.0],"max":[70.20593746506361,3.2,38.00093343980717]},{"bufferView":181,"componentType":5126,"count":168,"type":"VEC3","min":[-1.0,-1,-1.0],"max":[1.0,1,1.0]},{"bufferView":182,"componentType":5126,"count":168,"type":"VEC2","min":[11.538461538461538,-0.23076923076923078],"max":[47.960060706493714,25.0]},{"bufferView":183,"componentType":5125,"count":252,"type":"SCALAR"},{"bufferView":184,"componentType":5126,"count":144,"type":"VEC3","min":[48.730954072377244,1.5899817212400966,31.566866811912174],"max":[71.76699882646204,2.6000000000000005,36.741038835627045]},{"bufferView":185,"componentType":5126,"count":144,"type":"VEC3","min":[-1.0,-1,-1.0],"max":[1.0,1,1.0]},{"bufferView":186,"componentType":5126,"count":144,"type":"VEC2","min":[52.611444686520294,2.649969535400161],"max":[119.61166471077007,61.235064726045074]},{"bufferView":187,"componentType":5125,"count":216,"type":"SCALAR"},{"bufferView":188,"componentType":5126,"count":144,"type":"VEC3","min":[50.88,0.0,31.5],"max":[62.12,2.54,38.0]},{"bufferView":189,"componentType":5126,"count":144,"type":"VEC3","min":[-1.0,-1,-1.0],"max":[1.0,1,1.0]},{"bufferView":190,"componentType":5126,"count":144,"type":"VEC2","min":[31.5,0.0],"max":[62.12,38.0]},{"bufferView":191,"componentType":5125,"count":216,"type":"SCALAR"},{"bufferView":192,"componentType":5126,"count":576,"type":"VEC3","min":[48.0,-0.6000000000000001,24.0],"max":[72.0,5.8,48.0]},{"bufferView":193,"componentType":5126,"count":576,"type":"VEC3","min":[-1.0,-1,-1.0],"max":[1.0,1,1.0]},{"bufferView":194,"componentType":5126,"count":576,"type":"VEC2","min":[9.23076923076923,-0.23076923076923078],"max":[27.69230769230769,18.46153846153846]},{"bufferView":195,"componentType":5125,"count":864,"type":"SCALAR"},{"bufferView":196,"componentType":5126,"count":264,"type":"VEC3","min":[48.0,2.6000000000000005,29.0],"max":[72.0,3.2,40.0]},{"bufferView":197,"componentType":5126,"count":264,"type":"VEC3","min":[-1.0,-1,-1.0],"max":[1.0,1,1.0]},{"bufferView":198,"componentType":5126,"count":264,"type":"VEC2","min":[8.529411764705882,0.7647058823529413],"max":[21.176470588235293,11.764705882352942]},{"bufferView":199,"componentType":5125,"count":396,"type":"SCALAR"},{"bufferView":200,"componentType":5126,"count":72,"type":"VEC3","min":[13.13916576176328,0.7209583672778761,44.0],"max":[18.793096199556146,2.452427841722938,48.0]},{"bufferView":201,"componentType":5126,"count":72,"type":"VEC3","min":[-1.0,-1,-1.0],"max":[1.0,1,1.0]},{"bufferView":202,"componentType":5126,"count":72,"type":"VEC2","min":[9.385118401259486,0.5149702623413401],"max":[34.285714285714285,34.285714285714285]},{"bufferView":203,"componentType":5125,"count":108,"type":"SCALAR"},{"bufferView":204,"componentType":5126,"count":96,"type":"VEC3","min":[12.0,-0.6,44.0],"max":[22.0,0.0,48.0]},{"bufferView":205,"componentType":5126,"count":96,"type":"VEC3","min":[-1.0,-1,-1.0],"max":[1.0,1,1.0]},{"bufferView":206,"componentType":5126,"count":96,"type":"VEC2","min":[4.0,-0.19999999999999998],"max":[16.0,16.0]},{"bufferView":207,"componentType":5125,"count":144,"type":"SCALAR"},{"bufferView":208,"componentType":5126,"count":24,"type":"VEC3","min":[12.0,-0.6000000000000001,47.0],"max":[13.0,3.2,47.68661085524255]},{"bufferView":209,"componentType":5126,"count":24,"type":"VEC3","min":[-1.0,-1,-1.0],"max":[1.0,1,1.0]},{"bufferView":210,"componentType":5126,"count":24,"type":"VEC2","min":[4.615384615384615,-0.23076923076923078],"max":[18.34100417509329,18.34100417509329]},{"bufferView":211,"componentType":5125,"count":36,"type":"SCALAR"},{"bufferView":212,"componentType":5126,"count":96,"type":"VEC3","min":[14.223337086300424,1.6586375802092193,44.34664295666634],"max":[19.592927480519844,2.6000000000000005,47.81827454303352]},{"bufferView":213,"componentType":5126,"count":96,"type":"VEC3","min":[-1.0,-1,-1.0],"max":[1.0,1,1.0]},{"bufferView":214,"componentType":5126,"count":96,"type":"VEC2","min":[23.705561810500708,2.7643959670153655],"max":[79.6971242383892,79.6971242383892]},{"bufferView":215,"componentType":5125,"count":144,"type":"SCALAR"},{"bufferView":216,"componentType":5126,"count":336,"type":"VEC3","min":[11.012230814964834,-0.6000000000000001,39.0],"max":[24.0,5.8,48.0]},{"bufferView":217,"componentType":5126,"count":336,"type":"VEC3","min":[-1.0,-1,-1.0],"max":[1.0,1,1.0]},{"bufferView":218,"componentType":5126,"count":336,"type":"VEC2","min":[4.23547339037109,-0.23076923076923078],"max":[18.46153846153846,18.46153846153846]},{"bufferView":219,"componentType":5125,"count":504,"type":"SCALAR"},{"bufferView":220,"componentType":5126,"count":96,"type":"VEC3","min":[12.0,2.6000000000000005,44.0],"max":[22.0,3.2,48.0]},{"bufferView":221,"componentType":5126,"count":96,"type":"VEC3","min":[-1.0,-1,-1.0],"max":[1.0,1,1.0]},{"bufferView":222,"componentType":5126,"count":96,"type":"VEC2","min":[3.5294117647058822,0.7647058823529413],"max":[14.117647058823529,14.117647058823529]},{"bufferView":223,"componentType":5125,"count":144,"type":"SCALAR"},{"bufferView":224,"componentType":5126,"count":168,"type":"VEC3","min":[14.0,0.11768327074063839,57.63471767106165],"max":[24.0,2.1655972251203317,70.0]},{"bufferView":225,"componentType":5126,"count":168,"type":"VEC3","min":[-1.0,-1,-1.0],"max":[1.0,1,1.0]},{"bufferView":226,"componentType":5126,"count":168,"type":"VEC2","min":[10.0,0.084059479100456],"max":[50.0,50.0]},{"bufferView":227,"componentType":5125,"count":252,"type":"SCALAR"},{"bufferView":228,"componentType":5126,"count":552,"type":"VEC3","min":[14.0,-0.6,48.0],"max":[24.0,0.0,71.0]},{"bufferView":229,"componentType":5126,"count":552,"type":"VEC3","min":[-1.0,-1,-1.0],"max":[1.0,1,1.0]},{"bufferView":230,"componentType":5126,"count":552,"type":"VEC2","min":[4.666666666666667,-0.19999999999999998],"max":[23.666666666666668,23.666666666666668]},{"bufferView":231,"componentType":5125,"count":828,"type":"SCALAR"},{"bufferView":232,"componentType":5126,"count":264,"type":"VEC3","min":[13.0,-0.6000000000000001,48.0],"max":[24.0,3.2,65.20502127871133]},{"bufferView":233,"componentType":5126,"count":264,"type":"VEC3","min":[-1.0,-1,-1.0],"max":[1.0,1,1.0]},{"bufferView":234,"componentType":5126,"count":264,"type":"VEC2","min":[5.0,-0.23076923076923078],"max":[46.57501519907952,46.57501519907952]},{"bufferView":235,"componentType":5125,"count":396,"type":"SCALAR"},{"bufferView":236,"componentType":5126,"count":288,"type":"VEC3","min":[17.389921421850712,1.6900250223042472,50.449721868374056],"max":[22.584954561488487,2.6000000000000005,69.24618259638996]},{"bufferView":237,"componentType":5126,"count":288,"type":"VEC3","min":[-1.0,-1,-1.0],"max":[1.0,1,1.0]},{"bufferView":238,"componentType":5126,"count":288,"type":"VEC2","min":[28.983202369751186,2.816708370507079],"max":[115.4103043273166,115.4103043273166]},{"bufferView":239,"componentType":5125,"count":432,"type":"SCALAR"},{"bufferView":240,"componentType":5126,"count":144,"type":"VEC3","min":[16.0,0.0,53.0],"max":[22.12,2.54,63.12]},{"bufferView":241,"componentType":5126,"count":144,"type":"VEC3","min":[-1.0,-1,-1.0],"max":[1.0,1,1.0]},{"bufferView":242,"componentType":5126,"count":144,"type":"VEC2","min":[16.0,0.0],"max":[63.12,63.12]},{"bufferView":243,"componentType":5125,"count":216,"type":"SCALAR"},{"bufferView":244,"componentType":5126,"count":888,"type":"VEC3","min":[12.766760146180673,-0.6000000000000001,48.0],"max":[24.0,3.2,72.0]},{"bufferView":245,"componentType":5126,"count":888,"type":"VEC3","min":[-1.0,-1,-1.0],"max":[1.0,1,1.0]},{"bufferView":246,"componentType":5126,"count":888,"type":"VEC2","min":[4.9102923639156435,-0.23076923076923078],"max":[27.69230769230769,27.69230769230769]},{"bufferView":247,"componentType":5125,"count":1332,"type":"SCALAR"},{"bufferView":248,"componentType":5126,"count":552,"type":"VEC3","min":[14.0,2.6000000000000005,48.0],"max":[24.0,3.2,71.0]},{"bufferView":249,"componentType":5126,"count":552,"type":"VEC3","min":[-1.0,-1,-1.0],"max":[1.0,1,1.0]},{"bufferView":250,"componentType":5126,"count":552,"type":"VEC2","min":[4.11764705882353,0.7647058823529413],"max":[20.88235294117647,20.88235294117647]},{"bufferView":251,"componentType":5125,"count":828,"type":"SCALAR"},{"bufferView":252,"componentType":5126,"count":216,"type":"VEC3","min":[24.0,0.38422281106602624,53.63387860753244],"max":[44.723143224628835,4.6449238064444796,72.0]},{"bufferView":253,"componentType":5126,"count":216,"type":"VEC3","min":[-1.0,-1,-1.0],"max":[1.0,1,1.0]},{"bufferView":254,"componentType":5126,"count":216,"type":"VEC2","min":[17.142857142857142,0.2744448650471616],"max":[51.42857142857143,51.42857142857143]},{"bufferView":255,"componentType":5125,"count":324,"type":"SCALAR"},{"bufferView":256,"componentType":5126,"count":360,"type":"VEC3","min":[24.0,-0.6,48.0],"max":[48.0,0.0,72.0]},{"bufferView":257,"componentType":5126,"count":360,"type":"VEC3","min":[-1.0,-1,-1.0],"max":[1.0,1,1.0]},{"bufferView":258,"componentType":5126,"count":360,"type":"VEC2","min":[8.0,-0.19999999999999998],"max":[24.0,24.0]},{"bufferView":259,"componentType":5125,"count":540,"type":"SCALAR"},{"bufferView":260,"componentType":5126,"count":168,"type":"VEC3","min":[24.0,-0.6000000000000001,51.0],"max":[48.0,5.8,69.17612760943044]},{"bufferView":261,"componentType":5126,"count":168,"type":"VEC3","min":[-1.0,-1,-1.0],"max":[1.0,1,1.0]},{"bufferView":262,"componentType":5126,"count":168,"type":"VEC2","min":[9.615384615384615,-0.23076923076923078],"max":[49.41151972102175,49.41151972102175]},{"bufferView":263,"componentType":5125,"count":252,"type":"SCALAR"},{"bufferView":264,"componentType":5126,"count":576,"type":"VEC3","min":[24.225495931959053,1.5975185924482722,48.2494527847861],"max":[47.558706566917834,5.200000000000001,71.55001117044263]},{"bufferView":265,"componentType":5126,"count":576,"type":"VEC3","min":[-1.0,-1,-1.0],"max":[1.0,1,1.0]},{"bufferView":266,"componentType":5126,"count":576,"type":"VEC2","min":[40.37582655326509,2.662530987413787],"max":[119.2500186174044,119.2500186174044]},{"bufferView":267,"componentType":5125,"count":864,"type":"SCALAR"},{"bufferView":268,"componentType":5126,"count":120,"type":"VEC3","min":[26.88,0.0,68.0],"max":[41.12,2.54,72.0]},{"bufferView":269,"componentType":5126,"count":120,"type":"VEC3","min":[-1.0,-1,-1.0],"max":[1.0,1,1.0]},{"bufferView":270,"componentType":5126,"count":120,"type":"VEC2","min":[26.88,0.0],"max":[72.0,72.0]},{"bufferView":271,"componentType":5125,"count":180,"type":"SCALAR"},{"bufferView":272,"componentType":5126,"count":456,"type":"VEC3","min":[24.0,-0.6000000000000001,51.0],"max":[48.0,5.8,72.0]},{"bufferView":273,"componentType":5126,"count":456,"type":"VEC3","min":[-1.0,-1,-1.0],"max":[1.0,1,1.0]},{"bufferView":274,"componentType":5126,"count":456,"type":"VEC2","min":[9.23076923076923,-0.23076923076923078],"max":[27.69230769230769,27.69230769230769]},{"bufferView":275,"componentType":5125,"count":684,"type":"SCALAR"},{"bufferView":276,"componentType":5126,"count":432,"type":"VEC3","min":[24.0,2.6000000000000005,48.0],"max":[48.0,5.8,72.0]},{"bufferView":277,"componentType":5126,"count":432,"type":"VEC3","min":[-1.0,-1,-1.0],"max":[1.0,1,1.0]},{"bufferView":278,"componentType":5126,"count":432,"type":"VEC2","min":[7.0588235294117645,0.7647058823529413],"max":[21.176470588235293,21.176470588235293]},{"bufferView":279,"componentType":5125,"count":648,"type":"SCALAR"},{"bufferView":280,"componentType":5126,"count":168,"type":"VEC3","min":[48.09671247942187,0.5014610546573732,61.663978550158085],"max":[69.24632275819502,2.4283564768590034,72.0]},{"bufferView":281,"componentType":5126,"count":168,"type":"VEC3","min":[-1.0,-1,-1.0],"max":[1.0,1,1.0]},{"bufferView":282,"componentType":5126,"count":168,"type":"VEC2","min":[34.35479462815848,0.35818646761240946],"max":[51.42857142857143,51.42857142857143]},{"bufferView":283,"componentType":5125,"count":252,"type":"SCALAR"},{"bufferView":284,"componentType":5126,"count":624,"type":"VEC3","min":[48.0,-0.6,50.0],"max":[72.0,0.0,72.0]},{"bufferView":285,"componentType":5126,"count":624,"type":"VEC3","min":[-1.0,-1,-1.0],"max":[1.0,1,1.0]},{"bufferView":286,"componentType":5126,"count":624,"type":"VEC2","min":[16.0,-0.19999999999999998],"max":[24.0,24.0]},{"bufferView":287,"componentType":5125,"count":936,"type":"SCALAR"},{"bufferView":288,"componentType":5126,"count":624,"type":"VEC3","min":[48.0,-0.6000000000000001,50.0],"max":[72.0,5.8,71.75293656317254]},{"bufferView":289,"componentType":5126,"count":624,"type":"VEC3","min":[-1.0,-1,-1.0],"max":[1.0,1,1.0]},{"bufferView":290,"componentType":5126,"count":624,"type":"VEC2","min":[18.46153846153846,-0.23076923076923078],"max":[50.41331898467411,48.77141899698643]},{"bufferView":291,"componentType":5125,"count":936,"type":"SCALAR"},{"bufferView":292,"componentType":5126,"count":360,"type":"VEC3","min":[50.49791171891382,1.6444565148340897,56.60664627983537],"max":[71.54007590898502,2.6000000000000005,70.52889505193794]},{"bufferView":293,"componentType":5126,"count":360,"type":"VEC3","min":[-1.0,-1,-1.0],"max":[1.0,1,1.0]},{"bufferView":294,"componentType":5126,"count":360,"type":"VEC2","min":[84.1631861981897,2.740760858056816],"max":[119.23345984830837,117.54815841989657]},{"bufferView":295,"componentType":5125,"count":540,"type":"SCALAR"},{"bufferView":296,"componentType":5126,"count":144,"type":"VEC3","min":[53.88,0.0,66.0],"max":[65.12,2.54,70.0]},{"bufferView":297,"componentType":5126,"count":144,"type":"VEC3","min":[-1.0,-1,-1.0],"max":[1.0,1,1.0]},{"bufferView":298,"componentType":5126,"count":144,"type":"VEC2","min":[53.88,0.0],"max":[70.0,70.0]},{"bufferView":299,"componentType":5125,"count":216,"type":"SCALAR"},{"bufferView":300,"componentType":5126,"count":1200,"type":"VEC3","min":[48.0,-0.6000000000000001,48.0],"max":[70.72792420143469,5.8,72.0]},{"bufferView":301,"componentType":5126,"count":1200,"type":"VEC3","min":[-1.0,-1,-1.0],"max":[1.0,1,1.0]},{"bufferView":302,"componentType":5126,"count":1200,"type":"VEC2","min":[18.46153846153846,-0.23076923076923078],"max":[27.69230769230769,27.69230769230769]},{"bufferView":303,"componentType":5125,"count":1800,"type":"SCALAR"},{"bufferView":304,"componentType":5126,"count":624,"type":"VEC3","min":[48.0,2.6000000000000005,50.0],"max":[72.0,3.2,72.0]},{"bufferView":305,"componentType":5126,"count":624,"type":"VEC3","min":[-1.0,-1,-1.0],"max":[1.0,1,1.0]},{"bufferView":306,"componentType":5126,"count":624,"type":"VEC2","min":[14.117647058823529,0.7647058823529413],"max":[21.176470588235293,21.176470588235293]},{"bufferView":307,"componentType":5125,"count":936,"type":"SCALAR"},{"bufferView":308,"componentType":5126,"count":72,"type":"VEC3","min":[72.0,-0.6,69.0],"max":[78.0,0.0,72.0]},{"bufferView":309,"componentType":5126,"count":72,"type":"VEC3","min":[-1.0,-1,-1.0],"max":[1.0,1,1.0]},{"bufferView":310,"componentType":5126,"count":72,"type":"VEC2","min":[23.0,-0.19999999999999998],"max":[26.0,24.0]},{"bufferView":311,"componentType":5125,"count":108,"type":"SCALAR"},{"bufferView":312,"componentType":5126,"count":48,"type":"VEC3","min":[73.8479082763918,-0.6000000000000001,69.76830471198417],"max":[78.0,3.2,71.0]},{"bufferView":313,"componentType":5126,"count":48,"type":"VEC3","min":[-1.0,-1,-1.0],"max":[1.0,1,1.0]},{"bufferView":314,"componentType":5126,"count":48,"type":"VEC2","min":[26.833963350763142,-0.23076923076923078],"max":[53.74180461325676,50.17633561445333]},{"bufferView":315,"componentType":5125,"count":72,"type":"SCALAR"},{"bufferView":316,"componentType":5126,"count":24,"type":"VEC3","min":[73.64120844745572,1.9639505451213073,71.17862770433365],"max":[73.71993688339789,2.6,71.25735614027582]},{"bufferView":317,"componentType":5126,"count":24,"type":"VEC3","min":[-1.0,-1,-1.0],"max":[1.0,1,1.0]},{"bufferView":318,"componentType":5126,"count":24,"type":"VEC2","min":[118.63104617388942,3.273250908535512],"max":[122.86656147232982,118.76226023379303]},{"bufferView":319,"componentType":5125,"count":36,"type":"SCALAR"},{"bufferView":320,"componentType":5126,"count":192,"type":"VEC3","min":[72.0,-0.6000000000000001,67.93438340492554],"max":[80.0,3.2,72.0]},{"bufferView":321,"componentType":5126,"count":192,"type":"VEC3","min":[-1.0,-1,-1.0],"max":[1.0,1,1.0]},{"bufferView":322,"componentType":5126,"count":192,"type":"VEC2","min":[26.12860900189444,-0.23076923076923078],"max":[30.769230769230766,27.69230769230769]},{"bufferView":323,"componentType":5125,"count":288,"type":"SCALAR"},{"bufferView":324,"componentType":5126,"count":72,"type":"VEC3","min":[72.0,2.6000000000000005,69.0],"max":[78.0,3.2,72.0]},{"bufferView":325,"componentType":5126,"count":72,"type":"VEC3","min":[-1.0,-1,-1.0],"max":[1.0,1,1.0]},{"bufferView":326,"componentType":5126,"count":72,"type":"VEC2","min":[20.294117647058822,0.7647058823529413],"max":[22.941176470588236,21.176470588235293]},{"bufferView":327,"componentType":5125,"count":108,"type":"SCALAR"},{"bufferView":328,"componentType":5126,"count":72,"type":"VEC3","min":[40.381558522896384,0.5839279587437725,72.75613777303676],"max":[44.16501381560817,2.013448861421356,73.0]},{"bufferView":329,"componentType":5126,"count":72,"type":"VEC3","min":[-1.0,-1,-1.0],"max":[1.0,1,1.0]},{"bufferView":330,"componentType":5126,"count":72,"type":"VEC2","min":[28.84397037349742,0.41709139910269466],"max":[52.142857142857146,52.142857142857146]},{"bufferView":331,"componentType":5125,"count":108,"type":"SCALAR"},{"bufferView":332,"componentType":5126,"count":48,"type":"VEC3","min":[28.0,-0.6,72.0],"max":[44.0,0.0,74.0]},{"bufferView":333,"componentType":5126,"count":48,"type":"VEC3","min":[-1.0,-1,-1.0],"max":[1.0,1,1.0]},{"bufferView":334,"componentType":5126,"count":48,"type":"VEC2","min":[9.333333333333334,-0.19999999999999998],"max":[24.666666666666668,24.666666666666668]},{"bufferView":335,"componentType":5125,"count":72,"type":"SCALAR"},{"bufferView":336,"componentType":5126,"count":72,"type":"VEC3","min":[32.55767435699277,-0.6000000000000001,72.0],"max":[45.012513082947066,3.2,74.0]},{"bufferView":337,"componentType":5126,"count":72,"type":"VEC3","min":[-1.0,-1,-1.0],"max":[1.0,1,1.0]},{"bufferView":338,"componentType":5126,"count":72,"type":"VEC2","min":[16.923076923076923,-0.23076923076923078],"max":[52.85714285714286,52.85714285714286]},{"bufferView":339,"componentType":5125,"count":108,"type":"SCALAR"},{"bufferView":340,"componentType":5126,"count":24,"type":"VEC3","min":[36.34703437854948,1.6782014585130705,72.3904367395738],"max":[36.45941299368339,2.5999999999999996,72.5028153547077]},{"bufferView":341,"componentType":5126,"count":24,"type":"VEC3","min":[-1.0,-1,-1.0],"max":[1.0,1,1.0]},{"bufferView":342,"componentType":5126,"count":24,"type":"VEC2","min":[60.578390630915806,2.7970024308551173],"max":[120.83802559117952,120.83802559117952]},{"bufferView":343,"componentType":5125,"count":36,"type":"SCALAR"},{"bufferView":344,"componentType":5126,"count":48,"type":"VEC3","min":[40.88,0.0,72.0],"max":[41.12,2.54,73.0]},{"bufferView":345,"componentType":5126,"count":48,"type":"VEC3","min":[-1.0,-1,-1.0],"max":[1.0,1,1.0]},{"bufferView":346,"componentType":5126,"count":48,"type":"VEC2","min":[40.88,0.0],"max":[73.0,73.0]},{"bufferView":347,"componentType":5125,"count":72,"type":"SCALAR"},{"bufferView":348,"componentType":5126,"count":216,"type":"VEC3","min":[24.0,-0.6000000000000001,72.0],"max":[48.0,3.2,75.2383319264849]},{"bufferView":349,"componentType":5126,"count":216,"type":"VEC3","min":[-1.0,-1,-1.0],"max":[1.0,1,1.0]},{"bufferView":350,"componentType":5126,"count":216,"type":"VEC2","min":[9.23076923076923,-0.23076923076923078],"max":[28.937819971724963,28.937819971724963]},{"bufferView":351,"componentType":5125,"count":324,"type":"SCALAR"},{"bufferView":352,"componentType":5126,"count":48,"type":"VEC3","min":[28.0,2.6000000000000005,72.0],"max":[44.0,3.2,74.0]},{"bufferView":353,"componentType":5126,"count":48,"type":"VEC3","min":[-1.0,-1,-1.0],"max":[1.0,1,1.0]},{"bufferView":354,"componentType":5126,"count":48,"type":"VEC2","min":[8.23529411764706,0.7647058823529413],"max":[21.764705882352942,21.764705882352942]},{"bufferView":355,"componentType":5125,"count":72,"type":"SCALAR"},{"bufferView":356,"componentType":5126,"count":24,"type":"VEC3","min":[70.0,-0.6,72.0],"max":[72.0,0.0,73.0]},{"bufferView":357,"componentType":5126,"count":24,"type":"VEC3","min":[-1.0,-1,-1.0],"max":[1.0,1,1.0]},{"bufferView":358,"componentType":5126,"count":24,"type":"VEC2","min":[23.333333333333332,-0.19999999999999998],"max":[24.333333333333332,24.333333333333332]},{"bufferView":359,"componentType":5125,"count":36,"type":"SCALAR"},{"bufferView":360,"componentType":5126,"count":24,"type":"VEC3","min":[71.32390377622505,1.7009226488152955,72.36746308159574],"max":[71.42898926085968,2.6,72.47254856623037]},{"bufferView":361,"componentType":5126,"count":24,"type":"VEC3","min":[-1.0,-1,-1.0],"max":[1.0,1,1.0]},{"bufferView":362,"componentType":5126,"count":24,"type":"VEC2","min":[118.87317296037509,2.834871081358826],"max":[120.78758094371729,120.78758094371729]},{"bufferView":363,"componentType":5125,"count":36,"type":"SCALAR"},{"bufferView":364,"componentType":5126,"count":120,"type":"VEC3","min":[48.0,-0.6000000000000001,72.0],"max":[72.0,3.2,74.0]},{"bufferView":365,"componentType":5126,"count":120,"type":"VEC3","min":[-1.0,-1,-1.0],"max":[1.0,1,1.0]},{"bufferView":366,"componentType":5126,"count":120,"type":"VEC2","min":[18.46153846153846,-0.23076923076923078],"max":[28.46153846153846,28.46153846153846]},{"bufferView":367,"componentType":5125,"count":180,"type":"SCALAR"},{"bufferView":368,"componentType":5126,"count":24,"type":"VEC3","min":[70.0,2.6000000000000005,72.0],"max":[72.0,3.2,73.0]},{"bufferView":369,"componentType":5126,"count":24,"type":"VEC3","min":[-1.0,-1,-1.0],"max":[1.0,1,1.0]},{"bufferView":370,"componentType":5126,"count":24,"type":"VEC2","min":[20.58823529411765,0.7647058823529413],"max":[21.47058823529412,21.47058823529412]},{"bufferView":371,"componentType":5125,"count":36,"type":"SCALAR"},{"bufferView":372,"componentType":5126,"count":144,"type":"VEC3","min":[78.0,-0.5,72.6],"max":[82.80000000000001,1.0,75.4]},{"bufferView":373,"componentType":5126,"count":144,"type":"VEC3","min":[-1.0,-1,-1.0],"max":[1.0,1,1.0]},{"bufferView":374,"componentType":5126,"count":144,"type":"VEC2","min":[36.3,-0.25],"max":[41.400000000000006,37.7]},{"bufferView":375,"componentType":5125,"count":216,"type":"SCALAR"},{"bufferView":376,"componentType":5126,"count":96,"type":"VEC3","min":[72.0,-0.6,72.0],"max":[80.0,0.0,76.0]},{"bufferView":377,"componentType":5126,"count":96,"type":"VEC3","min":[-1.0,-1,-1.0],"max":[1.0,1,1.0]},{"bufferView":378,"componentType":5126,"count":96,"type":"VEC2","min":[24.0,-0.19999999999999998],"max":[26.666666666666668,25.333333333333332]},{"bufferView":379,"componentType":5125,"count":144,"type":"SCALAR"},{"bufferView":380,"componentType":5126,"count":24,"type":"VEC3","min":[81.4,0.8000000000000003,72.4],"max":[84.6,3.6,75.6]},{"bufferView":381,"componentType":5126,"count":24,"type":"VEC3","min":[-1.0,-1,-1.0],"max":[1.0,1,1.0]},{"bufferView":382,"componentType":5126,"count":24,"type":"VEC2","min":[36.2,0.40000000000000013],"max":[42.3,37.8]},{"bufferView":383,"componentType":5125,"count":36,"type":"SCALAR"},{"bufferView":384,"componentType":5126,"count":72,"type":"VEC3","min":[72.39774394328673,0.2382518878035098,73.82048309561168],"max":[80.0,1.8590565924673998,75.0]},{"bufferView":385,"componentType":5126,"count":72,"type":"VEC3","min":[-1.0,-1,-1.0],"max":[1.0,1,1.0]},{"bufferView":386,"componentType":5126,"count":72,"type":"VEC2","min":[51.71267424520481,0.17017991985964986],"max":[57.142857142857146,53.57142857142858]},{"bufferView":387,"componentType":5125,"count":108,"type":"SCALAR"},{"bufferView":388,"componentType":5126,"count":24,"type":"VEC3","min":[78.17031626709216,1.9184803714357543,74.39254141820378],"max":[78.27520296556706,2.6,74.49742811667868]},{"bufferView":389,"componentType":5126,"count":24,"type":"VEC3","min":[-1.0,-1,-1.0],"max":[1.0,1,1.0]},{"bufferView":390,"componentType":5126,"count":24,"type":"VEC2","min":[123.98756903033963,3.1974672857262574],"max":[130.45867160927844,124.16238019446446]},{"bufferView":391,"componentType":5125,"count":36,"type":"SCALAR"},{"bufferView":392,"componentType":5126,"count":240,"type":"VEC3","min":[72.0,-0.6000000000000001,72.0],"max":[81.17715021169894,3.2,76.89623224608431]},{"bufferView":393,"componentType":5126,"count":240,"type":"VEC3","min":[-1.0,-1,-1.0],"max":[1.0,1,1.0]},{"bufferView":394,"componentType":5126,"count":240,"type":"VEC2","min":[27.69230769230769,-0.23076923076923078],"max":[31.221980850653438,29.575473940801658]},{"bufferView":395,"componentType":5125,"count":360,"type":"SCALAR"},{"bufferView":396,"componentType":5126,"count":96,"type":"VEC3","min":[72.0,2.6000000000000005,72.0],"max":[80.0,3.2,76.0]},{"bufferView":397,"componentType":5126,"count":96,"type":"VEC3","min":[-1.0,-1,-1.0],"max":[1.0,1,1.0]},{"bufferView":398,"componentType":5126,"count":96,"type":"VEC2","min":[21.176470588235293,0.7647058823529413],"max":[23.529411764705884,22.35294117647059]},{"bufferView":399,"componentType":5125,"count":144,"type":"SCALAR"},{"bufferView":400,"componentType":5126,"count":24,"type":"VEC3","min":[22.0,-0.6000000000000001,72.0],"max":[24.0,3.2,72.03026078067583]},{"bufferView":401,"componentType":5126,"count":24,"type":"VEC3","min":[-1.0,-1,-1.0],"max":[1.0,1,1.0]},{"bufferView":402,"componentType":5126,"count":24,"type":"VEC2","min":[8.461538461538462,-0.23076923076923078],"max":[27.703946454106088,27.703946454106088]},{"bufferView":403,"componentType":5125,"count":36,"type":"SCALAR"},{"bufferView":404,"componentType":5126,"count":24,"type":"VEC3","min":[-0.6000000000000001,0.8000000000000003,6.4],"max":[0.0,3.6,9.6]},{"bufferView":405,"componentType":5126,"count":24,"type":"VEC3","min":[-1.0,-1,-1.0],"max":[1.0,1,1.0]},{"bufferView":406,"componentType":5126,"count":24,"type":"VEC2","min":[-0.30000000000000004,0.40000000000000013],"max":[4.8,4.8]},{"bufferView":407,"componentType":5125,"count":36,"type":"SCALAR"}],"bufferViews":[{"buffer":0,"byteOffset":0,"byteLength":3744,"target":34962},{"buffer":0,"byteOffset":3744,"byteLength":3744,"target":34962},{"buffer":0,"byteOffset":7488,"byteLength":2496,"target":34962},{"buffer":0,"byteOffset":9984,"byteLength":1872,"target":34963},{"buffer":0,"byteOffset":11856,"byteLength":2304,"target":34962},{"buffer":0,"byteOffset":14160,"byteLength":2304,"target":34962},{"buffer":0,"byteOffset":16464,"byteLength":1536,"target":34962},{"buffer":0,"byteOffset":18000,"byteLength":1152,"target":34963},{"buffer":0,"byteOffset":19152,"byteLength":288,"target":34962},{"buffer":0,"byteOffset":19440,"byteLength":288,"target":34962},{"buffer":0,"byteOffset":19728,"byteLength":192,"target":34962},{"buffer":0,"byteOffset":19920,"byteLength":144,"target":34963},{"buffer":0,"byteOffset":20064,"byteLength":2592,"target":34962},{"buffer":0,"byteOffset":22656,"byteLength":2592,"target":34962},{"buffer":0,"byteOffset":25248,"byteLength":1728,"target":34962},{"buffer":0,"byteOffset":26976,"byteLength":1296,"target":34963},{"buffer":0,"byteOffset":28272,"byteLength":1728,"target":34962},{"buffer":0,"byteOffset":30000,"byteLength":1728,"target":34962},{"buffer":0,"byteOffset":31728,"byteLength":1152,"target":34962},{"buffer":0,"byteOffset":32880,"byteLength":864,"target":34963},{"buffer":0,"byteOffset":33744,"byteLength":1728,"target":34962},{"buffer":0,"byteOffset":35472,"byteLength":1728,"target":34962},{"buffer":0,"byteOffset":37200,"byteLength":1152,"target":34962},{"buffer":0,"byteOffset":38352,"byteLength":864,"target":34963},{"buffer":0,"byteOffset":39216,"byteLength":4608,"target":34962},{"buffer":0,"byteOffset":43824,"byteLength":4608,"target":34962},{"buffer":0,"byteOffset":48432,"byteLength":3072,"target":34962},{"buffer":0,"byteOffset":51504,"byteLength":2304,"target":34963},{"buffer":0,"byteOffset":53808,"byteLength":2304,"target":34962},{"buffer":0,"byteOffset":56112,"byteLength":2304,"target":34962},{"buffer":0,"byteOffset":58416,"byteLength":1536,"target":34962},{"buffer":0,"byteOffset":59952,"byteLength":1152,"target":34963},{"buffer":0,"byteOffset":61104,"byteLength":2304,"target":34962},{"buffer":0,"byteOffset":63408,"byteLength":2304,"target":34962},{"buffer":0,"byteOffset":65712,"byteLength":1536,"target":34962},{"buffer":0,"byteOffset":67248,"byteLength":1152,"target":34963},{"buffer":0,"byteOffset":68400,"byteLength":6336,"target":34962},{"buffer":0,"byteOffset":74736,"byteLength":6336,"target":34962},{"buffer":0,"byteOffset":81072,"byteLength":4224,"target":34962},{"buffer":0,"byteOffset":85296,"byteLength":3168,"target":34963},{"buffer":0,"byteOffset":88464,"byteLength":2304,"target":34962},{"buffer":0,"byteOffset":90768,"byteLength":2304,"target":34962},{"buffer":0,"byteOffset":93072,"byteLength":1536,"target":34962},{"buffer":0,"byteOffset":94608,"byteLength":1152,"target":34963},{"buffer":0,"byteOffset":95760,"byteLength":3168,"target":34962},{"buffer":0,"byteOffset":98928,"byteLength":3168,"target":34962},{"buffer":0,"byteOffset":102096,"byteLength":2112,"target":34962},{"buffer":0,"byteOffset":104208,"byteLength":1584,"target":34963},{"buffer":0,"byteOffset":105792,"byteLength":2016,"target":34962},{"buffer":0,"byteOffset":107808,"byteLength":2016,"target":34962},{"buffer":0,"byteOffset":109824,"byteLength":1344,"target":34962},{"buffer":0,"byteOffset":111168,"byteLength":1008,"target":34963},{"buffer":0,"byteOffset":112176,"byteLength":12096,"target":34962},{"buffer":0,"byteOffset":124272,"byteLength":12096,"target":34962},{"buffer":0,"byteOffset":136368,"byteLength":8064,"target":34962},{"buffer":0,"byteOffset":144432,"byteLength":6048,"target":34963},{"buffer":0,"byteOffset":150480,"byteLength":6336,"target":34962},{"buffer":0,"byteOffset":156816,"byteLength":6336,"target":34962},{"buffer":0,"byteOffset":163152,"byteLength":4224,"target":34962},{"buffer":0,"byteOffset":167376,"byteLength":3168,"target":34963},{"buffer":0,"byteOffset":170544,"byteLength":3168,"target":34962},{"buffer":0,"byteOffset":173712,"byteLength":3168,"target":34962},{"buffer":0,"byteOffset":176880,"byteLength":2112,"target":34962},{"buffer":0,"byteOffset":178992,"byteLength":1584,"target":34963},{"buffer":0,"byteOffset":180576,"byteLength":6624,"target":34962},{"buffer":0,"byteOffset":187200,"byteLength":6624,"target":34962},{"buffer":0,"byteOffset":193824,"byteLength":4416,"target":34962},{"buffer":0,"byteOffset":198240,"byteLength":3312,"target":34963},{"buffer":0,"byteOffset":201552,"byteLength":2592,"target":34962},{"buffer":0,"byteOffset":204144,"byteLength":2592,"target":34962},{"buffer":0,"byteOffset":206736,"byteLength":1728,"target":34962},{"buffer":0,"byteOffset":208464,"byteLength":1296,"target":34963},{"buffer":0,"byteOffset":209760,"byteLength":4320,"target":34962},{"buffer":0,"byteOffset":214080,"byteLength":4320,"target":34962},{"buffer":0,"byteOffset":218400,"byteLength":2880,"target":34962},{"buffer":0,"byteOffset":221280,"byteLength":2160,"target":34963},{"buffer":0,"byteOffset":223440,"byteLength":1728,"target":34962},{"buffer":0,"byteOffset":225168,"byteLength":1728,"target":34962},{"buffer":0,"byteOffset":226896,"byteLength":1152,"target":34962},{"buffer":0,"byteOffset":228048,"byteLength":864,"target":34963},{"buffer":0,"byteOffset":228912,"byteLength":13248,"target":34962},{"buffer":0,"byteOffset":242160,"byteLength":13248,"target":34962},{"buffer":0,"byteOffset":255408,"byteLength":8832,"target":34962},{"buffer":0,"byteOffset":264240,"byteLength":6624,"target":34963},{"buffer":0,"byteOffset":270864,"byteLength":6624,"target":34962},{"buffer":0,"byteOffset":277488,"byteLength":6624,"target":34962},{"buffer":0,"byteOffset":284112,"byteLength":4416,"target":34962},{"buffer":0,"byteOffset":288528,"byteLength":3312,"target":34963},{"buffer":0,"byteOffset":291840,"byteLength":288,"target":34962},{"buffer":0,"byteOffset":292128,"byteLength":288,"target":34962},{"buffer":0,"byteOffset":292416,"byteLength":192,"target":34962},{"buffer":0,"byteOffset":292608,"byteLength":144,"target":34963},{"buffer":0,"byteOffset":292752,"byteLength":2592,"target":34962},{"buffer":0,"byteOffset":295344,"byteLength":2592,"target":34962},{"buffer":0,"byteOffset":297936,"byteLength":1728,"target":34962},{"buffer":0,"byteOffset":299664,"byteLength":1296,"target":34963},{"buffer":0,"byteOffset":300960,"byteLength":1152,"target":34962},{"buffer":0,"byteOffset":302112,"byteLength":1152,"target":34962},{"buffer":0,"byteOffset":303264,"byteLength":768,"target":34962},{"buffer":0,"byteOffset":304032,"byteLength":576,"target":34963},{"buffer":0,"byteOffset":304608,"byteLength":1152,"target":34962},{"buffer":0,"byteOffset":305760,"byteLength":1152,"target":34962},{"buffer":0,"byteOffset":306912,"byteLength":768,"target":34962},{"buffer":0,"byteOffset":307680,"byteLength":576,"target":34963},{"buffer":0,"byteOffset":308256,"byteLength":864,"target":34962},{"buffer":0,"byteOffset":309120,"byteLength":864,"target":34962},{"buffer":0,"byteOffset":309984,"byteLength":576,"target":34962},{"buffer":0,"byteOffset":310560,"byteLength":432,"target":34963},{"buffer":0,"byteOffset":310992,"byteLength":3168,"target":34962},{"buffer":0,"byteOffset":314160,"byteLength":3168,"target":34962},{"buffer":0,"byteOffset":317328,"byteLength":2112,"target":34962},{"buffer":0,"byteOffset":319440,"byteLength":1584,"target":34963},{"buffer":0,"byteOffset":321024,"byteLength":2592,"target":34962},{"buffer":0,"byteOffset":323616,"byteLength":2592,"target":34962},{"buffer":0,"byteOffset":326208,"byteLength":1728,"target":34962},{"buffer":0,"byteOffset":327936,"byteLength":1296,"target":34963},{"buffer":0,"byteOffset":329232,"byteLength":2016,"target":34962},{"buffer":0,"byteOffset":331248,"byteLength":2016,"target":34962},{"buffer":0,"byteOffset":333264,"byteLength":1344,"target":34962},{"buffer":0,"byteOffset":334608,"byteLength":1008,"target":34963},{"buffer":0,"byteOffset":335616,"byteLength":4608,"target":34962},{"buffer":0,"byteOffset":340224,"byteLength":4608,"target":34962},{"buffer":0,"byteOffset":344832,"byteLength":3072,"target":34962},{"buffer":0,"byteOffset":347904,"byteLength":2304,"target":34963},{"buffer":0,"byteOffset":350208,"byteLength":2016,"target":34962},{"buffer":0,"byteOffset":352224,"byteLength":2016,"target":34962},{"buffer":0,"byteOffset":354240,"byteLength":1344,"target":34962},{"buffer":0,"byteOffset":355584,"byteLength":1008,"target":34963},{"buffer":0,"byteOffset":356592,"byteLength":10080,"target":34962},{"buffer":0,"byteOffset":366672,"byteLength":10080,"target":34962},{"buffer":0,"byteOffset":376752,"byteLength":6720,"target":34962},{"buffer":0,"byteOffset":383472,"byteLength":5040,"target":34963},{"buffer":0,"byteOffset":388512,"byteLength":1152,"target":34962},{"buffer":0,"byteOffset":389664,"byteLength":1152,"target":34962},{"buffer":0,"byteOffset":390816,"byteLength":768,"target":34962},{"buffer":0,"byteOffset":391584,"byteLength":576,"target":34963},{"buffer":0,"byteOffset":392160,"byteLength":4896,"target":34962},{"buffer":0,"byteOffset":397056,"byteLength":4896,"target":34962},{"buffer":0,"byteOffset":401952,"byteLength":3264,"target":34962},{"buffer":0,"byteOffset":405216,"byteLength":2448,"target":34963},{"buffer":0,"byteOffset":407664,"byteLength":5472,"target":34962},{"buffer":0,"byteOffset":413136,"byteLength":5472,"target":34962},{"buffer":0,"byteOffset":418608,"byteLength":3648,"target":34962},{"buffer":0,"byteOffset":422256,"byteLength":2736,"target":34963},{"buffer":0,"byteOffset":424992,"byteLength":288,"target":34962},{"buffer":0,"byteOffset":425280,"byteLength":288,"target":34962},{"buffer":0,"byteOffset":425568,"byteLength":192,"target":34962},{"buffer":0,"byteOffset":425760,"byteLength":144,"target":34963},{"buffer":0,"byteOffset":425904,"byteLength":2592,"target":34962},{"buffer":0,"byteOffset":428496,"byteLength":2592,"target":34962},{"buffer":0,"byteOffset":431088,"byteLength":1728,"target":34962},{"buffer":0,"byteOffset":432816,"byteLength":1296,"target":34963},{"buffer":0,"byteOffset":434112,"byteLength":1728,"target":34962},{"buffer":0,"byteOffset":435840,"byteLength":1728,"target":34962},{"buffer":0,"byteOffset":437568,"byteLength":1152,"target":34962},{"buffer":0,"byteOffset":438720,"byteLength":864,"target":34963},{"buffer":0,"byteOffset":439584,"byteLength":1152,"target":34962},{"buffer":0,"byteOffset":440736,"byteLength":1152,"target":34962},{"buffer":0,"byteOffset":441888,"byteLength":768,"target":34962},{"buffer":0,"byteOffset":442656,"byteLength":576,"target":34963},{"buffer":0,"byteOffset":443232,"byteLength":864,"target":34962},{"buffer":0,"byteOffset":444096,"byteLength":864,"target":34962},{"buffer":0,"byteOffset":444960,"byteLength":576,"target":34962},{"buffer":0,"byteOffset":445536,"byteLength":432,"target":34963},{"buffer":0,"byteOffset":445968,"byteLength":4032,"target":34962},{"buffer":0,"byteOffset":450000,"byteLength":4032,"target":34962},{"buffer":0,"byteOffset":454032,"byteLength":2688,"target":34962},{"buffer":0,"byteOffset":456720,"byteLength":2016,"target":34963},{"buffer":0,"byteOffset":458736,"byteLength":2592,"target":34962},{"buffer":0,"byteOffset":461328,"byteLength":2592,"target":34962},{"buffer":0,"byteOffset":463920,"byteLength":1728,"target":34962},{"buffer":0,"byteOffset":465648,"byteLength":1296,"target":34963},{"buffer":0,"byteOffset":466944,"byteLength":1728,"target":34962},{"buffer":0,"byteOffset":468672,"byteLength":1728,"target":34962},{"buffer":0,"byteOffset":470400,"byteLength":1152,"target":34962},{"buffer":0,"byteOffset":471552,"byteLength":864,"target":34963},{"buffer":0,"byteOffset":472416,"byteLength":3168,"target":34962},{"buffer":0,"byteOffset":475584,"byteLength":3168,"target":34962},{"buffer":0,"byteOffset":478752,"byteLength":2112,"target":34962},{"buffer":0,"byteOffset":480864,"byteLength":1584,"target":34963},{"buffer":0,"byteOffset":482448,"byteLength":2016,"target":34962},{"buffer":0,"byteOffset":484464,"byteLength":2016,"target":34962},{"buffer":0,"byteOffset":486480,"byteLength":1344,"target":34962},{"buffer":0,"byteOffset":487824,"byteLength":1008,"target":34963},{"buffer":0,"byteOffset":488832,"byteLength":1728,"target":34962},{"buffer":0,"byteOffset":490560,"byteLength":1728,"target":34962},{"buffer":0,"byteOffset":492288,"byteLength":1152,"target":34962},{"buffer":0,"byteOffset":493440,"byteLength":864,"target":34963},{"buffer":0,"byteOffset":494304,"byteLength":1728,"target":34962},{"buffer":0,"byteOffset":496032,"byteLength":1728,"target":34962},{"buffer":0,"byteOffset":497760,"byteLength":1152,"target":34962},{"buffer":0,"byteOffset":498912,"byteLength":864,"target":34963},{"buffer":0,"byteOffset":499776,"byteLength":6912,"target":34962},{"buffer":0,"byteOffset":506688,"byteLength":6912,"target":34962},{"buffer":0,"byteOffset":513600,"byteLength":4608,"target":34962},{"buffer":0,"byteOffset":518208,"byteLength":3456,"target":34963},{"buffer":0,"byteOffset":521664,"byteLength":3168,"target":34962},{"buffer":0,"byteOffset":524832,"byteLength":3168,"target":34962},{"buffer":0,"byteOffset":528000,"byteLength":2112,"target":34962},{"buffer":0,"byteOffset":530112,"byteLength":1584,"target":34963},{"buffer":0,"byteOffset":531696,"byteLength":864,"target":34962},{"buffer":0,"byteOffset":532560,"byteLength":864,"target":34962},{"buffer":0,"byteOffset":533424,"byteLength":576,"target":34962},{"buffer":0,"byteOffset":534000,"byteLength":432,"target":34963},{"buffer":0,"byteOffset":534432,"byteLength":1152,"target":34962},{"buffer":0,"byteOffset":535584,"byteLength":1152,"target":34962},{"buffer":0,"byteOffset":536736,"byteLength":768,"target":34962},{"buffer":0,"byteOffset":537504,"byteLength":576,"target":34963},{"buffer":0,"byteOffset":538080,"byteLength":288,"target":34962},{"buffer":0,"byteOffset":538368,"byteLength":288,"target":34962},{"buffer":0,"byteOffset":538656,"byteLength":192,"target":34962},{"buffer":0,"byteOffset":538848,"byteLength":144,"target":34963},{"buffer":0,"byteOffset":538992,"byteLength":1152,"target":34962},{"buffer":0,"byteOffset":540144,"byteLength":1152,"target":34962},{"buffer":0,"byteOffset":541296,"byteLength":768,"target":34962},{"buffer":0,"byteOffset":542064,"byteLength":576,"target":34963},{"buffer":0,"byteOffset":542640,"byteLength":4032,"target":34962},{"buffer":0,"byteOffset":546672,"byteLength":4032,"target":34962},{"buffer":0,"byteOffset":550704,"byteLength":2688,"target":34962},{"buffer":0,"byteOffset":553392,"byteLength":2016,"target":34963},{"buffer":0,"byteOffset":555408,"byteLength":1152,"target":34962},{"buffer":0,"byteOffset":556560,"byteLength":1152,"target":34962},{"buffer":0,"byteOffset":557712,"byteLength":768,"target":34962},{"buffer":0,"byteOffset":558480,"byteLength":576,"target":34963},{"buffer":0,"byteOffset":559056,"byteLength":2016,"target":34962},{"buffer":0,"byteOffset":561072,"byteLength":2016,"target":34962},{"buffer":0,"byteOffset":563088,"byteLength":1344,"target":34962},{"buffer":0,"byteOffset":564432,"byteLength":1008,"target":34963},{"buffer":0,"byteOffset":565440,"byteLength":6624,"target":34962},{"buffer":0,"byteOffset":572064,"byteLength":6624,"target":34962},{"buffer":0,"byteOffset":578688,"byteLength":4416,"target":34962},{"buffer":0,"byteOffset":583104,"byteLength":3312,"target":34963},{"buffer":0,"byteOffset":586416,"byteLength":3168,"target":34962},{"buffer":0,"byteOffset":589584,"byteLength":3168,"target":34962},{"buffer":0,"byteOffset":592752,"byteLength":2112,"target":34962},{"buffer":0,"byteOffset":594864,"byteLength":1584,"target":34963},{"buffer":0,"byteOffset":596448,"byteLength":3456,"target":34962},{"buffer":0,"byteOffset":599904,"byteLength":3456,"target":34962},{"buffer":0,"byteOffset":603360,"byteLength":2304,"target":34962},{"buffer":0,"byteOffset":605664,"byteLength":1728,"target":34963},{"buffer":0,"byteOffset":607392,"byteLength":1728,"target":34962},{"buffer":0,"byteOffset":609120,"byteLength":1728,"target":34962},{"buffer":0,"byteOffset":610848,"byteLength":1152,"target":34962},{"buffer":0,"byteOffset":612000,"byteLength":864,"target":34963},{"buffer":0,"byteOffset":612864,"byteLength":10656,"target":34962},{"buffer":0,"byteOffset":623520,"byteLength":10656,"target":34962},{"buffer":0,"byteOffset":634176,"byteLength":7104,"target":34962},{"buffer":0,"byteOffset":641280,"byteLength":5328,"target":34963},{"buffer":0,"byteOffset":646608,"byteLength":6624,"target":34962},{"buffer":0,"byteOffset":653232,"byteLength":6624,"target":34962},{"buffer":0,"byteOffset":659856,"byteLength":4416,"target":34962},{"buffer":0,"byteOffset":664272,"byteLength":3312,"target":34963},{"buffer":0,"byteOffset":667584,"byteLength":2592,"target":34962},{"buffer":0,"byteOffset":670176,"byteLength":2592,"target":34962},{"buffer":0,"byteOffset":672768,"byteLength":1728,"target":34962},{"buffer":0,"byteOffset":674496,"byteLength":1296,"target":34963},{"buffer":0,"byteOffset":675792,"byteLength":4320,"target":34962},{"buffer":0,"byteOffset":680112,"byteLength":4320,"target":34962},{"buffer":0,"byteOffset":684432,"byteLength":2880,"target":34962},{"buffer":0,"byteOffset":687312,"byteLength":2160,"target":34963},{"buffer":0,"byteOffset":689472,"byteLength":2016,"target":34962},{"buffer":0,"byteOffset":691488,"byteLength":2016,"target":34962},{"buffer":0,"byteOffset":693504,"byteLength":1344,"target":34962},{"buffer":0,"byteOffset":694848,"byteLength":1008,"target":34963},{"buffer":0,"byteOffset":695856,"byteLength":6912,"target":34962},{"buffer":0,"byteOffset":702768,"byteLength":6912,"target":34962},{"buffer":0,"byteOffset":709680,"byteLength":4608,"target":34962},{"buffer":0,"byteOffset":714288,"byteLength":3456,"target":34963},{"buffer":0,"byteOffset":717744,"byteLength":1440,"target":34962},{"buffer":0,"byteOffset":719184,"byteLength":1440,"target":34962},{"buffer":0,"byteOffset":720624,"byteLength":960,"target":34962},{"buffer":0,"byteOffset":721584,"byteLength":720,"target":34963},{"buffer":0,"byteOffset":722304,"byteLength":5472,"target":34962},{"buffer":0,"byteOffset":727776,"byteLength":5472,"target":34962},{"buffer":0,"byteOffset":733248,"byteLength":3648,"target":34962},{"buffer":0,"byteOffset":736896,"byteLength":2736,"target":34963},{"buffer":0,"byteOffset":739632,"byteLength":5184,"target":34962},{"buffer":0,"byteOffset":744816,"byteLength":5184,"target":34962},{"buffer":0,"byteOffset":750000,"byteLength":3456,"target":34962},{"buffer":0,"byteOffset":753456,"byteLength":2592,"target":34963},{"buffer":0,"byteOffset":756048,"byteLength":2016,"target":34962},{"buffer":0,"byteOffset":758064,"byteLength":2016,"target":34962},{"buffer":0,"byteOffset":760080,"byteLength":1344,"target":34962},{"buffer":0,"byteOffset":761424,"byteLength":1008,"target":34963},{"buffer":0,"byteOffset":762432,"byteLength":7488,"target":34962},{"buffer":0,"byteOffset":769920,"byteLength":7488,"target":34962},{"buffer":0,"byteOffset":777408,"byteLength":4992,"target":34962},{"buffer":0,"byteOffset":782400,"byteLength":3744,"target":34963},{"buffer":0,"byteOffset":786144,"byteLength":7488,"target":34962},{"buffer":0,"byteOffset":793632,"byteLength":7488,"target":34962},{"buffer":0,"byteOffset":801120,"byteLength":4992,"target":34962},{"buffer":0,"byteOffset":806112,"byteLength":3744,"target":34963},{"buffer":0,"byteOffset":809856,"byteLength":4320,"target":34962},{"buffer":0,"byteOffset":814176,"byteLength":4320,"target":34962},{"buffer":0,"byteOffset":818496,"byteLength":2880,"target":34962},{"buffer":0,"byteOffset":821376,"byteLength":2160,"target":34963},{"buffer":0,"byteOffset":823536,"byteLength":1728,"target":34962},{"buffer":0,"byteOffset":825264,"byteLength":1728,"target":34962},{"buffer":0,"byteOffset":826992,"byteLength":1152,"target":34962},{"buffer":0,"byteOffset":828144,"byteLength":864,"target":34963},{"buffer":0,"byteOffset":829008,"byteLength":14400,"target":34962},{"buffer":0,"byteOffset":843408,"byteLength":14400,"target":34962},{"buffer":0,"byteOffset":857808,"byteLength":9600,"target":34962},{"buffer":0,"byteOffset":867408,"byteLength":7200,"target":34963},{"buffer":0,"byteOffset":874608,"byteLength":7488,"target":34962},{"buffer":0,"byteOffset":882096,"byteLength":7488,"target":34962},{"buffer":0,"byteOffset":889584,"byteLength":4992,"target":34962},{"buffer":0,"byteOffset":894576,"byteLength":3744,"target":34963},{"buffer":0,"byteOffset":898320,"byteLength":864,"target":34962},{"buffer":0,"byteOffset":899184,"byteLength":864,"target":34962},{"buffer":0,"byteOffset":900048,"byteLength":576,"target":34962},{"buffer":0,"byteOffset":900624,"byteLength":432,"target":34963},{"buffer":0,"byteOffset":901056,"byteLength":576,"target":34962},{"buffer":0,"byteOffset":901632,"byteLength":576,"target":34962},{"buffer":0,"byteOffset":902208,"byteLength":384,"target":34962},{"buffer":0,"byteOffset":902592,"byteLength":288,"target":34963},{"buffer":0,"byteOffset":902880,"byteLength":288,"target":34962},{"buffer":0,"byteOffset":903168,"byteLength":288,"target":34962},{"buffer":0,"byteOffset":903456,"byteLength":192,"target":34962},{"buffer":0,"byteOffset":903648,"byteLength":144,"target":34963},{"buffer":0,"byteOffset":903792,"byteLength":2304,"target":34962},{"buffer":0,"byteOffset":906096,"byteLength":2304,"target":34962},{"buffer":0,"byteOffset":908400,"byteLength":1536,"target":34962},{"buffer":0,"byteOffset":909936,"byteLength":1152,"target":34963},{"buffer":0,"byteOffset":911088,"byteLength":864,"target":34962},{"buffer":0,"byteOffset":911952,"byteLength":864,"target":34962},{"buffer":0,"byteOffset":912816,"byteLength":576,"target":34962},{"buffer":0,"byteOffset":913392,"byteLength":432,"target":34963},{"buffer":0,"byteOffset":913824,"byteLength":864,"target":34962},{"buffer":0,"byteOffset":914688,"byteLength":864,"target":34962},{"buffer":0,"byteOffset":915552,"byteLength":576,"target":34962},{"buffer":0,"byteOffset":916128,"byteLength":432,"target":34963},{"buffer":0,"byteOffset":916560,"byteLength":576,"target":34962},{"buffer":0,"byteOffset":917136,"byteLength":576,"target":34962},{"buffer":0,"byteOffset":917712,"byteLength":384,"target":34962},{"buffer":0,"byteOffset":918096,"byteLength":288,"target":34963},{"buffer":0,"byteOffset":918384,"byteLength":864,"target":34962},{"buffer":0,"byteOffset":919248,"byteLength":864,"target":34962},{"buffer":0,"byteOffset":920112,"byteLength":576,"target":34962},{"buffer":0,"byteOffset":920688,"byteLength":432,"target":34963},{"buffer":0,"byteOffset":921120,"byteLength":288,"target":34962},{"buffer":0,"byteOffset":921408,"byteLength":288,"target":34962},{"buffer":0,"byteOffset":921696,"byteLength":192,"target":34962},{"buffer":0,"byteOffset":921888,"byteLength":144,"target":34963},{"buffer":0,"byteOffset":922032,"byteLength":576,"target":34962},{"buffer":0,"byteOffset":922608,"byteLength":576,"target":34962},{"buffer":0,"byteOffset":923184,"byteLength":384,"target":34962},{"buffer":0,"byteOffset":923568,"byteLength":288,"target":34963},{"buffer":0,"byteOffset":923856,"byteLength":2592,"target":34962},{"buffer":0,"byteOffset":926448,"byteLength":2592,"target":34962},{"buffer":0,"byteOffset":929040,"byteLength":1728,"target":34962},{"buffer":0,"byteOffset":930768,"byteLength":1296,"target":34963},{"buffer":0,"byteOffset":932064,"byteLength":576,"target":34962},{"buffer":0,"byteOffset":932640,"byteLength":576,"target":34962},{"buffer":0,"byteOffset":933216,"byteLength":384,"target":34962},{"buffer":0,"byteOffset":933600,"byteLength":288,"target":34963},{"buffer":0,"byteOffset":933888,"byteLength":288,"target":34962},{"buffer":0,"byteOffset":934176,"byteLength":288,"target":34962},{"buffer":0,"byteOffset":934464,"byteLength":192,"target":34962},{"buffer":0,"byteOffset":934656,"byteLength":144,"target":34963},{"buffer":0,"byteOffset":934800,"byteLength":288,"target":34962},{"buffer":0,"byteOffset":935088,"byteLength":288,"target":34962},{"buffer":0,"byteOffset":935376,"byteLength":192,"target":34962},{"buffer":0,"byteOffset":935568,"byteLength":144,"target":34963},{"buffer":0,"byteOffset":935712,"byteLength":1440,"target":34962},{"buffer":0,"byteOffset":937152,"byteLength":1440,"target":34962},{"buffer":0,"byteOffset":938592,"byteLength":960,"target":34962},{"buffer":0,"byteOffset":939552,"byteLength":720,"target":34963},{"buffer":0,"byteOffset":940272,"byteLength":288,"target":34962},{"buffer":0,"byteOffset":940560,"byteLength":288,"target":34962},{"buffer":0,"byteOffset":940848,"byteLength":192,"target":34962},{"buffer":0,"byteOffset":941040,"byteLength":144,"target":34963},{"buffer":0,"byteOffset":941184,"byteLength":1728,"target":34962},{"buffer":0,"byteOffset":942912,"byteLength":1728,"target":34962},{"buffer":0,"byteOffset":944640,"byteLength":1152,"target":34962},{"buffer":0,"byteOffset":945792,"byteLength":864,"target":34963},{"buffer":0,"byteOffset":946656,"byteLength":1152,"target":34962},{"buffer":0,"byteOffset":947808,"byteLength":1152,"target":34962},{"buffer":0,"byteOffset":948960,"byteLength":768,"target":34962},{"buffer":0,"byteOffset":949728,"byteLength":576,"target":34963},{"buffer":0,"byteOffset":950304,"byteLength":288,"target":34962},{"buffer":0,"byteOffset":950592,"byteLength":288,"target":34962},{"buffer":0,"byteOffset":950880,"byteLength":192,"target":34962},{"buffer":0,"byteOffset":951072,"byteLength":144,"target":34963},{"buffer":0,"byteOffset":951216,"byteLength":864,"target":34962},{"buffer":0,"byteOffset":952080,"byteLength":864,"target":34962},{"buffer":0,"byteOffset":952944,"byteLength":576,"target":34962},{"buffer":0,"byteOffset":953520,"byteLength":432,"target":34963},{"buffer":0,"byteOffset":953952,"byteLength":288,"target":34962},{"buffer":0,"byteOffset":954240,"byteLength":288,"target":34962},{"buffer":0,"byteOffset":954528,"byteLength":192,"target":34962},{"buffer":0,"byteOffset":954720,"byteLength":144,"target":34963},{"buffer":0,"byteOffset":954864,"byteLength":2880,"target":34962},{"buffer":0,"byteOffset":957744,"byteLength":2880,"target":34962},{"buffer":0,"byteOffset":960624,"byteLength":1920,"target":34962},{"buffer":0,"byteOffset":962544,"byteLength":1440,"target":34963},{"buffer":0,"byteOffset":963984,"byteLength":1152,"target":34962},{"buffer":0,"byteOffset":965136,"byteLength":1152,"target":34962},{"buffer":0,"byteOffset":966288,"byteLength":768,"target":34962},{"buffer":0,"byteOffset":967056,"byteLength":576,"target":34963},{"buffer":0,"byteOffset":967632,"byteLength":288,"target":34962},{"buffer":0,"byteOffset":967920,"byteLength":288,"target":34962},{"buffer":0,"byteOffset":968208,"byteLength":192,"target":34962},{"buffer":0,"byteOffset":968400,"byteLength":144,"target":34963},{"buffer":0,"byteOffset":968544,"byteLength":288,"target":34962},{"buffer":0,"byteOffset":968832,"byteLength":288,"target":34962},{"buffer":0,"byteOffset":969120,"byteLength":192,"target":34962},{"buffer":0,"byteOffset":969312,"byteLength":144,"target":34963}],"buffers":[{"uri":"porao_estrutura.bin","byteLength":969456}],"images":[{"uri":"../../../images/textures/polyhaven/rocky_trail_02_diff.jpg"},{"uri":"../../../images/textures/polyhaven/rocky_trail_02_arm.jpg"},{"uri":"../../../images/textures/polyhaven/rocky_trail_02_nor_gl.jpg"},{"uri":"../../../images/textures/polyhaven/mud_cracked_dry_03_diff.jpg"},{"uri":"../../../images/textures/polyhaven/mud_cracked_dry_03_arm.jpg"},{"uri":"../../../images/textures/polyhaven/mud_cracked_dry_03_nor_gl.jpg"},{"uri":"../../../images/textures/polyhaven/rusty_metal_02_diff.jpg"},{"uri":"../../../images/textures/polyhaven/rusty_metal_02_arm.jpg"},{"uri":"../../../images/textures/polyhaven/rusty_metal_02_nor_gl.jpg"},{"uri":"../../../images/textures/polyhaven/rock_wall_08_diff.jpg"},{"uri":"../../../images/textures/polyhaven/rock_wall_08_arm.jpg"},{"uri":"../../../images/textures/polyhaven/rock_wall_08_nor_gl.jpg"},{"uri":"../../../images/textures/polyhaven/weathered_brown_planks_diff.jpg"},{"uri":"../../../images/textures/polyhaven/weathered_brown_planks_arm.jpg"},{"uri":"../../../images/textures/polyhaven/weathered_brown_planks_nor_gl.jpg"},{"uri":"../../../images/textures/polyhaven/brown_mud_02_diff.jpg"},{"uri":"../../../images/textures/polyhaven/brown_mud_02_arm.jpg"},{"uri":"../../../images/textures/polyhaven/brown_mud_02_nor_gl.jpg"}],"textures":[{"source":0},{"source":1},{"source":2},{"source":3},{"source":4},{"source":5},{"source":6},{"source":7},{"source":8},{"source":9},{"source":10},{"source":11},{"source":12},{"source":13},{"source":14},{"source":15},{"source":16},{"source":17}]}