{
	"asset":{
		"generator":"Khronos glTF Blender I/O v5.2.40",
		"version":"2.0"
	},
	"scene":0,
	"scenes":[
		{
			"name":"Scene",
			"nodes":[
				0
			]
		}
	],
	"nodes":[
		{
			"mesh":0,
			"name":"planter_box_02"
		}
	],
	"materials":[
		{
			"doubleSided":true,
			"name":"planter_box_02",
			"normalTexture":{
				"index":0
			},
			"pbrMetallicRoughness":{
				"baseColorTexture":{
					"index":1
				},
				"metallicRoughnessTexture":{
					"index":2
				}
			}
		}
	],
	"meshes":[
		{
			"name":"Plane.001",
			"primitives":[
				{
					"attributes":{
						"POSITION":0,
						"NORMAL":1,
						"TEXCOORD_0":2
					},
					"indices":3,
					"material":0
				}
			]
		}
	],
	"textures":[
		{
			"sampler":0,
			"source":0
		},
		{
			"sampler":0,
			"source":1
		},
		{
			"sampler":0,
			"source":2
		}
	],
	"images":[
		{
			"mimeType":"image/jpeg",
			"name":"planter_box_02_nor_gl_1k",
			"uri":"textures/planter_box_02_nor_gl_1k.jpg"
		},
		{
			"mimeType":"image/jpeg",
			"name":"planter_box_02_diff_1k",
			"uri":"textures/planter_box_02_diff_1k.jpg"
		},
		{
			"mimeType":"image/jpeg",
			"name":"planter_box_02_arm_1k",
			"uri":"textures/planter_box_02_arm_1k.jpg"
		}
	],
	"accessors":[
		{
			"bufferView":0,
			"componentType":5126,
			"count":5794,
			"max":[
				0.626691460609436,
				0.45257699489593506,
				0.23242107033729553
			],
			"min":[
				-0.6249181032180786,
				-0.0012887372868135571,
				-0.23476505279541016
			],
			"type":"VEC3"
		},
		{
			"bufferView":1,
			"componentType":5126,
			"count":5794,
			"type":"VEC3"
		},
		{
			"bufferView":2,
			"componentType":5126,
			"count":5794,
			"type":"VEC2"
		},
		{
			"bufferView":3,
			"componentType":5123,
			"count":18000,
			"type":"SCALAR"
		}
	],
	"bufferViews":[
		{
			"buffer":0,
			"byteLength":69528,
			"byteOffset":0,
			"target":34962
		},
		{
			"buffer":0,
			"byteLength":69528,
			"byteOffset":69528,
			"target":34962
		},
		{
			"buffer":0,
			"byteLength":46352,
			"byteOffset":139056,
			"target":34962
		},
		{
			"buffer":0,
			"byteLength":36000,
			"byteOffset":185408,
			"target":34963
		}
	],
	"samplers":[
		{
			"magFilter":9729,
			"minFilter":9987
		}
	],
	"buffers":[
		{
			"byteLength":221408,
			"uri":"planter_box_02_1k.bin"
		}
	]
}
