{
	"asset":{
		"generator":"Khronos glTF Blender I/O v5.2.40",
		"version":"2.0"
	},
	"scene":0,
	"scenes":[
		{
			"name":"Scene",
			"nodes":[
				0
			]
		}
	],
	"nodes":[
		{
			"mesh":0,
			"name":"metal_trash_can_handle_left",
			"rotation":[
				0,
				0,
				-0.7933533191680908,
				0.6087616086006165
			],
			"translation":[
				0.22699838876724243,
				0.6497123837471008,
				-0.00019631585746537894
			]
		}
	],
	"materials":[
		{
			"doubleSided":true,
			"name":"metal_trash_can",
			"normalTexture":{
				"index":0
			},
			"pbrMetallicRoughness":{
				"baseColorTexture":{
					"index":1
				},
				"metallicRoughnessTexture":{
					"index":2
				}
			}
		},
		{
			"doubleSided":true,
			"name":"metal_trash_can_rust",
			"normalTexture":{
				"index":3
			},
			"pbrMetallicRoughness":{
				"baseColorTexture":{
					"index":4
				},
				"metallicRoughnessTexture":{
					"index":5
				}
			}
		},
		{
			"doubleSided":true,
			"name":"metal_trash_can_rust.001",
			"normalTexture":{
				"index":6
			},
			"pbrMetallicRoughness":{
				"baseColorTexture":{
					"index":7
				},
				"metallicRoughnessTexture":{
					"index":8
				}
			}
		}
	],
	"meshes":[
		{
			"name":"Cylinder.003",
			"primitives":[
				{
					"attributes":{
						"POSITION":0,
						"NORMAL":1,
						"TEXCOORD_0":2
					},
					"indices":3,
					"material":0
				},
				{
					"attributes":{
						"POSITION":4,
						"NORMAL":5,
						"TEXCOORD_0":6
					},
					"indices":7,
					"material":1
				},
				{
					"attributes":{
						"POSITION":8,
						"NORMAL":9,
						"TEXCOORD_0":10
					},
					"indices":11,
					"material":2
				}
			]
		}
	],
	"textures":[
		{
			"sampler":0,
			"source":0
		},
		{
			"sampler":0,
			"source":1
		},
		{
			"sampler":0,
			"source":2
		},
		{
			"sampler":0,
			"source":3
		},
		{
			"sampler":0,
			"source":4
		},
		{
			"sampler":0,
			"source":5
		},
		{
			"sampler":0,
			"source":3
		},
		{
			"sampler":0,
			"source":4
		},
		{
			"sampler":0,
			"source":5
		}
	],
	"images":[
		{
			"mimeType":"image/jpeg",
			"name":"metal_trash_can_nor_gl_1k",
			"uri":"textures/metal_trash_can_nor_gl_1k.jpg"
		},
		{
			"mimeType":"image/jpeg",
			"name":"metal_trash_can_diff_1k",
			"uri":"textures/metal_trash_can_diff_1k.jpg"
		},
		{
			"mimeType":"image/jpeg",
			"name":"metal_trash_can_arm_1k",
			"uri":"textures/metal_trash_can_arm_1k.jpg"
		},
		{
			"mimeType":"image/jpeg",
			"name":"metal_trash_can_rust_nor_gl_1k",
			"uri":"textures/metal_trash_can_rust_nor_gl_1k.jpg"
		},
		{
			"mimeType":"image/jpeg",
			"name":"metal_trash_can_rust_diff_1k",
			"uri":"textures/metal_trash_can_rust_diff_1k.jpg"
		},
		{
			"mimeType":"image/jpeg",
			"name":"metal_trash_can_rust_arm_1k",
			"uri":"textures/metal_trash_can_rust_arm_1k.jpg"
		}
	],
	"accessors":[
		{
			"bufferView":0,
			"componentType":5126,
			"count":2113,
			"max":[
				0.6549829244613647,
				0.6981380581855774,
				0.2778719961643219
			],
			"min":[
				-0.3881635069847107,
				-0.08239442855119705,
				-0.2776305675506592
			],
			"type":"VEC3"
		},
		{
			"bufferView":1,
			"componentType":5126,
			"count":2113,
			"type":"VEC3"
		},
		{
			"bufferView":2,
			"componentType":5126,
			"count":2113,
			"type":"VEC2"
		},
		{
			"bufferView":3,
			"componentType":5123,
			"count":7035,
			"type":"SCALAR"
		},
		{
			"bufferView":4,
			"componentType":5126,
			"count":1706,
			"max":[
				0.8866084218025208,
				-0.2679505944252014,
				0.2745096981525421
			],
			"min":[
				-0.12418472766876221,
				-1.0273510217666626,
				-0.2743854224681854
			],
			"type":"VEC3"
		},
		{
			"bufferView":5,
			"componentType":5126,
			"count":1706,
			"type":"VEC3"
		},
		{
			"bufferView":6,
			"componentType":5126,
			"count":1706,
			"type":"VEC2"
		},
		{
			"bufferView":7,
			"componentType":5123,
			"count":5568,
			"type":"SCALAR"
		},
		{
			"bufferView":8,
			"componentType":5126,
			"count":610,
			"max":[
				0.9141051769256592,
				-0.3823048770427704,
				0.27568745613098145
			],
			"min":[
				0.1118006706237793,
				-1.0481352806091309,
				-0.26996564865112305
			],
			"type":"VEC3"
		},
		{
			"bufferView":9,
			"componentType":5126,
			"count":610,
			"type":"VEC3"
		},
		{
			"bufferView":10,
			"componentType":5126,
			"count":610,
			"type":"VEC2"
		},
		{
			"bufferView":11,
			"componentType":5123,
			"count":2394,
			"type":"SCALAR"
		}
	],
	"bufferViews":[
		{
			"buffer":0,
			"byteLength":25356,
			"byteOffset":0,
			"target":34962
		},
		{
			"buffer":0,
			"byteLength":25356,
			"byteOffset":25356,
			"target":34962
		},
		{
			"buffer":0,
			"byteLength":16904,
			"byteOffset":50712,
			"target":34962
		},
		{
			"buffer":0,
			"byteLength":14070,
			"byteOffset":67616,
			"target":34963
		},
		{
			"buffer":0,
			"byteLength":20472,
			"byteOffset":81688,
			"target":34962
		},
		{
			"buffer":0,
			"byteLength":20472,
			"byteOffset":102160,
			"target":34962
		},
		{
			"buffer":0,
			"byteLength":13648,
			"byteOffset":122632,
			"target":34962
		},
		{
			"buffer":0,
			"byteLength":11136,
			"byteOffset":136280,
			"target":34963
		},
		{
			"buffer":0,
			"byteLength":7320,
			"byteOffset":147416,
			"target":34962
		},
		{
			"buffer":0,
			"byteLength":7320,
			"byteOffset":154736,
			"target":34962
		},
		{
			"buffer":0,
			"byteLength":4880,
			"byteOffset":162056,
			"target":34962
		},
		{
			"buffer":0,
			"byteLength":4788,
			"byteOffset":166936,
			"target":34963
		}
	],
	"samplers":[
		{
			"magFilter":9729,
			"minFilter":9987
		}
	],
	"buffers":[
		{
			"byteLength":171724,
			"uri":"metal_trash_can_1k.bin"
		}
	]
}
