{
	"asset":{
		"generator":"Khronos glTF Blender I/O v5.2.40",
		"version":"2.0"
	},
	"scene":0,
	"scenes":[
		{
			"name":"Scene",
			"nodes":[
				0
			]
		}
	],
	"nodes":[
		{
			"mesh":0,
			"name":"hand_truck"
		}
	],
	"materials":[
		{
			"doubleSided":true,
			"name":"hand_truck",
			"normalTexture":{
				"index":0
			},
			"pbrMetallicRoughness":{
				"baseColorTexture":{
					"index":1
				},
				"metallicRoughnessTexture":{
					"index":2
				}
			}
		}
	],
	"meshes":[
		{
			"name":"hand_truck",
			"primitives":[
				{
					"attributes":{
						"POSITION":0,
						"NORMAL":1,
						"TEXCOORD_0":2
					},
					"indices":3,
					"material":0
				}
			]
		}
	],
	"textures":[
		{
			"sampler":0,
			"source":0
		},
		{
			"sampler":0,
			"source":1
		},
		{
			"sampler":0,
			"source":2
		}
	],
	"images":[
		{
			"mimeType":"image/jpeg",
			"name":"hand_truck_nor_gl_1k",
			"uri":"textures/hand_truck_nor_gl_1k.jpg"
		},
		{
			"mimeType":"image/jpeg",
			"name":"hand_truck_diff_1k",
			"uri":"textures/hand_truck_diff_1k.jpg"
		},
		{
			"mimeType":"image/jpeg",
			"name":"hand_truck_arm_1k",
			"uri":"textures/hand_truck_arm_1k.jpg"
		}
	],
	"accessors":[
		{
			"bufferView":0,
			"componentType":5126,
			"count":8133,
			"max":[
				0.29662641882896423,
				1.4024649858474731,
				0.5968921184539795
			],
			"min":[
				-0.2966264486312866,
				-0.0016526911640539765,
				-0.09542971104383469
			],
			"type":"VEC3"
		},
		{
			"bufferView":1,
			"componentType":5126,
			"count":8133,
			"type":"VEC3"
		},
		{
			"bufferView":2,
			"componentType":5126,
			"count":8133,
			"type":"VEC2"
		},
		{
			"bufferView":3,
			"componentType":5123,
			"count":14997,
			"type":"SCALAR"
		}
	],
	"bufferViews":[
		{
			"buffer":0,
			"byteLength":97596,
			"byteOffset":0,
			"target":34962
		},
		{
			"buffer":0,
			"byteLength":97596,
			"byteOffset":97596,
			"target":34962
		},
		{
			"buffer":0,
			"byteLength":65064,
			"byteOffset":195192,
			"target":34962
		},
		{
			"buffer":0,
			"byteLength":29994,
			"byteOffset":260256,
			"target":34963
		}
	],
	"samplers":[
		{
			"magFilter":9729,
			"minFilter":9987
		}
	],
	"buffers":[
		{
			"byteLength":290252,
			"uri":"hand_truck_1k.bin"
		}
	]
}
