{
	"asset":{
		"generator":"Khronos glTF Blender I/O v5.2.40",
		"version":"2.0"
	},
	"scene":0,
	"scenes":[
		{
			"name":"Scene",
			"nodes":[
				0
			]
		}
	],
	"nodes":[
		{
			"mesh":0,
			"name":"dead_tree_trunk_02"
		}
	],
	"materials":[
		{
			"doubleSided":true,
			"name":"dead_tree_trunk_02",
			"normalTexture":{
				"index":0
			},
			"pbrMetallicRoughness":{
				"baseColorTexture":{
					"index":1
				},
				"metallicFactor":0,
				"metallicRoughnessTexture":{
					"index":2
				}
			}
		}
	],
	"meshes":[
		{
			"name":"fallen_log_5m_PROXY.002",
			"primitives":[
				{
					"attributes":{
						"POSITION":0,
						"NORMAL":1,
						"TEXCOORD_0":2
					},
					"indices":3,
					"material":0
				}
			]
		}
	],
	"textures":[
		{
			"sampler":0,
			"source":0
		},
		{
			"sampler":0,
			"source":1
		},
		{
			"sampler":0,
			"source":2
		}
	],
	"images":[
		{
			"mimeType":"image/jpeg",
			"name":"dead_tree_trunk_02_nor_gl_1k",
			"uri":"textures/dead_tree_trunk_02_nor_gl_1k.jpg"
		},
		{
			"mimeType":"image/jpeg",
			"name":"dead_tree_trunk_02_diff_1k",
			"uri":"textures/dead_tree_trunk_02_diff_1k.jpg"
		},
		{
			"mimeType":"image/jpeg",
			"name":"dead_tree_trunk_02_arm_1k",
			"uri":"textures/dead_tree_trunk_02_arm_1k.jpg"
		}
	],
	"accessors":[
		{
			"bufferView":0,
			"componentType":5126,
			"count":4622,
			"max":[
				2.1285130977630615,
				0.7263022065162659,
				0.5556004643440247
			],
			"min":[
				-1.9237881898880005,
				-0.3302440941333771,
				-0.49718955159187317
			],
			"type":"VEC3"
		},
		{
			"bufferView":1,
			"componentType":5126,
			"count":4622,
			"type":"VEC3"
		},
		{
			"bufferView":2,
			"componentType":5126,
			"count":4622,
			"type":"VEC2"
		},
		{
			"bufferView":3,
			"componentType":5123,
			"count":18000,
			"type":"SCALAR"
		}
	],
	"bufferViews":[
		{
			"buffer":0,
			"byteLength":55464,
			"byteOffset":0,
			"target":34962
		},
		{
			"buffer":0,
			"byteLength":55464,
			"byteOffset":55464,
			"target":34962
		},
		{
			"buffer":0,
			"byteLength":36976,
			"byteOffset":110928,
			"target":34962
		},
		{
			"buffer":0,
			"byteLength":36000,
			"byteOffset":147904,
			"target":34963
		}
	],
	"samplers":[
		{
			"magFilter":9729,
			"minFilter":9987
		}
	],
	"buffers":[
		{
			"byteLength":183904,
			"uri":"dead_tree_trunk_02_1k.bin"
		}
	]
}
