{
	"asset":{
		"generator":"Khronos glTF Blender I/O v5.2.40",
		"version":"2.0"
	},
	"scene":0,
	"scenes":[
		{
			"name":"Scene",
			"nodes":[
				0
			]
		}
	],
	"nodes":[
		{
			"mesh":0,
			"name":"concrete_road_barrier"
		}
	],
	"materials":[
		{
			"doubleSided":true,
			"name":"concrete_road_barrier",
			"normalTexture":{
				"index":0
			},
			"pbrMetallicRoughness":{
				"baseColorTexture":{
					"index":1
				},
				"metallicFactor":0,
				"metallicRoughnessTexture":{
					"index":2
				}
			}
		}
	],
	"meshes":[
		{
			"name":"RetopoFlow.006",
			"primitives":[
				{
					"attributes":{
						"POSITION":0,
						"NORMAL":1,
						"TEXCOORD_0":2
					},
					"indices":3,
					"material":0
				}
			]
		}
	],
	"textures":[
		{
			"sampler":0,
			"source":0
		},
		{
			"sampler":0,
			"source":1
		},
		{
			"sampler":0,
			"source":2
		}
	],
	"images":[
		{
			"mimeType":"image/jpeg",
			"name":"concrete_road_barrier_nor_gl_1k",
			"uri":"textures/concrete_road_barrier_nor_gl_1k.jpg"
		},
		{
			"mimeType":"image/jpeg",
			"name":"concrete_road_barrier_diff_1k",
			"uri":"textures/concrete_road_barrier_diff_1k.jpg"
		},
		{
			"mimeType":"image/jpeg",
			"name":"concrete_road_barrier_arm_1k",
			"uri":"textures/concrete_road_barrier_arm_1k.jpg"
		}
	],
	"accessors":[
		{
			"bufferView":0,
			"componentType":5126,
			"count":1824,
			"max":[
				0.7705284953117371,
				0.8237066268920898,
				0.342276394367218
			],
			"min":[
				-0.773967981338501,
				-0.00907602533698082,
				-0.2935716509819031
			],
			"type":"VEC3"
		},
		{
			"bufferView":1,
			"componentType":5126,
			"count":1824,
			"type":"VEC3"
		},
		{
			"bufferView":2,
			"componentType":5126,
			"count":1824,
			"type":"VEC2"
		},
		{
			"bufferView":3,
			"componentType":5123,
			"count":9000,
			"type":"SCALAR"
		}
	],
	"bufferViews":[
		{
			"buffer":0,
			"byteLength":21888,
			"byteOffset":0,
			"target":34962
		},
		{
			"buffer":0,
			"byteLength":21888,
			"byteOffset":21888,
			"target":34962
		},
		{
			"buffer":0,
			"byteLength":14592,
			"byteOffset":43776,
			"target":34962
		},
		{
			"buffer":0,
			"byteLength":18000,
			"byteOffset":58368,
			"target":34963
		}
	],
	"samplers":[
		{
			"magFilter":9729,
			"minFilter":9987
		}
	],
	"buffers":[
		{
			"byteLength":76368,
			"uri":"concrete_road_barrier_1k.bin"
		}
	]
}
