{
	"asset":{
		"generator":"Khronos glTF Blender I/O v4.1.62",
		"version":"2.0"
	},
	"scene":0,
	"scenes":[
		{
			"name":"Scene",
			"nodes":[
				0,
				1
			]
		}
	],
	"nodes":[
		{
			"mesh":0,
			"name":"Spruce_tree_summer",
			"rotation":[
				0.055937424302101135,
				0.8400367498397827,
				-0.25163403153419495,
				0.47737783193588257
			],
			"scale":[
				0.37848523259162903,
				0.37848523259162903,
				0.3784852623939514
			],
			"translation":[
				-40.014461517333984,
				19.60443115234375,
				-4.1713409423828125
			]
		},
		{
			"mesh":1,
			"name":"Spruce_tree_wintter",
			"rotation":[
				0.055937424302101135,
				0.8400367498397827,
				-0.25163403153419495,
				0.47737783193588257
			],
			"scale":[
				0.37848523259162903,
				0.37848523259162903,
				0.3784852623939514
			],
			"translation":[
				-58.00672912597656,
				19.887649536132812,
				-3.9016623497009277
			]
		}
	],
	"materials":[
		{
			"alphaCutoff":0,
			"alphaMode":"MASK",
			"doubleSided":true,
			"name":"green_leaves",
			"pbrMetallicRoughness":{
				"baseColorTexture":{
					"index":0
				},
				"metallicFactor":0
			}
		},
		{
			"doubleSided":true,
			"name":"runko",
			"pbrMetallicRoughness":{
				"baseColorTexture":{
					"index":1
				},
				"metallicFactor":0,
				"roughnessFactor":0.5
			}
		},
		{
			"alphaCutoff":0.653333306312561,
			"alphaMode":"MASK",
			"doubleSided":true,
			"name":"Material.003",
			"pbrMetallicRoughness":{
				"baseColorTexture":{
					"index":2
				},
				"metallicFactor":0
			}
		}
	],
	"meshes":[
		{
			"name":"Cube.122",
			"primitives":[
				{
					"attributes":{
						"POSITION":0,
						"NORMAL":1,
						"TEXCOORD_0":2
					},
					"indices":3,
					"material":0
				},
				{
					"attributes":{
						"POSITION":4,
						"NORMAL":5,
						"TEXCOORD_0":6
					},
					"indices":7,
					"material":1
				}
			]
		},
		{
			"name":"Cube.126",
			"primitives":[
				{
					"attributes":{
						"POSITION":8,
						"NORMAL":9,
						"TEXCOORD_0":10
					},
					"indices":3,
					"material":2
				},
				{
					"attributes":{
						"POSITION":11,
						"NORMAL":12,
						"TEXCOORD_0":13
					},
					"indices":7,
					"material":1
				}
			]
		}
	],
	"textures":[
		{
			"sampler":0,
			"source":0
		},
		{
			"sampler":1,
			"source":1
		},
		{
			"sampler":0,
			"source":2
		}
	],
	"images":[
		{
			"mimeType":"image/png",
			"name":"spruce_blur",
			"uri":"textures/spruce_blur.png"
		},
		{
			"mimeType":"image/png",
			"name":"tree_trunk",
			"uri":"textures/tree_trunk.png"
		},
		{
			"mimeType":"image/png",
			"name":"spruce_blur_winter",
			"uri":"textures/spruce_blur_winter.png"
		}
	],
	"accessors":[
		{
			"bufferView":0,
			"componentType":5126,
			"count":8100,
			"max":[
				29.421106338500977,
				1.596494436264038,
				38.364234924316406
			],
			"min":[
				-14.77621841430664,
				-56.74629211425781,
				-9.560705184936523
			],
			"type":"VEC3"
		},
		{
			"bufferView":1,
			"componentType":5126,
			"count":8100,
			"type":"VEC3"
		},
		{
			"bufferView":2,
			"componentType":5126,
			"count":8100,
			"type":"VEC2"
		},
		{
			"bufferView":3,
			"componentType":5123,
			"count":48000,
			"type":"SCALAR"
		},
		{
			"bufferView":4,
			"componentType":5126,
			"count":266,
			"max":[
				10.336886405944824,
				0.8253936767578125,
				22.269737243652344
			],
			"min":[
				-0.6930303573608398,
				-48.76570129394531,
				-6.812673568725586
			],
			"type":"VEC3"
		},
		{
			"bufferView":5,
			"componentType":5126,
			"count":266,
			"type":"VEC3"
		},
		{
			"bufferView":6,
			"componentType":5126,
			"count":266,
			"type":"VEC2"
		},
		{
			"bufferView":7,
			"componentType":5123,
			"count":408,
			"type":"SCALAR"
		},
		{
			"bufferView":8,
			"componentType":5126,
			"count":8100,
			"max":[
				29.421106338500977,
				1.596494436264038,
				38.364234924316406
			],
			"min":[
				-14.77621841430664,
				-56.74629211425781,
				-9.560705184936523
			],
			"type":"VEC3"
		},
		{
			"bufferView":9,
			"componentType":5126,
			"count":8100,
			"type":"VEC3"
		},
		{
			"bufferView":10,
			"componentType":5126,
			"count":8100,
			"type":"VEC2"
		},
		{
			"bufferView":11,
			"componentType":5126,
			"count":266,
			"max":[
				10.336886405944824,
				0.8253936767578125,
				22.269737243652344
			],
			"min":[
				-0.6930303573608398,
				-48.76570129394531,
				-6.812673568725586
			],
			"type":"VEC3"
		},
		{
			"bufferView":12,
			"componentType":5126,
			"count":266,
			"type":"VEC3"
		},
		{
			"bufferView":13,
			"componentType":5126,
			"count":266,
			"type":"VEC2"
		}
	],
	"bufferViews":[
		{
			"buffer":0,
			"byteLength":97200,
			"byteOffset":0,
			"target":34962
		},
		{
			"buffer":0,
			"byteLength":97200,
			"byteOffset":97200,
			"target":34962
		},
		{
			"buffer":0,
			"byteLength":64800,
			"byteOffset":194400,
			"target":34962
		},
		{
			"buffer":0,
			"byteLength":96000,
			"byteOffset":259200,
			"target":34963
		},
		{
			"buffer":0,
			"byteLength":3192,
			"byteOffset":355200,
			"target":34962
		},
		{
			"buffer":0,
			"byteLength":3192,
			"byteOffset":358392,
			"target":34962
		},
		{
			"buffer":0,
			"byteLength":2128,
			"byteOffset":361584,
			"target":34962
		},
		{
			"buffer":0,
			"byteLength":816,
			"byteOffset":363712,
			"target":34963
		},
		{
			"buffer":0,
			"byteLength":97200,
			"byteOffset":364528,
			"target":34962
		},
		{
			"buffer":0,
			"byteLength":97200,
			"byteOffset":461728,
			"target":34962
		},
		{
			"buffer":0,
			"byteLength":64800,
			"byteOffset":558928,
			"target":34962
		},
		{
			"buffer":0,
			"byteLength":3192,
			"byteOffset":623728,
			"target":34962
		},
		{
			"buffer":0,
			"byteLength":3192,
			"byteOffset":626920,
			"target":34962
		},
		{
			"buffer":0,
			"byteLength":2128,
			"byteOffset":630112,
			"target":34962
		}
	],
	"samplers":[
		{
			"magFilter":9728,
			"minFilter":9984
		},
		{
			"magFilter":9729,
			"minFilter":9987
		}
	],
	"buffers":[
		{
			"byteLength":632240,
			"uri":"TREE_SPRUCE.bin"
		}
	]
}
