{
	"asset":{
		"generator":"Khronos glTF Blender I/O v5.2.40",
		"version":"2.0"
	},
	"scene":0,
	"scenes":[
		{
			"name":"Scene",
			"nodes":[
				0
			]
		}
	],
	"nodes":[
		{
			"mesh":0,
			"name":"security_camera_01"
		}
	],
	"materials":[
		{
			"doubleSided":true,
			"name":"security_camera_01",
			"normalTexture":{
				"index":0
			},
			"pbrMetallicRoughness":{
				"baseColorTexture":{
					"index":1
				},
				"metallicRoughnessTexture":{
					"index":2
				}
			}
		},
		{
			"alphaMode":"BLEND",
			"doubleSided":true,
			"name":"security_camera_01_glass",
			"normalTexture":{
				"index":3
			},
			"pbrMetallicRoughness":{
				"baseColorTexture":{
					"index":4
				},
				"metallicRoughnessTexture":{
					"index":5
				}
			}
		}
	],
	"meshes":[
		{
			"name":"security_camera.001",
			"primitives":[
				{
					"attributes":{
						"POSITION":0,
						"NORMAL":1,
						"TEXCOORD_0":2
					},
					"indices":3,
					"material":0
				},
				{
					"attributes":{
						"POSITION":4,
						"NORMAL":5,
						"TEXCOORD_0":6
					},
					"indices":7,
					"material":1
				}
			]
		}
	],
	"textures":[
		{
			"sampler":0,
			"source":0
		},
		{
			"sampler":0,
			"source":1
		},
		{
			"sampler":0,
			"source":2
		},
		{
			"sampler":0,
			"source":0
		},
		{
			"sampler":0,
			"source":3
		},
		{
			"sampler":0,
			"source":2
		}
	],
	"images":[
		{
			"mimeType":"image/jpeg",
			"name":"security_camera_01_nor_gl_1k",
			"uri":"textures/security_camera_01_nor_gl_1k.jpg"
		},
		{
			"mimeType":"image/jpeg",
			"name":"security_camera_01_diff_1k",
			"uri":"textures/security_camera_01_diff_1k.jpg"
		},
		{
			"mimeType":"image/jpeg",
			"name":"security_camera_01_arm_1k",
			"uri":"textures/security_camera_01_arm_1k.jpg"
		},
		{
			"mimeType":"image/png",
			"name":"security_camera_01_diff_1k",
			"uri":"textures/security_camera_01_diff_1k.png"
		}
	],
	"accessors":[
		{
			"bufferView":0,
			"componentType":5126,
			"count":3416,
			"max":[
				0.08481805771589279,
				0.26121535897254944,
				0.2501949071884155
			],
			"min":[
				-0.08473165333271027,
				-0.024763045832514763,
				-0.30347776412963867
			],
			"type":"VEC3"
		},
		{
			"bufferView":1,
			"componentType":5126,
			"count":3416,
			"type":"VEC3"
		},
		{
			"bufferView":2,
			"componentType":5126,
			"count":3416,
			"type":"VEC2"
		},
		{
			"bufferView":3,
			"componentType":5123,
			"count":8994,
			"type":"SCALAR"
		},
		{
			"bufferView":4,
			"componentType":5126,
			"count":4,
			"max":[
				0.04720291495323181,
				0.23520395159721375,
				0.19876307249069214
			],
			"min":[
				-0.0455416776239872,
				0.14051079750061035,
				0.19876304268836975
			],
			"type":"VEC3"
		},
		{
			"bufferView":5,
			"componentType":5126,
			"count":4,
			"type":"VEC3"
		},
		{
			"bufferView":6,
			"componentType":5126,
			"count":4,
			"type":"VEC2"
		},
		{
			"bufferView":7,
			"componentType":5123,
			"count":6,
			"type":"SCALAR"
		}
	],
	"bufferViews":[
		{
			"buffer":0,
			"byteLength":40992,
			"byteOffset":0,
			"target":34962
		},
		{
			"buffer":0,
			"byteLength":40992,
			"byteOffset":40992,
			"target":34962
		},
		{
			"buffer":0,
			"byteLength":27328,
			"byteOffset":81984,
			"target":34962
		},
		{
			"buffer":0,
			"byteLength":17988,
			"byteOffset":109312,
			"target":34963
		},
		{
			"buffer":0,
			"byteLength":48,
			"byteOffset":127300,
			"target":34962
		},
		{
			"buffer":0,
			"byteLength":48,
			"byteOffset":127348,
			"target":34962
		},
		{
			"buffer":0,
			"byteLength":32,
			"byteOffset":127396,
			"target":34962
		},
		{
			"buffer":0,
			"byteLength":12,
			"byteOffset":127428,
			"target":34963
		}
	],
	"samplers":[
		{
			"magFilter":9729,
			"minFilter":9987
		}
	],
	"buffers":[
		{
			"byteLength":127440,
			"uri":"security_camera_01_1k.bin"
		}
	]
}
