{
	"asset":{
		"generator":"Khronos glTF Blender I/O v5.2.40",
		"version":"2.0"
	},
	"scene":0,
	"scenes":[
		{
			"name":"Scene",
			"nodes":[
				0
			]
		}
	],
	"nodes":[
		{
			"mesh":0,
			"name":"compost_bag_02"
		}
	],
	"materials":[
		{
			"doubleSided":true,
			"name":"compost_bag_02",
			"normalTexture":{
				"index":0
			},
			"pbrMetallicRoughness":{
				"baseColorTexture":{
					"index":1
				},
				"metallicFactor":0,
				"metallicRoughnessTexture":{
					"index":2
				}
			}
		}
	],
	"meshes":[
		{
			"name":"mesh.007",
			"primitives":[
				{
					"attributes":{
						"POSITION":0,
						"NORMAL":1,
						"TEXCOORD_0":2
					},
					"indices":3,
					"material":0
				}
			]
		}
	],
	"textures":[
		{
			"sampler":0,
			"source":0
		},
		{
			"sampler":0,
			"source":1
		},
		{
			"sampler":0,
			"source":2
		}
	],
	"images":[
		{
			"mimeType":"image/jpeg",
			"name":"compost_bag_02_nor_gl_1k",
			"uri":"textures/compost_bag_02_nor_gl_1k.jpg"
		},
		{
			"mimeType":"image/jpeg",
			"name":"compost_bag_02_diff_1k",
			"uri":"textures/compost_bag_02_diff_1k.jpg"
		},
		{
			"mimeType":"image/jpeg",
			"name":"compost_bag_02_arm_1k",
			"uri":"textures/compost_bag_02_arm_1k.jpg"
		}
	],
	"accessors":[
		{
			"bufferView":0,
			"componentType":5126,
			"count":3321,
			"max":[
				0.2588033676147461,
				0.4245937764644623,
				0.25042781233787537
			],
			"min":[
				-0.28058475255966187,
				-0.009294407442212105,
				-0.2201090008020401
			],
			"type":"VEC3"
		},
		{
			"bufferView":1,
			"componentType":5126,
			"count":3321,
			"type":"VEC3"
		},
		{
			"bufferView":2,
			"componentType":5126,
			"count":3321,
			"type":"VEC2"
		},
		{
			"bufferView":3,
			"componentType":5123,
			"count":14997,
			"type":"SCALAR"
		}
	],
	"bufferViews":[
		{
			"buffer":0,
			"byteLength":39852,
			"byteOffset":0,
			"target":34962
		},
		{
			"buffer":0,
			"byteLength":39852,
			"byteOffset":39852,
			"target":34962
		},
		{
			"buffer":0,
			"byteLength":26568,
			"byteOffset":79704,
			"target":34962
		},
		{
			"buffer":0,
			"byteLength":29994,
			"byteOffset":106272,
			"target":34963
		}
	],
	"samplers":[
		{
			"magFilter":9729,
			"minFilter":9987
		}
	],
	"buffers":[
		{
			"byteLength":136268,
			"uri":"compost_bag_02_1k.bin"
		}
	]
}
