{
	"asset":{
		"generator":"Khronos glTF Blender I/O v5.2.40",
		"version":"2.0"
	},
	"scene":0,
	"scenes":[
		{
			"name":"Scene",
			"nodes":[
				0
			]
		}
	],
	"nodes":[
		{
			"mesh":0,
			"name":"trashbag"
		}
	],
	"materials":[
		{
			"doubleSided":true,
			"name":"trashbag",
			"normalTexture":{
				"index":0
			},
			"pbrMetallicRoughness":{
				"baseColorTexture":{
					"index":1
				},
				"metallicFactor":0,
				"metallicRoughnessTexture":{
					"index":2
				}
			}
		}
	],
	"meshes":[
		{
			"name":"Plane.006",
			"primitives":[
				{
					"attributes":{
						"POSITION":0,
						"NORMAL":1,
						"TEXCOORD_0":2
					},
					"indices":3,
					"material":0
				}
			]
		}
	],
	"textures":[
		{
			"sampler":0,
			"source":0
		},
		{
			"sampler":0,
			"source":1
		},
		{
			"sampler":0,
			"source":2
		}
	],
	"images":[
		{
			"mimeType":"image/jpeg",
			"name":"trashbag_nor_gl_1k",
			"uri":"textures/trashbag_nor_gl_1k.jpg"
		},
		{
			"mimeType":"image/jpeg",
			"name":"trashbag_diff_1k",
			"uri":"textures/trashbag_diff_1k.jpg"
		},
		{
			"mimeType":"image/jpeg",
			"name":"trashbag_arm_1k",
			"uri":"textures/trashbag_arm_1k.jpg"
		}
	],
	"accessors":[
		{
			"bufferView":0,
			"componentType":5126,
			"count":2483,
			"max":[
				0.26759958267211914,
				0.5735452175140381,
				0.22307318449020386
			],
			"min":[
				-0.2604704797267914,
				-0.0014541670680046082,
				-0.23981982469558716
			],
			"type":"VEC3"
		},
		{
			"bufferView":1,
			"componentType":5126,
			"count":2483,
			"type":"VEC3"
		},
		{
			"bufferView":2,
			"componentType":5126,
			"count":2483,
			"type":"VEC2"
		},
		{
			"bufferView":3,
			"componentType":5123,
			"count":13446,
			"type":"SCALAR"
		}
	],
	"bufferViews":[
		{
			"buffer":0,
			"byteLength":29796,
			"byteOffset":0,
			"target":34962
		},
		{
			"buffer":0,
			"byteLength":29796,
			"byteOffset":29796,
			"target":34962
		},
		{
			"buffer":0,
			"byteLength":19864,
			"byteOffset":59592,
			"target":34962
		},
		{
			"buffer":0,
			"byteLength":26892,
			"byteOffset":79456,
			"target":34963
		}
	],
	"samplers":[
		{
			"magFilter":9729,
			"minFilter":9987
		}
	],
	"buffers":[
		{
			"byteLength":106348,
			"uri":"trashbag_1k.bin"
		}
	]
}
