{
	"asset":{
		"generator":"Khronos glTF Blender I/O v5.2.40",
		"version":"2.0"
	},
	"scene":0,
	"scenes":[
		{
			"name":"Scene",
			"nodes":[
				0
			]
		}
	],
	"nodes":[
		{
			"mesh":0,
			"name":"utility_box_01_box"
		}
	],
	"materials":[
		{
			"doubleSided":true,
			"name":"utility_box_01",
			"normalTexture":{
				"index":0
			},
			"pbrMetallicRoughness":{
				"baseColorTexture":{
					"index":1
				},
				"metallicRoughnessTexture":{
					"index":2
				}
			}
		}
	],
	"meshes":[
		{
			"name":"Cube.028",
			"primitives":[
				{
					"attributes":{
						"POSITION":0,
						"NORMAL":1,
						"TEXCOORD_0":2
					},
					"indices":3,
					"material":0
				}
			]
		}
	],
	"textures":[
		{
			"sampler":0,
			"source":0
		},
		{
			"sampler":0,
			"source":1
		},
		{
			"sampler":0,
			"source":2
		}
	],
	"images":[
		{
			"mimeType":"image/jpeg",
			"name":"utility_box_01_nor_gl_1k",
			"uri":"textures/utility_box_01_nor_gl_1k.jpg"
		},
		{
			"mimeType":"image/jpeg",
			"name":"utility_box_01_diff_1k",
			"uri":"textures/utility_box_01_diff_1k.jpg"
		},
		{
			"mimeType":"image/jpeg",
			"name":"utility_box_01_arm_1k",
			"uri":"textures/utility_box_01_arm_1k.jpg"
		}
	],
	"accessors":[
		{
			"bufferView":0,
			"componentType":5126,
			"count":3637,
			"max":[
				0.2600001096725464,
				1.1203334331512451,
				0.22200000286102295
			],
			"min":[
				-0.2600001096725464,
				0,
				-0.20999999344348907
			],
			"type":"VEC3"
		},
		{
			"bufferView":1,
			"componentType":5126,
			"count":3637,
			"type":"VEC3"
		},
		{
			"bufferView":2,
			"componentType":5126,
			"count":3637,
			"type":"VEC2"
		},
		{
			"bufferView":3,
			"componentType":5123,
			"count":13212,
			"type":"SCALAR"
		}
	],
	"bufferViews":[
		{
			"buffer":0,
			"byteLength":43644,
			"byteOffset":0,
			"target":34962
		},
		{
			"buffer":0,
			"byteLength":43644,
			"byteOffset":43644,
			"target":34962
		},
		{
			"buffer":0,
			"byteLength":29096,
			"byteOffset":87288,
			"target":34962
		},
		{
			"buffer":0,
			"byteLength":26424,
			"byteOffset":116384,
			"target":34963
		}
	],
	"samplers":[
		{
			"magFilter":9729,
			"minFilter":9987
		}
	],
	"buffers":[
		{
			"byteLength":142808,
			"uri":"utility_box_01_1k.bin"
		}
	]
}
